<svg xmlns="http://www.w3.org/2000/svg" data-name="Layer 2" viewBox="0 0 1000 1000"><path fill="#97bdff" d="m997.82,258.67v661.97c0,16.49-13.37,29.86-29.86,29.86H358.77c-16.49,0-29.85-13.37-29.85-29.86V258.67c0-16.49,13.36-29.85,29.85-29.85h609.19c16.49,0,29.86,13.36,29.86,29.85Z"/><path fill="#cce6ff" d="m997.82,258.67v661.97c0,16.49-13.37,29.86-29.86,29.86H415.93c-16.48,0-29.85-13.37-29.85-29.86V258.67c0-16.49,13.37-29.85,29.85-29.85h552.02c16.49,0,29.86,13.36,29.86,29.85Z"/><path fill="#97bdff" d="m586.11,824.24c-41.48,13.07-84.84,18.3-128.1,21.06-44.79,2.86-89.76,4.02-134.64,3.02-44.34-.99-89.04-3.77-132.82-11.17-38.98-6.59-78.35-18.01-110.83-41.31-27.83-19.96-48.24-48.11-60.47-79.96-11.69-30.41-16.76-63.46-15.35-95.98,1.41-32.54,9.57-65.41,26.94-93.21,18.71-29.93,48.02-51.2,81.54-61.77,37.08-11.69,75.71-9.51,113.29-1.48,42.73,9.12,83.62,24.92,125.78,36.2,39.65,10.61,81.26,17.32,122.13,10.11,34.65-6.11,68.28-21.74,92.83-47.32,23.76-24.76,37.42-59.02,36.17-93.43-.61-16.74-4.86-33.35-13.03-48.02-9.15-16.4-22.56-29.98-37.09-41.69-30.7-24.73-66.29-45.02-104.4-55.6-41.02-11.39-84.35-12.13-126.63-11.42-39.79.66-80.09,4.01-118.27,15.89-34.12,10.61-68.32,28.28-90.47,57.15-9.99,13.02-17.34,28.44-19.19,44.87-1.66,14.69.92,29.95,7.39,43.25s16.63,24,29.99,29.72c8.91,3.81,18.64,5.1,28.25,5.46,10.83.4,21.73-.04,32.54-.87,21.07-1.61,41.95-5.18,62.37-10.58,1.86-.49,1.07-3.39-.8-2.89-21.35,5.65-43.19,9.29-65.23,10.73-10.74.7-21.61,1.11-32.37.44-9.7-.61-19.46-2.48-28.05-7.21-27.04-14.89-36.97-51.11-28.79-79.55,9.98-34.7,40.3-59.25,71.6-74.45,36.2-17.58,76.45-24.8,116.31-27.55,20.1-1.38,40.28-1.68,60.42-1.5,21.57.19,43.2,1.09,64.58,4.11s40.94,7.93,60.33,15.68,36.66,17.33,53.54,28.5c31.02,20.53,61.9,46.15,71.06,83.89,8.21,33.85-.59,70.92-20.7,99.02s-54,48.42-88.5,57.32c-39.92,10.29-81.38,6.13-121.03-3.35-41.96-10.03-82.32-25.64-124.15-36.12-36.99-9.27-75.41-14.52-113.16-6.73-33.7,6.95-65.52,23.76-87.99,50.14-20.35,23.89-32.25,53.96-37.34,84.71-5.24,31.67-3.73,64.5,3.74,95.69,7.47,31.14,21.21,61.07,42.58,85.15,23.69,26.7,55.37,44.08,89.07,54.88,40.23,12.9,82.97,17.39,124.93,20.47,44.48,3.27,89.12,3.75,133.69,2.49,42.93-1.21,86.14-3.15,128.6-9.89,20.48-3.25,40.75-7.76,60.53-13.99,1.84-.58,1.05-3.48-.8-2.89h0Z"/><path fill="#97bdff" d="m711.01,285.02c-22.59-25.98-35.64-59.64-36.59-94.05-.92-33.48,10.02-66.07,30.67-92.4,20.08-25.61,47.96-44.96,78.75-55.38,30.79-10.42,65.28-11.98,96.05-.57,14.5,5.38,27.98,13.92,37.95,25.86,11.41,13.65,17.39,31.45,16.66,49.22-1.43,34.72-29.48,58.12-49.54,83.41-10.44,13.17-19.25,27.69-22.21,44.47-3.22,18.28.13,37.04,9.14,53.23,8.4,15.09,20.75,27.54,33.35,39.15,13.19,12.15,26.86,23.74,39.02,36.97,23.9,26.01,44.22,58.25,48.01,94.1,3.25,30.7-6.5,63.28-28.63,85.27-5.52,5.48-11.73,10.17-18.47,14.04-1.67.96-.16,3.55,1.51,2.59,27.7-15.89,44.55-45.31,48.37-76.58,4.24-34.78-8.98-68.81-28.73-96.91-10.66-15.16-23.23-28.91-36.79-41.51s-27.6-24.04-39.8-37.68-22.48-30.63-24.69-49.68c-2.26-19.46,3.3-38.08,13.98-54.27,17.91-27.15,47.3-48.12,56.07-80.7,4.58-17.01,2.66-35.43-4.87-51.31-6.93-14.59-18.66-26.36-32.49-34.51-28.01-16.5-63.17-19.34-94.56-12.91-32.47,6.65-62.93,23.02-86.51,46.3-23.53,23.22-39.59,53.28-43.97,86.18-4.56,34.26,3.12,69.83,21.14,99.31,4.43,7.25,9.5,14.1,15.07,20.51,1.27,1.46,3.38-.67,2.12-2.12h0Z"/><path fill="#2b3aa3" d="m553.1,346.41c-2.34.12-4.98-.19-7.87-.26-10.07-.24-23.2-.32-37.72-.48-24.13-.26-52.04-.73-75.86-2.56-1.17-.09-2.33-.18-3.49-.27-3.89-.3-7.73-.62-11.53-.95-36.09-3.07-66.98-6.64-75.94-6.12-2.11.12-7.25-.22-14.07-.85-6.03-.55-13.39-1.33-21.12-2.2-25.59-2.86-55.35-6.68-55.35-6.68v125.95s13.54-.82,29.67-1.79c58,5.55,195.15,19.09,245.93,27.76,2.43.99,4.77,1.97,7.01,2.91,18.18,7.62,30.81,39.08,30.81,39.08,0,0,42.78-64.92,47.6-86.61,4.78-21.52,46.77-85.83,47.69-86.8-.94.34-43.52-3.34-105.76-.12Z"/><ellipse cx="250.16" cy="389.01" fill="#121863" rx="40.79" ry="62.98"/><path fill="#ffc7d2" d="m297.93,322.4s-10.68,37.87-15.04,53.96c-4.34,16.08-6.93,53.96-49.54,52.77h-.02c-7.92-2.65-14.25-6.43-20.14-13.04-9.57-10.73-17.1-73.16-17.39-81.4-.29-8.26,3.83-69.93,4.48-75.08.66-5.15,9.14-8.26,9.14-8.26,0,0,.43-17.11,2.61-21.04,2.16-3.91,16.3-2.26,16.3-2.26,0,0,0-8.47,8.7-12.8,8.7-4.33,15.43,15.48,15.43,15.48,0,0,8.7-7.84,16.52,4.94,7.83,12.8,6.52,73.43,6.52,73.43,0,0,.44-5.78,3.92-8.66,3.47-2.89,8.7-12.38,17.4-9.9,6.83,1.94,3.18,16.35,1.11,31.85Z"/><path fill="#f47382" d="m277.06,303.88c-5.62-.85-10.25,2.96-14.42,6.19s-8.31,6.9-12.02,10.84c-7.37,7.83-13.37,16.96-16.96,27.13-2.07,5.88-3.26,12.06-3.45,18.29-.06,1.93,2.94,1.93,3,0,.62-20.61,12.82-38.59,28.21-51.46,2.2-1.84,4.46-3.61,6.82-5.25s5.09-3.29,8.02-2.85c1.89.29,2.7-2.6.8-2.89h0Z"/><path fill="#f47382" d="m207.88,250.82c.99,21.07,1.51,42.16,1.53,63.25,0,1.93,3,1.93,3,0-.03-21.09-.54-42.18-1.53-63.25-.09-1.92-3.09-1.93-3,0h0Z"/><path fill="#f47382" d="m225.69,228.81c1.39,20.74,2.2,41.53,2.84,62.3.17,5.54.32,11.09.46,16.63.05,1.93,3.05,1.93,3,0-.51-20.78-1.22-41.56-2.32-62.32-.29-5.54-.61-11.07-.99-16.61-.13-1.92-3.13-1.93-3,0h0Z"/><path fill="#f47382" d="m251.88,231.29c-.06,18.24.11,36.48.52,54.72.12,5.14.25,10.28.41,15.42.06,1.93,3.06,1.93,3,0-.55-18.23-.86-36.47-.93-54.71-.02-5.14-.02-10.28,0-15.42,0-1.93-2.99-1.93-3,0h0Z"/><path fill="#f47382" d="m201.08,323.7c16.12-9.23,33.82-16.3,52.51-17.63,5.37-.38,10.76-.28,16.1.33,1.91.22,1.9-2.78,0-3-19.21-2.2-38.45,2.44-55.88,10.37-4.86,2.21-9.6,4.69-14.24,7.34-1.68.96-.17,3.55,1.51,2.59h0Z"/><g><path fill="#121a54" d="m418.75,352.47c9.61,15.5,17.18,32.2,22.48,49.65.56,1.84,3.46,1.06,2.89-.8-5.37-17.69-13.04-34.66-22.78-50.37-1.02-1.64-3.61-.13-2.59,1.51h0Z"/><path fill="#121a54" d="m441.71,379.52c4.51,7.83,7.92,16.21,10.17,24.96.48,1.87,3.38,1.08,2.89-.8-2.31-8.99-5.84-17.63-10.47-25.67-.96-1.67-3.56-.16-2.59,1.51h0Z"/><path fill="#121a54" d="m539.43,425.44c9.52,20.85,16.66,42.78,21.28,65.23,1.31,6.36,2.41,12.77,3.31,19.2.27,1.9,3.16,1.09,2.89-.8-3.22-22.98-9.05-45.58-17.37-67.25-2.32-6.04-4.83-12.01-7.52-17.9-.8-1.75-3.39-.23-2.59,1.51h0Z"/><path fill="#121a54" d="m537.27,457.86c6.92,15.67,13.45,31.5,19.59,47.49.69,1.78,3.59,1.01,2.89-.8-6.24-16.23-12.87-32.3-19.89-48.21-.78-1.76-3.36-.24-2.59,1.51h0Z"/></g><path fill="#467ee0" d="m428.17,342.83c-6.16,14.7-12.46,29.39-14.75,33.64-5.03,9.31-63.53,9.17-82.79,6.86-11.74-1.41-20.25-29.16-25.1-50.62,7.73.88,15.09,1.65,21.12,2.2,1.67,9.54,3.55,17.81,5.52,21.53,6.17,11.63,54.7,6.86,71.65,0,5.28-2.13,9.5-7.78,12.83-14.56,3.79.32,7.63.64,11.53.95Z"/><path fill="#83d3ff" d="m545.57,374.6c-.15,3.77-28.95,4.11-32.38,2.11-3.42-2-1.37-4.16-2.74-17.86-.47-4.7-1.62-9.23-2.94-13.19,14.51.16,27.65.24,37.72.48.73,11.39.42,26.07.33,28.45Z"/><g><path fill="#ffc7d2" d="m669.2,371.94s7.62,63.13,62.48,77.61c54.83,14.51,84.7-62.38,84.7-62.38,0,0-15.29-60.72-15.36-91.21,0-7.56,1.26-15.57,3.15-23.32,5.77-23.47,17.47-44.6,17.47-44.6l-82.89-5.35s-.27,3.06-7.88,54.29c-1.83,12.32-6.35,24.21-12.18,35.18-18.32,34.56-49.48,59.77-49.48,59.77Z"/><path fill="#f47382" d="m718.68,312.17c3.51,14.86,7.21,28.58,9.46,31.44,5.35,6.79,33.91-10.53,57.08-39.73,6.72-8.48,13.19-19.64,18.94-31.23,5.77-23.47,17.47-44.6,17.47-44.6l-82.89-5.35s-.27,3.06-7.88,54.29c-1.83,12.32-6.35,24.21-12.18,35.18Z"/><path fill="#1b216b" d="m847.66,186.46c-5.3,8.26-7.56,8.72-7.9,11.26-.32,2.42,3.56,5.83-1.92,10.62-.28.25-.58.5-.91.75-2.92,2.23-6.68,2.76-10.02,2.64-19.41,24.65-44.91,30.2-44.91,30.2l-115.83-55.19-9.12-4.35h-.03s-.58-1.22-1.48-3.42h0c-.67-1.66-1.52-3.88-2.44-6.58-1.03-3.03-2.14-6.66-3.17-10.76-1.67-1.43-7.5-6.87-6.4-12.14,1.29-6.14,1.25-9.13.71-10.85-.54-1.72-3.12-11.95-1.11-17.09,2.01-5.13,3.46-6.81,4.03-8.11.57-1.3-2.25-14.98,2.38-21.31,1.5-2.06,2.64-3.36,3.53-4.28.84-.87,1.47-1.4,1.97-1.9.59-.59,1.02-1.13,1.47-2.16,1.24-2.83,8.04-21.22,12.61-22.3,4.57-1.09,7.98-.89,9.52-3.03,1.55-2.14,13.86-18.9,19.31-19.57,5.45-.67,11.75,2.91,13.64,2,1.89-.9,15.47-9.97,20.82-7.16,5.36,2.81,8.3,6.05,10.1,5.46,1.8-.59,22.76-7.01,28.77-1.04,6.01,5.97,7.52,8.99,9.3,9.11,1.78.12,22.92,1.81,26.4,7.98,3.48,6.18,4.04,8.43,5.74,8.88s20.86,7.76,22.92,14.96c2.06,7.21,3.21,12.25,3.58,12.7s15.02,16.22,13.84,23.81c-1.17,7.59-3.05,12.88-2.63,14.4s-2.1,12.77-5.2,21.43c-3.1,8.66,4.74,11.08,4.91,13.58.17,2.5,2.79,13.19-2.51,21.45Z"/><path fill="#ffc7d2" d="m853.85,241.98c-8.37,18.08-43.44,6.77-43.44,6.77,0,0-.03.07-.11.24-1.45,3.19-16.23,34.88-29.56,47.31-8.81,8.26-27.88,16.42-46.12,21.84t-.03,0c-5.49.55-17.03,3.25-32.36,1.97-15.36-1.27-29.5-5.25-43.01-36.36-13.1-30.14-11.14-63.55-11-65.6,0-.08,0-.11,0-.11.59-4.51,1.37-8.19,2.11-10.93,2.37-8.83.45-16.14-.08-26.69-.19-3.86.45-10.84,1.34-18.14h0c.17-.49,6.25-17.76,7.19-19.33.94-1.59,6.57,3.04,11.04,4.22s9.1-.76,12.67-2.72c3.57-1.96,4.22,1.37,12.98,2.09,8.76.72,19.12-3.4,19.12-3.4,0,0,3.81,6.26,8.4,9.83,4.59,3.58,12.49,3.55,15.76,3.61,3.26.07,6.09,2.39,11.09,6.07,5,3.69,11.88,4.17,16.26,4.53,4.38.36,9.08,4.49,19.48,6.96,5.82,1.38,13.45-1.35,19.05-4.02-.61,4.15-1.59,11.01-2.63,18.46-.51,5.05-1.16,10.8-2.09,15.64-1.3,10.24-2.25,18.66-1.8,19.48,1.12,2.07,4.48,2.16,7.24,1.49,2.8-.62,6.08-18.23,8.47-21.49,1.23-1.69,6.41-2.45,12.53-2.07,5.93.38,12.75,1.83,17.72,4.57,2.58,1.44,5.03,3.31,7.1,5.6,5.99,6.6,8.85,16.69,2.67,30.15Z"/><path fill="#f47382" d="m825.19,242.72c.84.22,1.9.36,3.2.36,4.52,0,12.31-5.57,15.6-12.76,1.86-4.06,2.98-10.17-2.23-16.17-2.98-3.43-6.36-5.1-10.05-4.97-7.85.27-14.21,8.6-14.47,8.95-.3.4-.22.96.18,1.26.4.3.96.22,1.26-.18.06-.08,6.11-8,13.1-8.23,3.12-.11,6.03,1.36,8.63,4.35,4.58,5.28,3.59,10.66,1.96,14.25-3.11,6.8-10.49,11.71-13.96,11.7-2.69,0-4.49-.67-4.82-1.78-.23-.78.32-1.77,1.37-2.46.22-.14.45-.29.68-.44,2.89-1.86,7.26-4.67,4.37-9.54-1.41-2.38-3.05-2.91-4.16-2.93-2.08-.04-3.85,1.53-4.74,2.89-1.31,2.01-1.9,3.56-1.92,3.62-.17.46.06.98.53,1.16.46.17.98-.06,1.16-.53,0-.01.55-1.44,1.74-3.27.67-1.02,1.95-2.1,3.2-2.08.96.02,1.86.71,2.66,2.05,1.86,3.13-.4,4.92-3.79,7.11-.24.15-.47.31-.7.45-1.75,1.15-2.57,2.91-2.1,4.48.25.84,1.02,2.09,3.34,2.7Z"/><path fill="#f47382" d="m689.04,243.1c4.33,1.14,8.72.9,9.02.89.66-.04,1.16-.61,1.12-1.27-.04-.66-.6-1.17-1.27-1.13-.11,0-11.08.59-14.3-4.47-2.66-4.18-.34-6.36,5.65-11.32.51-.42,1.03-.85,1.57-1.3,6.91-5.8,3.54-18.14,3.39-18.67-.18-.64-.84-1.01-1.48-.83-.64.18-1.01.84-.83,1.48.03.11,3.1,11.38-2.62,16.18-.53.45-1.05.88-1.55,1.29-5.62,4.65-10.05,8.32-6.15,14.46,1.6,2.52,4.51,3.92,7.44,4.69Z"/><path fill="#c94b5d" d="m678.82,274.7c1.07,8.98,10.64,15.22,21.37,13.93,5.65-.68,10.49-3.3,13.66-6.94,2.85-3.28,4.34-7.38,3.83-11.64-.51-4.25-2.92-7.88-6.44-10.39-3.94-2.82-9.28-4.23-14.93-3.56-5.77.69-10.69,3.41-13.84,7.18-1.42,1.68-2.48,3.58-3.09,5.59-.58,1.86-.78,3.82-.54,5.82Z"/><path fill="#fff" d="m682.46,263.29c4.29-.09,8.86-.41,13.58-.98,5.39-.64,10.51-1.55,15.2-2.65-3.94-2.82-9.28-4.23-14.93-3.56-5.77.69-10.69,3.41-13.84,7.18Z"/><path fill="#f47382" d="m678.82,274.7c1.07,8.98,10.64,15.22,21.37,13.93,5.65-.68,10.49-3.3,13.66-6.94-7.81-8.76-20.58-13.87-34.49-12.81-.58,1.86-.78,3.82-.54,5.82Z"/><path fill="#1b216b" d="m647.34,185.77c.43-1.17,1.32-2.11,2.44-2.68,5.18-2.64,23.17-9.35,70.04-7.58,58.04,2.19,92.13,15.19,99.04,16.54s15.72,5.38,18.39,6.24,3.31,3.01,3.31,3.01l-.03,3.32s-25.44-3.62-26.72-.88-5.12,20.75-8.47,21.49-74.17-10.91-107.1-9.73c-32.93,1.18-49.29,8.61-51.49,5.06-2.08-3.35-3.23-24.4.58-34.79Z"/><path fill="#ff4f5a" d="m651.33,189.68c.25-1.38,1.12-2.51,2.31-3.03,5.85-2.58,29.3-10.35,69.6-6.75,48.71,4.34,60.48,7.91,61.25,10.29s-1.13,26.82-4.01,27.99-42.12-9.1-79.83-7.74c-37.71,1.36-47.6,7.93-49.11,4.77-1.37-2.86-1.55-18.06-.21-25.52Z"/><path fill="#1b216b" d="m689.04,243.1s-24.39,3.62-27.43,9.18-3.04,10.13-1.01,11.01,9.62-2.15,9.62-2.15c0,0-4.81,6.6.51,7.6,5.32,1,14.69-8.27,14.69-8.27,0,0-1.34,1.93,3.63.92s10.15-6.83,10.15-6.83c0,0,3.66,6.4,6.72,5.06s3.54-3.66,3.54-3.66c0,0,14.93,14.04,18.98,7.33s4.3-11.26-2.28-16.83-37.11-3.36-37.11-3.36Z"/><g><path fill="#293b93" d="m852.34,142.74s44.16-25.28,27.1-45.81c-17.06-20.53-102.16-68.61-151.72-83.23-49.56-14.62-63.98-8.06-78.39,4.28-14.4,12.34-31.27,42.35-29.41,56.64,1.86,14.29,22.54,35.53,22.54,35.53,0,0,73.66-11.85,119.58-2.28,45.92,9.58,90.28,34.87,90.28,34.87Z"/><path fill="#95afe8" d="m642.47,110.15l.1,24.57s57.03-14.31,113.8-2.25c56.77,12.06,94.43,31.79,94.43,31.79l-.08-21.5s-59.86-62.81-208.24-32.6Z"/><path fill="#627ecc" d="m642.57,134.72s-29.93,15.65-12.89,30.4c17.04,14.75,185.43-15.9,185.43-15.9,0,0-85.93-39.05-172.54-14.5Z"/></g><path fill="#83d3ff" d="m666.69,43.26l26.28,11.77s2.02,9.98-3.06,20.44-16.23,17.19-16.23,17.19c0,0-11.99-4.54-17.45-14.98-5.45-10.43-7.09-18.72-7.09-18.72l17.54-15.71Z"/><g><path fill="#fff" d="m680.77,201.48c0-.71-.26-1.27-.79-1.66-.53-.4-1.45-.81-2.78-1.23-1.33-.43-2.41-.84-3.25-1.23-2.74-1.29-4.11-3.05-4.11-5.3,0-1.12.34-2.11,1.02-2.96.68-.85,1.65-1.52,2.89-2,1.25-.48,2.65-.71,4.21-.71s2.88.26,4.08.78c1.2.52,2.14,1.26,2.81,2.21s1,2.05,1,3.28h-5.08c0-.82-.26-1.46-.79-1.91-.53-.45-1.24-.68-2.14-.68s-1.63.19-2.15.58c-.53.38-.79.87-.79,1.46,0,.52.29.99.87,1.41.58.42,1.6.86,3.06,1.3,1.46.45,2.66.93,3.6,1.45,2.28,1.26,3.42,2.99,3.42,5.2,0,1.77-.7,3.15-2.09,4.16-1.39,1.01-3.3,1.51-5.73,1.51-1.71,0-3.26-.29-4.65-.88-1.39-.59-2.43-1.39-3.13-2.41-.7-1.02-1.05-2.2-1.05-3.53h5.11c0,1.08.29,1.88.88,2.39.58.51,1.54.77,2.85.77.84,0,1.51-.17,2-.52.49-.35.73-.83.73-1.46Z"/><path fill="#fff" d="m705.05,190.41h-6.34v16.44h-5.09v-16.44h-6.22v-3.76h17.66v3.76Z"/><path fill="#fff" d="m724.68,197.16c0,1.97-.38,3.71-1.15,5.23-.76,1.52-1.85,2.68-3.26,3.5-1.41.82-3.01,1.23-4.81,1.23s-3.39-.4-4.79-1.19c-1.39-.79-2.48-1.92-3.26-3.39-.78-1.47-1.19-3.16-1.23-5.06v-1.14c0-1.98.38-3.72,1.14-5.24.76-1.51,1.85-2.68,3.26-3.5,1.42-.82,3.03-1.23,4.84-1.23s3.39.41,4.79,1.22c1.4.81,2.49,1.97,3.27,3.47.78,1.5,1.17,3.22,1.18,5.17v.93Zm-5.18-.85c0-2.01-.35-3.53-1.05-4.57s-1.7-1.56-3.01-1.56c-2.55,0-3.9,1.83-4.05,5.49v1.48c-.01,1.98.33,3.5,1.02,4.56.69,1.06,1.71,1.6,3.06,1.6s2.28-.52,2.97-1.57,1.05-2.55,1.06-4.51v-.93Z"/><path fill="#fff" d="m732.4,199.99v6.85h-5.09v-20.19h8.43c1.61,0,3.04.28,4.29.85,1.24.57,2.21,1.38,2.89,2.43.68,1.05,1.02,2.24,1.02,3.57,0,1.97-.74,3.54-2.21,4.72-1.47,1.18-3.5,1.77-6.07,1.77h-3.25Zm0-3.76h3.34c.99,0,1.74-.24,2.26-.71.52-.47.78-1.14.78-2,0-.94-.27-1.7-.8-2.26-.53-.56-1.26-.85-2.18-.86h-3.39v5.83Z"/></g><g><path fill="#121863" d="m555.67,749.8s-46.34-10.63-59.68,7.24c-13.34,17.87-30.23,109.07-21.31,125.57,8.92,16.51,39.19,45.39,63.73,19.74,24.54-25.65,50.61-144.6,17.26-152.55Z"/><path fill="#2b3aa3" d="m536.05,791.64s-18.15,51.19-23.22,85.03c-5.07,33.84-7.34,75.42-3.51,80.07,3.83,4.65,70.57,36.26,178.96,37.86,108.39,1.61,239.43-32.99,244.61-59.21,5.18-26.22-16.82-121.24-25.93-126.15-9.11-4.91-370.91-17.61-370.91-17.61Z"/><path fill="#121a54" d="m669.08,927.57c-.8,0-1.46-.63-1.5-1.44l-3.46-80.35c-.04-.83.61-1.53,1.43-1.56.83-.05,1.53.61,1.56,1.43l3.46,80.35c.04.83-.61,1.53-1.43,1.56-.02,0-.04,0-.07,0Z"/><path fill="#121a54" d="m694.67,946.75c-.29,0-.57-.08-.83-.25-22.25-14.83-42.6-32.43-60.48-52.32-.55-.62-.5-1.56.11-2.12.62-.55,1.56-.5,2.12.11,17.71,19.7,37.87,37.13,59.92,51.83.69.46.88,1.39.42,2.08-.29.43-.76.67-1.25.67Z"/><path fill="#121a54" d="m683.49,952s-.04,0-.07,0c-9.99-.43-20.09-1.2-30.02-2.27-.82-.09-1.42-.83-1.33-1.65.09-.82.83-1.42,1.65-1.33,9.87,1.06,19.9,1.82,29.83,2.25.83.04,1.47.74,1.43,1.56-.03.81-.7,1.44-1.5,1.44Z"/><path fill="#121a54" d="m685.64,993.32c-.67,0-1.28-.45-1.45-1.13-3.46-13.78-6.85-27.79-10.09-41.63-.19-.81.31-1.61,1.12-1.8.81-.18,1.61.31,1.8,1.12,3.23,13.83,6.62,27.82,10.08,41.58.2.8-.29,1.62-1.09,1.82-.12.03-.25.04-.37.04Z"/><path fill="#121a54" d="m668.92,899.35c-.05,0-.11,0-.16,0-.83,0-1.49-.69-1.48-1.52.01-.83.72-1.49,1.52-1.48,3.6.04,7.33-1.77,11.53-5.55,1.35-1.22,2.38-2.29,2.99-3.56.73-1.53.85-3.34.91-5.39.42-13.07-.37-26.25-2.37-39.17-.13-.82.43-1.58,1.25-1.71.82-.12,1.58.43,1.71,1.25,2.03,13.11,2.84,26.47,2.4,39.72-.07,2.3-.22,4.53-1.21,6.59-.87,1.82-2.29,3.24-3.69,4.49-4.73,4.25-9.12,6.32-13.41,6.32Z"/><path fill="#121a54" d="m908.09,956.45c-.77,0-1.43-.59-1.49-1.38-3.72-44.98-13.48-89.28-29.01-131.65-.29-.78.11-1.64.89-1.92.78-.28,1.64.11,1.92.89,15.62,42.63,25.44,87.19,29.19,132.44.07.83-.55,1.55-1.37,1.62-.04,0-.08,0-.12,0Z"/><path fill="#121a54" d="m693.17,900.1c-.5,0-.99-.25-1.28-.71-.44-.71-.22-1.63.49-2.07,15.03-9.29,30.31-18.59,45.41-27.66.71-.43,1.63-.2,2.06.51.43.71.2,1.63-.51,2.06-15.1,9.06-30.36,18.36-45.38,27.64-.25.15-.52.22-.79.22Z"/><path fill="#121a54" d="m712.56,902.47c-.06,0-.12,0-.18,0-5.71-.67-11.52-1.02-17.27-1.03-.83,0-1.5-.67-1.5-1.5,0-.83.67-1.5,1.5-1.5h0c5.86.01,11.79.37,17.61,1.05.82.1,1.41.84,1.31,1.67-.09.76-.74,1.33-1.49,1.33Z"/><path fill="#121a54" d="m625.96,882.34c-.3,0-.61-.09-.87-.28l-26.02-18.69c-.67-.48-.83-1.42-.34-2.09.48-.67,1.42-.83,2.09-.34l26.02,18.69c.67.48.83,1.42.34,2.09-.29.41-.75.62-1.22.62Z"/><path fill="#121a54" d="m613.04,882.08c-.72,0-1.36-.52-1.48-1.26-.13-.82.42-1.59,1.24-1.72l4.5-.74c.81-.13,1.59.42,1.72,1.24.13.82-.42,1.59-1.24,1.72l-4.5.74c-.08.01-.17.02-.25.02Z"/><path fill="#121a54" d="m615.92,897.9c-.41,0-.82-.17-1.12-.5-.55-.62-.5-1.56.11-2.12,2.5-2.25,5.2-4.32,8.01-6.16.69-.45,1.62-.26,2.08.44s.26,1.62-.44,2.08c-2.68,1.75-5.26,3.73-7.65,5.88-.29.26-.65.38-1,.38Z"/><g><path fill="#121863" d="m906.79,785.02s1.06,36.26-5.29,40.93c-6.35,4.67-97.92,26.42-211.51,16.03-113.6-10.39-159.37-38.15-157.48-46.38,1.89-8.24,9.65-33.23,9.65-33.23l364.63,22.66Z"/><path fill="#2b3aa3" d="m943.87,454.73c-17.11,53.43-51.81,136.65-49.23,155.86,1.83,13.63,6.1,39.18,10.61,63.77.43,2.36.86,4.71,1.29,7.04.74,3.93,1.47,7.79,2.19,11.55,3.16,16.38,6.16,30.63,8.23,38.19,5.26,19.22.77,58.29-10.19,66.56-1.05.8-2.15,1.31-3.32,1.49-7.09,1.12-50.67,6.65-96.39,11.37-9.01.92-18.09,1.81-27,2.64-26.03,2.39-50.5,4.17-66.9,4.31-3.08.03-5.88-.01-8.35-.1-7.21-.27-16.25-1.32-26.31-2.95h-.01c-9.39-1.53-19.68-3.55-30.25-5.93-17.39-3.91-35.53-8.77-51.62-13.9-8.17-2.6-15.8-5.27-22.54-7.9-14.7-5.76-25.13-11.4-27.49-15.99-1.46-2.84-2.58-5.61-3.43-8.32-3.98-12.64-2.15-23.85-1.98-33.2.21-11.34.01-56.18.01-56.18,0,0,1.04-7.68,2.73-19.75.51-3.59,1.07-7.57,1.67-11.85,3.24-22.83,7.81-54.19,12.13-80.81,7.88-48.39,38.64-209.96,47.07-215.55,5.68-3.77,33.57-1.23,51.12.82,8.47.99,14.53,1.87,14.53,1.87l3.41,7.29,25.46,29.67.04.04h0s8.76,6.89,8.76,6.89l4.29,2.62h0l.03.98,1.88-1.87h.01s.03-.04.03-.04l65.35-65.29s14.65-10.9,24.73-3.35c0,0,9.48,4.36,23.63,11.2,40.43,19.56,119.1,59.32,124.49,75.31,2.05,6.09-1.96,22.49-8.68,43.51Z"/><path fill="#fff" d="m709.08,398.61s-15.18,79.27-16.6,157.12-.41,147.97-8.58,175.74c-8.17,27.77-8.99,30.62-6.86,39.95s-3.02,33.74,1.46,43.03"/><path d="m678.04,814.67c-2.65-5.48-2.03-15.74-1.43-25.67.42-6.99.82-13.6-.07-17.47-2.17-9.5-1.31-12.41,6.87-40.21,6.57-22.3,7.19-72.83,7.92-131.34.18-14.32.36-29.14.64-44.27,1.41-77,16.46-156.41,16.61-157.2l.98.19c-.15.79-15.19,80.12-16.59,157.03-.28,15.13-.46,29.94-.64,44.27-.73,58.58-1.36,109.17-7.96,131.61-8.12,27.57-8.96,30.45-6.86,39.7.92,4.01.51,10.69.09,17.75-.56,9.34-1.2,19.92,1.33,25.17l-.9.44Z"/><path fill="#83d3ff" d="m850.44,518.82s-2.67,61.15-9.67,67.14c-7,6-24.74,18.77-46.15,15.12-21.4-3.65-35.37-18.82-37.41-26.07-2.04-7.25,5.03-73.51,6.36-73.17,1.33.34,86.86,16.98,86.86,16.98Z"/><path fill="#467ee0" d="m775.27,592.66s-.05,0-.08,0c-.83-.04-1.46-.75-1.42-1.58l4.43-85.32c.04-.83.75-1.46,1.58-1.42.83.04,1.46.75,1.42,1.58l-4.43,85.32c-.04.8-.7,1.42-1.5,1.42Z"/><path fill="#467ee0" d="m820.23,593.43s-.06,0-.08,0c-.83-.05-1.46-.75-1.41-1.58,1.39-25.07,2.25-50.52,2.55-75.63,0-.83.7-1.5,1.52-1.48.83,0,1.49.69,1.48,1.52-.3,25.16-1.16,50.65-2.56,75.76-.04.8-.71,1.42-1.5,1.42Z"/><path fill="#aeecff" d="m855.92,522.78s4.99-27.91,1.76-31.1c-3.23-3.19-14.52-7.08-34.4-6.93-19.89.14-55.29-6.95-60.34.68s-7.62,27.85-4.05,31.06c3.57,3.21,27.59,31.71,38.09,30.48,10.5-1.23,57.66-16.12,58.94-24.18Z"/><rect width="63.29" height="14.05" x="601.24" y="446.46" fill="#aeecff" transform="rotate(3.68 632.309 453.014)"/><rect width="72.63" height="14.05" x="775.5" y="457.96" fill="#aeecff" transform="rotate(3.68 811.073 464.565)"/><path fill="#fff" d="m695.61,837.85c-.09,0-.18,0-.27-.01l-33.56-2.65c-.84-.07-1.62-.46-2.14-1.08-.46-.55-.68-1.23-.61-1.93l1.34-14.75c.13-1.43,1.45-2.55,3.02-2.55.09,0,.17,0,.26,0l33.56,2.66c.84.07,1.61.45,2.12,1.06.46.55.68,1.24.62,1.94l-1.34,14.75c-.13,1.43-1.44,2.55-2.99,2.55h0Z"/><path d="m663.38,815.39c.07,0,.15,0,.22,0l33.56,2.66c.7.05,1.35.38,1.78.88.38.45.55,1,.5,1.57l-1.34,14.75c-.1,1.17-1.2,2.09-2.49,2.09-.08,0-.15,0-.24,0l-33.56-2.65c-.71-.06-1.37-.39-1.8-.9-.37-.45-.55-1-.5-1.56l1.34-14.75c.1-1.17,1.21-2.09,2.52-2.09m0-1c-1.81,0-3.36,1.28-3.51,3l-1.34,14.75c-.17,1.81,1.27,3.39,3.21,3.55l33.56,2.65c.11,0,.21.01.31.01,1.81,0,3.33-1.29,3.49-3l1.34-14.75c.17-1.81-1.26-3.39-3.2-3.54l-33.56-2.66c-.1,0-.2-.01-.3-.01h0Z"/><path fill="#467ee0" d="m713.52,813.55l-2.81,30.81c-.33,3.68-3.8,6.4-7.74,6.1l-50.99-4.03c-3.94-.32-6.86-3.55-6.53-7.23l2.81-30.81c.34-3.68,3.81-6.41,7.74-6.1l50.99,4.03c3.94.31,6.87,3.55,6.53,7.23Z"/><path fill="#fff" d="m586.37,494.87l28.99-16.51c2.64-1.5,5.92-1.3,8.35.53l29.62,22.21c2.1,1.57,3.25,4.11,3.03,6.73-.89,10.48-4.3,37.54-16.41,49.02-11.06,10.48-21.83,14.88-26.87,16.49-1.89.61-3.92.44-5.7-.44-6.23-3.1-21.19-12.01-24.96-27.5-3.76-15.46-1.13-36.65.18-45.07.36-2.3,1.74-4.3,3.76-5.45Z"/><path fill="#ff4f5a" d="m610.78,570.57c-.68,0-1.37-.16-1.99-.47-5.86-2.92-19.86-11.24-23.31-25.44-3.63-14.91-1.05-35.63.23-43.85.21-1.36,1.02-2.53,2.22-3.22l28.99-16.51c.68-.39,1.45-.59,2.22-.59.98,0,1.91.31,2.7.9l29.62,22.21c1.25.94,1.92,2.42,1.79,3.96-.7,8.26-3.88,36.05-15.45,47.01-10.48,9.93-20.58,14.15-25.67,15.78-.44.14-.89.21-1.35.21Z"/><path fill="#fff" d="m623.27,515.98c.48-4.38-2.68-8.32-7.06-8.8-4.38-.48-8.32,2.68-8.8,7.06-.35,3.18,1.23,6.13,3.8,7.68l-2.04,18.57,6.35.7,2.02-18.42c3.01-.87,5.35-3.48,5.71-6.79Z"/><path fill="#467ee0" d="m596.62,794.63c-8.17-2.6-15.8-5.27-22.54-7.91-4.08-52.6-8.83-111.7-10.25-119.9-.9-5.14-9.25-9.73-19.9-13.54.5-3.59,1.06-7.57,1.67-11.85,10.58,3.83,20.13,7.86,25.89,11.61,12.68,8.23,20.93,87.57,25.14,141.58Z"/><path fill="#467ee0" d="m908.73,692.95c-28.28,4.42-59.24,10.02-63.19,13.83-2.42,2.33-8.43,17.47-15.46,36.85-1.23,3.4-2.49,6.93-3.77,10.55-2.89,8.18-5.87,16.79-8.78,25.29-3.73,10.91-7.33,21.65-10.47,31.09-9.01.92-18.09,1.81-27,2.64,2.8-9.32,6.69-21.82,11.27-35.36.63-1.86,1.27-3.74,1.92-5.64,3.03-8.77,6.31-17.85,9.75-26.68,11.59-29.82,24.9-56.76,35.89-59.51,5.56-1.39,14.27-3.08,24.51-4.88,12.65-2.22,27.63-4.6,41.85-6.77.43,2.36.86,4.71,1.29,7.04.74,3.93,1.47,7.79,2.19,11.55Z"/><g><path fill="#121a54" d="m614.63,748.3c-.23,0-.47-.05-.7-.17-17.48-9.18-34.62-19.35-50.94-30.23-.69-.46-.88-1.39-.42-2.08.46-.69,1.39-.88,2.08-.42,16.24,10.82,33.28,20.94,50.67,30.07.73.39,1.02,1.29.63,2.03-.27.51-.79.8-1.33.8Z"/><path fill="#121a54" d="m636.83,747.99c-.28,0-.57-.08-.82-.24l-18.98-12.41c-.69-.45-.89-1.38-.43-2.08.45-.69,1.38-.89,2.08-.44l18.98,12.41c.69.45.89,1.38.44,2.08-.29.44-.77.68-1.26.68Z"/><path fill="#121a54" d="m727.28,749.8c-.82,0-1.49-.66-1.5-1.48,0-.83.65-1.51,1.48-1.52,61.15-.73,122.87-5.17,183.43-13.17.83-.11,1.58.47,1.68,1.29.11.82-.47,1.58-1.29,1.68-60.68,8.02-122.51,12.46-183.79,13.2h-.02Z"/><path fill="#121a54" d="m822.18,756.39c-.72,0-1.35-.51-1.48-1.24-.14-.82.41-1.59,1.22-1.73,28.3-4.92,57.05-9.64,85.45-14.05.82-.12,1.58.43,1.71,1.25.13.82-.43,1.58-1.25,1.71-28.38,4.4-57.11,9.12-85.4,14.04-.09.02-.17.02-.26.02Z"/><path fill="#121a54" d="m805.37,774.33c-5.29,0-10.61-.35-15.84-1.05-.82-.11-1.4-.86-1.29-1.69.11-.82.87-1.4,1.69-1.29,5.99.8,12.1,1.14,18.15.99h.04c.81,0,1.48.65,1.5,1.46.02.83-.64,1.52-1.46,1.54-.92.02-1.85.03-2.77.03Z"/><path fill="#121a54" d="m767.82,661.78c-.53,0-1.05-.28-1.32-.78-.4-.73-.13-1.64.6-2.03,41.21-22.38,82.07-46.46,121.42-71.58.7-.44,1.63-.24,2.07.46.45.7.24,1.62-.46,2.07-39.41,25.15-80.33,49.27-121.6,71.68-.23.12-.47.18-.71.18Z"/><path fill="#121a54" d="m859.02,630.6c-.36,0-.71-.13-1-.38-.62-.55-.67-1.5-.12-2.12,9.25-10.34,17.76-21.4,25.32-32.87.46-.69,1.39-.88,2.08-.43.69.46.88,1.39.43,2.08-7.64,11.59-16.25,22.77-25.59,33.21-.3.33-.71.5-1.12.5Z"/></g><g><path fill="#83d3ff" d="m720.53,431.78s-5.11,167.82-5.51,238.73c-.4,70.91-1.48,114.7-1.48,114.7l-32.94,29.25-41.56-39.9s27.11-296.79,49.34-339.89c22.22-43.1,32.15-2.88,32.15-2.88Z"/><polygon fill="#aeecff" points="660.27 686.01 706.23 664 707.05 628.28 663.34 649.44 660.27 686.01"/><polygon fill="#aeecff" points="656.51 730.63 705.25 707.3 706.06 671.59 659.59 694.08 656.51 730.63"/><polygon fill="#aeecff" points="707.22 620.7 707.6 604.25 667.35 601.73 664.02 641.38 707.22 620.7"/><polygon fill="#aeecff" points="655.83 738.73 653.26 769.27 682.03 791.64 703.84 769.36 705.08 714.89 655.83 738.73"/><path fill="#aeecff" d="m671.12,374.62s12.04,68.98,18.12,70.5c6.07,1.52,30.86,7.08,34.92-.51,4.06-7.59,34.77-59.08,34.77-59.08,0,0-20.6,20.33-53.72,7.35-33.13-12.98-34.08-18.27-34.08-18.27Z"/></g><path fill="#467ee0" d="m644.8,356.88s9.64-8.81,17.82-18.41c8.18-9.6,35.8-14.28,37.75-15.3,4.28-2.24-15.23,35.6-14.56,37.5s26.24,31.17,26.24,31.17c0,0,40.14-35.37,44.42-40.95,4.28-5.58,43.87-46.44,46.96-44.19,3.09,2.25,26.77,20.82,27.08,23.02s-39.52,85.66-47.11,81.77c-7.59-3.89-36.95-35.42-40.43-35.47-3.48-.06-30.98,18.96-30.98,18.96,0,0-21.58-19.17-27.19-17.38-5.6,1.79-22.71,23.17-25.1,20.94s-14.9-41.66-14.9-41.66Z"/></g><path fill="#467ee0" d="m844.72,775.64c-9.22,1.02-16.13,8.89-15.96,18.16.68,36.43,3.87,121.2,18.92,121.61,19.17.53,94.81-9.72,95.34-30.42s-4.8-114.98-23.44-115.51c-13.04-.37-52.41,3.69-74.86,6.16Z"/><path fill="#2b3aa3" d="m833.05,795.32c-.87-5.95,3.63-11.38,9.64-11.52,4.11-.09,7.79.67,7.74,3.74-.1,6.92,16.3,107.31,12.63,111.98s-9.33,10.16-12.63,2.08c-2.68-6.57-13.46-79.38-17.38-106.28Z"/><ellipse cx="905.35" cy="824.27" fill="#83d3ff" rx="19.45" ry="37.87" transform="rotate(-5.22 904.53 823.6)"/></g><g><path fill="#354bb7" d="m976.08,598.84l-96.27,4.91s-50.05-225.2,22.94-227.45c0,0,51.1,14.38,61.3,60.83.02.08.03.15.05.23,2.07,9.52,3.8,21.89,5.23,35.55,5.59,53.19,6.75,125.94,6.75,125.94Z"/><path fill="#ffc7d2" d="m777.25,390.07s-16.99-31.11-19.94-42.76-9.91-35.59-12.85-39.27-22.71-35.02-26.36-31.39-5.98,5.81-5.71,11.69c.26,5.88,8.16,27.35,8.16,27.35,0,0-16.89-13.45-19.04-15.08s-19.18-25.82-19.18-25.82c0,0-6.41,3.75-8.26,9.03s-1.05,15.29-1.05,15.29c0,0-7.9,9.36-8.29,15.96-.4,6.6.45,10.03.45,10.03,0,0-6.29,6.52-6.78,11.05-.49,4.53.47,10.37.47,10.37,0,0-2.68,9.82-2.15,13.96s23.68,41.21,23.68,41.21c0,0,26.92,13,36.37,22.97,9.46,9.97,28.15,32.69,28.15,32.69l58.31-51.82-25.99-15.46Z"/><path fill="#2b3aa3" d="m714.56,265.26s2.65,3.82,2.39,7.18,1.05,4.19.02,5.07-8.57,4.43-8.57,4.43c0,0,5.44,14.81,1.27,18.73s-18.1,8.1-22.27-3.16-9.33-20.14-8.08-23.74,1.12-4.36,11.75-6.89,19.41-6.4,23.5-1.62Z"/><path fill="#fff" d="m685.92,276.12s9.74-4.68,11.26-2.91,2.15,2.15,1.52,3.04-10.88,4.43-12.02,4.18-2.46-3.53-.76-4.3Z"/><path fill="#354bb7" d="m964.9,625.93c-13.08,17.22-52.79,28.01-62.54,27.07-9.74-.95-41.67-17.53-78.27-60.93-32.27-38.28-85.4-120.89-97.5-139.87-1.49-2.33-1.2-5.35.7-7.35,12.36-13.08,56.44-59.27,61.27-57.69,2.04.67,10.81,6.39,22.54,14.72,4.64,3.3,9.75,7,15.11,10.97,18.11,13.39,38.92,29.71,53.44,42.97,20.26,18.51,50.86,36.57,71.53,56.39,4.14,3.97,7.89,8.02,11.07,12.15,4.17,5.41,7.37,10.98,9.25,16.74,10.44,32.09,6.5,67.62-6.59,84.84Z"/><path fill="#467ee0" d="m962.24,524.35c-13.18,12.11-35.05,30.88-42.66,29.73-11.19-1.7-115.84-96.56-120.64-106.95-2.64-5.72,4.87-27.16,12.15-45.26,4.64,3.3,9.75,7,15.11,10.97-4.09,10.82-7.18,20.18-7.12,23.67.17,10.16,88.51,93.71,98.9,94.51,6.27.48,21.83-10.23,33.19-18.82,4.14,3.97,7.89,8.02,11.07,12.15Z"/><path fill="#83d3ff" d="m939.61,427.37l-16.4,21.77c7.24,1.41,14.78,3.45,21.26,6.37l12.36-22.65c-5.07-2.19-10.81-4.11-17.22-5.49Z"/><path fill="#83d3ff" d="m931.99,426.05c-10.89-1.45-23.44-1.26-37.65,1.67v18.22s9.46.17,21.29,1.91l16.36-21.8Z"/><path fill="#83d3ff" d="m969.33,472.9c-4.39-4.16-10.65-9.28-18.96-14.29,4.5-6.99,9.27-14.37,13.73-21.25,2.07,9.52,3.8,21.89,5.23,35.55Z"/><path fill="#f47382" d="m665.18,326.61c-.79,0-1.45-.62-1.5-1.41-.02-.37-.5-9.13,1.42-16.56,1.48-5.73,4.51-7.7,6.28-8.38.04-2.94.19-10.79.73-14.95.72-5.67,6.92-9.77,7.18-9.95.69-.45,1.62-.26,2.08.44.45.69.26,1.62-.43,2.08-.07.05-5.3,3.54-5.85,7.82-.63,4.9-.71,15.63-.71,15.74v1.39s-1.39.1-1.39.1c-.11.01-3.41.45-4.97,6.48-1.81,6.98-1.34,15.55-1.33,15.64.05.83-.58,1.54-1.41,1.58-.03,0-.06,0-.09,0Z"/><path fill="#f47382" d="m759.98,356.45c-.64,0-1.24-.42-1.43-1.06-4.93-16.22-12.4-40.63-13.06-42.51-.53-.84-4.3-5.92-8.28-11.3-12.03-16.25-16.07-21.86-17.44-24.08-1.51,1.14-4.55,4.31-5.49,8.35-1.11,4.8,5.16,22.78,7.67,29.31l1.78,4.62-19.5-13.76c-.68-.48-.84-1.41-.36-2.09.48-.68,1.41-.84,2.09-.36l11.51,8.13c-2.66-7.45-7.27-21.5-6.11-26.52,1.36-5.84,6.71-11.27,9.08-11.08.78.06,1.39.58,1.56,1.32.97,1.88,11.37,15.94,17.63,24.38,7.2,9.72,8.4,11.38,8.6,11.84.46,1.05,11.07,35.91,13.2,42.88.24.79-.21,1.63-1,1.87-.15.04-.29.07-.44.07Zm-37.95-80.77s0,0,0,0c0,0,0,0,0,0Z"/></g></g><g><path fill="#ff4f5a" d="m309.33,135.27h16.04v28.17h-16.04v33.48h-36.52v-33.48h-61.01l-2.17-22.32,63.18-101.64v-.33h36.52v96.12Zm-64.91,0h28.39v-48.55l-2.28,3.68-26.12,44.86Z"/><path fill="#ff4f5a" d="m450.96,132.45c0,21.31-4.79,37.75-14.36,49.31-9.57,11.56-23.06,17.34-40.47,17.34s-31.14-5.81-40.74-17.45c-9.61-11.63-14.41-28.03-14.41-49.2v-28.82c0-21.31,4.78-37.75,14.36-49.31,9.57-11.56,23.1-17.34,40.58-17.34s31.03,5.82,40.64,17.45c9.61,11.63,14.41,28.07,14.41,49.31v28.72Zm-36.52-33.48c0-11.34-1.48-19.81-4.44-25.41-2.96-5.6-7.66-8.4-14.09-8.4s-10.86,2.6-13.71,7.8c-2.85,5.2-4.39,13.08-4.61,23.62v40.31c0,11.78,1.48,20.39,4.44,25.84,2.96,5.46,7.66,8.18,14.09,8.18s10.8-2.65,13.76-7.96c2.96-5.31,4.48-13.64,4.55-24.98v-39.01Z"/><path fill="#ff4f5a" d="m503.3,102.76h17.23c13.65,0,20.48-6.68,20.48-20.05,0-5.2-1.63-9.44-4.88-12.73-3.25-3.29-7.84-4.93-13.76-4.93-4.84,0-9.05,1.41-12.62,4.23-3.58,2.82-5.36,6.32-5.36,10.51h-36.52c0-8.31,2.31-15.71,6.93-22.21,4.62-6.5,11.03-11.58,19.23-15.22,8.2-3.65,17.21-5.47,27.04-5.47,17.55,0,31.35,4.01,41.39,12.03,10.04,8.02,15.06,19.04,15.06,33.05,0,6.79-2.08,13.2-6.23,19.23-4.16,6.03-10.2,10.93-18.15,14.68,8.38,3.03,14.95,7.64,19.72,13.82,4.77,6.18,7.15,13.82,7.15,22.92,0,14.09-5.42,25.36-16.25,33.81-10.84,8.45-25.07,12.68-42.7,12.68-10.33,0-19.92-1.97-28.77-5.91-8.85-3.94-15.55-9.39-20.1-16.36-4.55-6.97-6.83-14.9-6.83-23.79h36.74c0,4.84,1.95,9.03,5.85,12.57,3.9,3.54,8.7,5.31,14.41,5.31,6.43,0,11.56-1.79,15.39-5.36,3.83-3.58,5.74-8.14,5.74-13.71,0-7.95-1.99-13.58-5.96-16.9-3.97-3.32-9.47-4.98-16.47-4.98h-17.77v-27.2Z"/></g><g><rect width="406.55" height="235.14" x="66.41" y="488.97" fill="#97bdff" rx="17.76" ry="17.76"/><path fill="#fff" d="m170.6,409.98h198.17c6.49,0,11.76,5.27,11.76,11.76v369.59c0,6.49-5.27,11.76-11.76,11.76h-198.17c-6.49,0-11.76-5.27-11.76-11.76v-369.58c0-6.49,5.27-11.76,11.76-11.76Z" transform="rotate(90 269.685 606.535)"/><path fill="#97bdff" d="m146.4,570.28h-15.73v16.12h-9.76v-40.47h27.07v7.53h-17.31v9.31h15.73v7.5Z"/><path fill="#97bdff" d="m186.31,567c0,3.95-.73,7.44-2.2,10.48-1.46,3.04-3.54,5.38-6.24,7.02-2.7,1.64-5.77,2.46-9.21,2.46s-6.5-.79-9.17-2.38c-2.67-1.58-4.75-3.85-6.24-6.8-1.49-2.95-2.27-6.33-2.35-10.14v-2.28c0-3.96.73-7.46,2.18-10.49,1.45-3.03,3.54-5.37,6.25-7.02,2.71-1.65,5.8-2.47,9.27-2.47s6.48.82,9.17,2.45c2.69,1.63,4.78,3.95,6.27,6.96,1.49,3.01,2.25,6.46,2.27,10.35v1.86Zm-9.92-1.7c0-4.02-.67-7.07-2.02-9.16-1.34-2.08-3.27-3.13-5.77-3.13-4.89,0-7.48,3.67-7.75,11.01l-.03,2.97c0,3.97.66,7.01,1.97,9.14,1.32,2.13,3.27,3.2,5.86,3.2s4.36-1.05,5.7-3.14,2.01-5.1,2.03-9.03v-1.86Z"/><path fill="#97bdff" d="m206.37,572.09h-5.28v14.31h-9.76v-40.47h15.93c4.8,0,8.55,1.06,11.26,3.19,2.7,2.13,4.06,5.14,4.06,9.02,0,2.81-.57,5.15-1.71,7-1.14,1.85-2.92,3.35-5.35,4.5l8.45,16.34v.42h-10.45l-7.14-14.31Zm-5.28-7.5h6.17c1.85,0,3.25-.49,4.18-1.46.94-.98,1.4-2.34,1.4-4.08s-.47-3.12-1.42-4.11c-.94-.99-2.33-1.49-4.17-1.49h-6.17v11.15Z"/><path fill="#97bdff" d="m228.47,586.4v-40.47h14.54c5.21,0,9.17.95,11.88,2.86,2.71,1.91,4.07,4.68,4.07,8.31,0,2.09-.48,3.88-1.45,5.36-.96,1.48-2.38,2.58-4.25,3.28,2.11.56,3.73,1.59,4.86,3.11,1.13,1.52,1.7,3.37,1.7,5.56,0,3.97-1.26,6.94-3.77,8.93-2.51,1.99-6.23,3.01-11.16,3.04h-16.43Zm9.76-23.6h5.09c2.13-.02,3.65-.41,4.56-1.17.91-.76,1.36-1.89,1.36-3.37,0-1.71-.49-2.94-1.47-3.69-.98-.75-2.57-1.13-4.75-1.13h-4.78v9.37Zm0,6.39v9.7h6.39c1.76,0,3.11-.4,4.06-1.21.94-.81,1.42-1.94,1.42-3.4,0-3.37-1.68-5.07-5.03-5.09h-6.84Z"/><path fill="#97bdff" d="m275.58,586.4h-9.73v-40.47h9.73v40.47Z"/><path fill="#97bdff" d="m282.36,586.4v-40.47h13.04c3.58,0,6.79.81,9.64,2.43,2.85,1.62,5.08,3.91,6.68,6.87,1.6,2.96,2.41,6.27,2.43,9.94v1.86c0,3.71-.78,7.03-2.35,9.96-1.57,2.94-3.77,5.23-6.61,6.89-2.84,1.66-6.02,2.5-9.52,2.52h-13.31Zm9.76-32.94v25.43h3.39c2.8,0,4.95-1,6.45-2.99,1.5-1.99,2.25-4.95,2.25-8.88v-1.75c0-3.91-.75-6.86-2.25-8.84s-3.69-2.97-6.56-2.97h-3.28Z"/><path fill="#97bdff" d="m319.16,586.4v-40.47h13.04c3.58,0,6.79.81,9.64,2.43,2.85,1.62,5.08,3.91,6.68,6.87,1.6,2.96,2.41,6.27,2.43,9.94v1.86c0,3.71-.78,7.03-2.35,9.96-1.57,2.94-3.77,5.23-6.61,6.89-2.84,1.66-6.02,2.5-9.52,2.52h-13.31Zm9.76-32.94v25.43h3.39c2.8,0,4.95-1,6.45-2.99,1.5-1.99,2.25-4.95,2.25-8.88v-1.75c0-3.91-.75-6.86-2.25-8.84s-3.69-2.97-6.56-2.97h-3.28Z"/><path fill="#97bdff" d="m381.05,569.23h-15.34v9.67h18.12v7.5h-27.88v-40.47h27.93v7.53h-18.18v8.53h15.34v7.23Z"/><path fill="#97bdff" d="m421.6,586.4h-9.7l-14.34-25.18v25.18h-9.76v-40.47h9.76l14.31,25.18v-25.18h9.73v40.47Z"/><g><path fill="#97bdff" d="m154.5,656.28h-18.8l-3.28,10.63h-14.65l20.87-56.9h12.9l21.02,56.9h-14.73l-3.32-10.63Zm-15.51-10.59h12.23l-6.13-19.73-6.1,19.73Z"/><path fill="#97bdff" d="m221.91,647.64c-.18,3.96-1.25,7.46-3.2,10.49-1.95,3.04-4.7,5.39-8.23,7.05-3.53,1.67-7.56,2.5-12.09,2.5-7.48,0-13.36-2.44-17.66-7.31-4.3-4.87-6.45-11.75-6.45-20.63v-2.81c0-5.58.97-10.45,2.91-14.63,1.94-4.18,4.73-7.41,8.38-9.69,3.65-2.28,7.87-3.42,12.66-3.42,6.9,0,12.45,1.82,16.65,5.45,4.19,3.63,6.58,8.64,7.15,15.03h-13.68c-.1-3.46-.98-5.95-2.62-7.46-1.64-1.51-4.14-2.27-7.5-2.27s-5.91,1.28-7.5,3.83c-1.59,2.55-2.42,6.63-2.5,12.23v4.02c0,6.07.76,10.41,2.29,13.01,1.52,2.61,4.15,3.91,7.87,3.91,3.15,0,5.56-.74,7.23-2.23,1.67-1.49,2.55-3.84,2.66-7.07h13.64Z"/><path fill="#97bdff" d="m274.43,647.64c-.18,3.96-1.25,7.46-3.2,10.49s-4.7,5.39-8.23,7.05c-3.53,1.67-7.56,2.5-12.09,2.5-7.48,0-13.36-2.44-17.66-7.31-4.3-4.87-6.45-11.75-6.45-20.63v-2.81c0-5.58.97-10.45,2.91-14.63,1.94-4.18,4.73-7.41,8.38-9.69,3.65-2.28,7.87-3.42,12.66-3.42,6.9,0,12.45,1.82,16.65,5.45,4.19,3.63,6.58,8.64,7.15,15.03h-13.68c-.1-3.46-.98-5.95-2.62-7.46-1.64-1.51-4.14-2.27-7.5-2.27s-5.91,1.28-7.5,3.83-2.42,6.63-2.5,12.23v4.02c0,6.07.76,10.41,2.29,13.01,1.52,2.61,4.15,3.91,7.87,3.91,3.15,0,5.56-.74,7.23-2.23,1.67-1.49,2.55-3.84,2.66-7.07h13.64Z"/><path fill="#97bdff" d="m316.21,642.76h-21.57v13.6h25.48v10.55h-39.2v-56.9h39.27v10.59h-25.56v12h21.57v10.16Z"/><path fill="#97bdff" d="m355.05,651.78c0-2.01-.71-3.57-2.13-4.69-1.42-1.12-3.91-2.28-7.48-3.48-3.57-1.2-6.49-2.36-8.75-3.48-7.37-3.62-11.06-8.6-11.06-14.93,0-3.15.92-5.93,2.75-8.34,1.84-2.41,4.44-4.28,7.8-5.63,3.36-1.34,7.14-2.01,11.33-2.01s7.76.73,11,2.19c3.24,1.46,5.76,3.54,7.56,6.23,1.8,2.7,2.7,5.78,2.7,9.24h-13.68c0-2.32-.71-4.12-2.13-5.39-1.42-1.28-3.34-1.91-5.76-1.91s-4.38.54-5.8,1.62c-1.42,1.08-2.13,2.46-2.13,4.12,0,1.46.78,2.78,2.34,3.97,1.56,1.19,4.31,2.41,8.25,3.67,3.93,1.26,7.16,2.62,9.69,4.08,6.15,3.54,9.22,8.43,9.22,14.65,0,4.98-1.88,8.88-5.63,11.72-3.75,2.84-8.9,4.26-15.44,4.26-4.61,0-8.79-.83-12.52-2.48-3.74-1.65-6.55-3.92-8.44-6.8-1.89-2.88-2.83-6.19-2.83-9.95h13.76c0,3.05.79,5.3,2.36,6.74,1.58,1.45,4.14,2.17,7.68,2.17,2.27,0,4.06-.49,5.37-1.47s1.97-2.35,1.97-4.12Z"/><path fill="#97bdff" d="m405.15,651.78c0-2.01-.71-3.57-2.13-4.69-1.42-1.12-3.91-2.28-7.48-3.48-3.57-1.2-6.49-2.36-8.75-3.48-7.37-3.62-11.06-8.6-11.06-14.93,0-3.15.92-5.93,2.75-8.34,1.84-2.41,4.44-4.28,7.8-5.63,3.36-1.34,7.14-2.01,11.33-2.01s7.76.73,11,2.19,5.76,3.54,7.56,6.23c1.8,2.7,2.7,5.78,2.7,9.24h-13.68c0-2.32-.71-4.12-2.13-5.39-1.42-1.28-3.34-1.91-5.76-1.91s-4.38.54-5.8,1.62c-1.42,1.08-2.13,2.46-2.13,4.12,0,1.46.78,2.78,2.34,3.97,1.56,1.19,4.31,2.41,8.25,3.67,3.93,1.26,7.16,2.62,9.69,4.08,6.15,3.54,9.22,8.43,9.22,14.65,0,4.98-1.88,8.88-5.63,11.72-3.75,2.84-8.9,4.26-15.44,4.26-4.61,0-8.79-.83-12.52-2.48-3.74-1.65-6.55-3.92-8.44-6.8-1.89-2.88-2.83-6.19-2.83-9.95h13.76c0,3.05.79,5.3,2.36,6.74,1.58,1.45,4.14,2.17,7.68,2.17,2.27,0,4.06-.49,5.37-1.47s1.97-2.35,1.97-4.12Z"/></g></g><g><path fill="#2b3aa3" d="m146.33,744.87c2.83,2.83,4.58,6.73,4.58,11.05v221.61h-31.26v-221.61c0-8.63,7-15.63,15.63-15.63,4.32,0,8.22,1.75,11.05,4.58Z"/><path fill="#2b3aa3" d="m435.16,755.92v221.61h-31.26v-221.61c0-8.63,7-15.63,15.63-15.63,4.32,0,8.22,1.75,11.05,4.58,2.83,2.83,4.58,6.73,4.58,11.05Z"/><rect width="391.11" height="88.89" x="81.85" y="783.66" fill="#fff"/><g><polygon fill="#ff4f5a" points="399.82 783.66 353.53 872.55 316.99 872.55 363.27 783.66 399.82 783.66"/><polygon fill="#ff4f5a" points="159.11 783.66 112.81 872.55 81.85 872.55 81.85 861.85 122.56 783.66 159.11 783.66"/><polygon fill="#ff4f5a" points="319.58 783.66 273.29 872.55 236.75 872.55 283.04 783.66 319.58 783.66"/><polygon fill="#ff4f5a" points="472.96 783.66 472.96 797.28 433.77 872.55 397.22 872.55 443.51 783.66 472.96 783.66"/><polygon fill="#ff4f5a" points="239.34 783.66 193.05 872.55 156.51 872.55 202.8 783.66 239.34 783.66"/></g></g></svg>