<svg xmlns="http://www.w3.org/2000/svg" data-name="Layer 2" viewBox="0 0 1000 1000"><path fill="#c9dff4" d="m109.84,340.06c-40.93,41.26-71.13,92.83-86.46,148.94-15.2,55.63-14.94,114.56.62,170.08,15.82,56.48,46.7,108.41,88.55,149.48,40.74,39.97,90.75,69.48,143.73,90.13,57.35,22.35,118.24,34.24,179.5,38.79,69.99,5.19,140.31,1.09,209.97-6.45,33.48-3.63,67.1-7.45,100.31-13.12,31.3-5.34,62.55-13.31,90.55-28.68s49.89-34.93,70.7-56.85c19.62-20.66,36.87-43.7,50.9-68.51,27.54-48.72,43.14-106.6,29.45-162.11-5.21-21.1-14.6-41.18-29.04-57.56-13.08-14.84-29.79-25.95-47.92-33.67-40.16-17.08-85.63-18.99-128.66-17.67-27.67.85-54.93,3.42-82.61.65-31.14-3.12-61.83-10.76-90.9-22.33-55.6-22.12-104.72-59.27-140.2-107.55-16.76-22.81-30.48-47.92-40.26-74.49-11.23-30.51-19.01-64.41-13.13-96.9,10.14-56.01,57.79-99.9,106.41-124.89,48.57-24.97,103.89-35.38,158.16-36.51,28.46-.6,57.01,1.38,85.12,5.82,31.91,5.04,63.8,13.64,91.97,29.85,24.47,14.09,46.15,34.53,58.68,60.09,11.86,24.19,13.42,51.44,4.04,76.72-9.04,24.35-27.13,45.26-49.91,57.73-26.53,14.52-57.57,15.48-87.08,14.12s-59.73-5.22-89.37-.86c-26.86,3.96-51.53,15.94-69.59,36.47-15.83,18-25.58,41.01-25.98,65.08-.03,1.93,2.97,1.93,3,0,.46-27.13,13.22-52.81,33.04-71.08,22.01-20.29,50.55-28.18,79.92-29.29,55.8-2.11,118.7,16.56,168.11-18.45,19.54-13.84,34.59-33.95,42.07-56.72,7.75-23.59,6.21-48.63-3.83-71.29-24.09-54.37-82.85-81.29-137.98-92.36s-111.3-12.17-165.88-2.9c-50.9,8.65-101.21,27.44-141.27,60.7-21.12,17.54-39.71,39.13-51.63,63.99-13.79,28.75-15.47,59.96-9.33,90.96,10.87,54.86,39.48,106.07,77.8,146.47,40.45,42.64,92.49,73.19,148.91,89.3,29.27,8.36,59.72,12.86,90.18,12.91,24.9.04,49.7-2.72,74.63-2.51,42.46.37,88.11,5.24,124.85,28.33,41.21,25.89,59.87,73.31,59.8,120.7-.08,59.4-27.85,116.51-64.21,162.19-18.81,23.63-40.68,45.53-65.02,63.47-26.07,19.22-55.41,31.55-86.83,39.02-32.97,7.84-66.92,11.56-100.52,15.6-34.72,4.18-69.53,7.66-104.44,9.77-68.74,4.15-138.3,3.01-206.2-9.35-58.07-10.57-115.11-29.28-166.62-58.36-51.44-29.04-96.65-68.8-128.65-118.72-32.17-50.18-50.93-109.01-52.23-168.7-1.29-58.94,14.74-117.68,44.23-168.62,14.52-25.08,32.26-48.15,52.66-68.72,1.36-1.37-.76-3.49-2.12-2.12h0Z"/><path fill="#9ac3e5" d="m115.68,726.9c2.88,2.87,4.65,6.84,4.65,11.23v225.14h-31.76v-225.14c0-8.77,7.11-15.88,15.88-15.88,4.38,0,8.35,1.77,11.23,4.65Z"/><path fill="#9ac3e5" d="m409.12,738.13v225.14h-31.76v-225.14c0-8.77,7.11-15.88,15.88-15.88,4.38,0,8.35,1.77,11.23,4.65,2.88,2.87,4.65,6.84,4.65,11.23Z"/><rect width="397.35" height="90.31" x="50.17" y="766.31" fill="#c9dff4"/><polygon fill="#9ac3e5" points="373.22 766.31 326.19 856.62 289.06 856.62 336.08 766.31 373.22 766.31"/><polygon fill="#9ac3e5" points="128.66 766.31 81.63 856.62 50.17 856.62 50.17 845.75 91.53 766.31 128.66 766.31"/><polygon fill="#9ac3e5" points="291.7 766.31 244.67 856.62 207.55 856.62 254.57 766.31 291.7 766.31"/><polygon fill="#9ac3e5" points="447.53 766.31 447.53 780.15 407.7 856.62 370.58 856.62 417.6 766.31 447.53 766.31"/><polygon fill="#9ac3e5" points="210.18 766.31 163.15 856.62 126.03 856.62 173.05 766.31 210.18 766.31"/><g><rect width="614.59" height="421.09" x="8.71" fill="#9ac3e5"/><rect width="605.03" height="411.52" x="13.5" y="4.78" fill="#fff"/><rect width="614.59" height="54.71" x="8.71" fill="#1c1c7a"/><ellipse cx="44.75" cy="25.57" fill="#a4c931" rx="10.71" ry="10.57"/><ellipse cx="85.31" cy="25.57" fill="#97bdff" rx="10.71" ry="10.57"/><ellipse cx="125.87" cy="25.57" fill="#97bdff" rx="10.71" ry="10.57"/><g><path fill="#c9dff4" d="m220.42,223.05h16.05v28.19h-16.05v33.5h-36.54v-33.5h-61.04l-2.17-22.33,63.21-101.7v-.33h36.54v96.17Zm-64.94,0h28.41v-48.57l-2.28,3.69-26.13,44.89Z"/><path fill="#c9dff4" d="m362.12,220.23c0,21.32-4.79,37.77-14.37,49.33-9.58,11.57-23.08,17.35-40.49,17.35s-31.15-5.82-40.77-17.46c-9.61-11.64-14.42-28.04-14.42-49.22v-28.84c0-21.32,4.79-37.77,14.37-49.33,9.58-11.56,23.11-17.35,40.6-17.35s31.04,5.82,40.66,17.46c9.61,11.64,14.42,28.08,14.42,49.33v28.73Zm-36.54-33.5c0-11.35-1.48-19.82-4.44-25.42-2.96-5.6-7.66-8.4-14.09-8.4s-10.86,2.6-13.71,7.81c-2.86,5.2-4.39,13.08-4.61,23.64v40.33c0,11.78,1.48,20.4,4.45,25.86,2.96,5.46,7.66,8.19,14.09,8.19s10.8-2.66,13.77-7.97c2.96-5.31,4.48-13.64,4.55-24.99v-39.03Z"/><path fill="#c9dff4" d="m477.59,223.05h16.05v28.19h-16.05v33.5h-36.54v-33.5h-61.04l-2.17-22.33,63.21-101.7v-.33h36.54v96.17Zm-64.94,0h28.41v-48.57l-2.28,3.69-26.13,44.89Z"/><g><path fill="#f1656e" d="m213.25,344.1h-7.68l-11.36-19.94v19.94h-7.73v-32.05h7.73l11.34,19.94v-19.94h7.7v32.05Z"/><path fill="#f1656e" d="m245.27,328.73c0,3.13-.58,5.89-1.74,8.3-1.16,2.41-2.81,4.26-4.94,5.56-2.13,1.3-4.57,1.95-7.3,1.95s-5.15-.63-7.26-1.88c-2.11-1.25-3.76-3.05-4.94-5.38-1.18-2.33-1.8-5.01-1.86-8.03v-1.81c0-3.14.58-5.91,1.73-8.31,1.15-2.4,2.8-4.25,4.95-5.56,2.15-1.31,4.6-1.96,7.34-1.96s5.14.65,7.26,1.94c2.13,1.29,3.78,3.13,4.96,5.51,1.18,2.38,1.78,5.12,1.79,8.2v1.47Zm-7.86-1.34c0-3.18-.53-5.6-1.6-7.25-1.06-1.65-2.59-2.48-4.57-2.48-3.87,0-5.92,2.91-6.14,8.72l-.02,2.36c0,3.14.52,5.55,1.56,7.24s2.59,2.53,4.64,2.53,3.46-.83,4.51-2.49c1.06-1.66,1.59-4.04,1.61-7.15v-1.47Z"/><path fill="#f1656e" d="m272.55,318.01h-9.62v26.08h-7.73v-26.08h-9.44v-5.97h26.79v5.97Z"/><path fill="#f1656e" d="m305.9,331.33h-12.46v12.77h-7.73v-32.05h21.44v5.97h-13.71v7.37h12.46v5.94Z"/><path fill="#f1656e" d="m337.51,328.73c0,3.13-.58,5.89-1.74,8.3-1.16,2.41-2.81,4.26-4.94,5.56-2.13,1.3-4.57,1.95-7.3,1.95s-5.15-.63-7.26-1.88c-2.11-1.25-3.76-3.05-4.94-5.38-1.18-2.33-1.8-5.01-1.86-8.03v-1.81c0-3.14.58-5.91,1.73-8.31,1.15-2.4,2.8-4.25,4.95-5.56,2.15-1.31,4.6-1.96,7.34-1.96s5.14.65,7.26,1.94,3.78,3.13,4.96,5.51c1.18,2.38,1.78,5.12,1.79,8.2v1.47Zm-7.86-1.34c0-3.18-.53-5.6-1.6-7.25-1.06-1.65-2.59-2.48-4.57-2.48-3.87,0-5.92,2.91-6.14,8.72l-.02,2.36c0,3.14.52,5.55,1.56,7.24s2.59,2.53,4.64,2.53,3.46-.83,4.51-2.49c1.06-1.66,1.59-4.04,1.61-7.15v-1.47Z"/><path fill="#f1656e" d="m366.63,312.05v20.98c0,2.38-.51,4.44-1.52,6.17-1.01,1.74-2.47,3.06-4.36,3.97-1.89.91-4.13,1.37-6.71,1.37-3.9,0-6.98-1.01-9.22-3.04-2.25-2.03-3.39-4.8-3.43-8.32v-21.13h7.77v21.29c.09,3.51,1.72,5.26,4.89,5.26,1.6,0,2.81-.44,3.63-1.32.82-.88,1.23-2.31,1.23-4.29v-20.93h7.73Z"/><path fill="#f1656e" d="m398.22,344.1h-7.68l-11.36-19.94v19.94h-7.73v-32.05h7.73l11.34,19.94v-19.94h7.7v32.05Z"/><path fill="#f1656e" d="m403.1,344.1v-32.05h10.32c2.83,0,5.38.64,7.64,1.93,2.26,1.28,4.02,3.1,5.29,5.44,1.27,2.34,1.91,4.96,1.93,7.87v1.47c0,2.94-.62,5.57-1.86,7.89-1.24,2.33-2.99,4.15-5.24,5.46-2.25,1.31-4.77,1.98-7.54,1.99h-10.54Zm7.73-26.08v20.14h2.69c2.22,0,3.92-.79,5.11-2.37s1.78-3.92,1.78-7.03v-1.39c0-3.1-.59-5.43-1.78-7-1.19-1.57-2.92-2.36-5.19-2.36h-2.6Z"/></g></g></g><g><path fill="#ffc7d2" d="m546.35,386.83s39.27,108.37,96.61,110.24c57.32,1.9,68.07-108.43,68.07-108.43,0,0-25.93-23.4-32.55-52.31-1.63-7.17-2.1-15.05-1.9-22.81.66-23.52,7.69-46.1,7.69-46.1l-83.09,12.86s.39,2.96,3.88,53.22c.84,12.09-1.07,24.35-4.48,36.02-10.68,36.76-54.23,17.31-54.23,17.31Z"/><path fill="#f47382" d="m600.59,369.52c6.67,13.34,13.27,25.56,16.11,27.79,6.75,5.28,31.26-17.33,47.89-50.05,4.82-9.5,8.81-21.49,12.01-33.74.66-23.52,7.69-46.1,7.69-46.1l-83.09,12.86s.39,2.96,3.88,53.22c.84,12.09-1.07,24.35-4.48,36.02Z"/><path fill="#1c1c7a" d="m723.24,226.78c-6.41,14.75-13.88,26.14-14.73,27.42.31-.55,1.86-3.45,2.45-7.75.9-6.26-.2-15.48-10.02-24.75-8.46-7.99-23.4-16.04-49.13-22.27-78.42-18.95-133.21,36.12-133.21,36.12,0,0-23.17-10.62-34.1-42.28-10.95-31.64-6.09-53.08,3.18-54.15s18.32,4.16,18.32,4.16c0,0-10.19-28.96,2.46-37.02,12.66-8.06,30.93,4.47,30.93,4.47,0,0,60.97-32.05,110.27-7.41,49.32,24.62,51.68,45.18,51.68,45.18,0,0,13.51-5.66,27.86,24.03,7.49,15.51,1.49,37.12-5.95,54.24Z"/><path fill="#1c1c7a" d="m717.22,212.27c-.05,4.34-.34,8.47-.83,12.39-1.01,8.11-2.92,15.35-5.44,21.8-14.22,36.71-47.76,48.05-47.76,48.05l-35.76-10.93-99.15-30.3s-4.81-6.77-9.68-17.71c-7.02-15.72-14.17-40.09-7.3-65.28,11.65-42.7,58.11-65.68,110.49-60.44,52.4,5.26,96.13,38.2,95.43,102.43Z"/><path fill="#6565a5" d="m708.5,254.21c.31-.55,1.86-3.45,2.45-7.75-14.22,36.71-47.76,48.05-47.76,48.05l-35.76-10.93s.05-.09.07-.13c21.83-46.38,37.5-62.07,37.5-62.07,0,0,16.85-2.03,35.94.34,5.08.62,10.33,1.56,15.46,2.95,2.32.61,4.61,1.31,6.85,2.12-6.41,14.75-13.88,26.14-14.73,27.42Z"/><path fill="#ffc7d2" d="m541.7,349.08c16.9,27.79,30.85,29.72,45.61,28.91,14.73-.79,25.34-4.86,30.49-6.1h.02c16.62-7.55,33.67-17.8,40.96-26.79,11.04-13.56,20.94-45.6,21.9-48.81.05-.18.07-.25.07-.25,0,0,34.8,6.16,40.38-12.11,5.53-18.29-3.69-28.66-13.95-32.68-10.32-3.97-27.2-1.9-29.07,1.58-1.84,3.41-2.66,20.56-5.24,21.52-2.53,1-5.74,1.35-7.07-.47-.54-.72-.73-8.84-.84-18.74.25-4.71.12-10.26-.06-15.13,0-7.69.05-14.74.09-18.65,0,0-15,5.53-41.86-.4-26.86-5.93-45.39-15.14-45.39-15.14,0,0-41.44,11.15-58.94,3.57,0,0-1,32.78.87,42.7,1.89,9.95,4.66,16.65,3.57,25.35-.35,2.7-.6,6.29-.58,10.66,0,0,0,.03,0,.1.13,1.96,2.64,33.96,19.03,60.88Z"/><path fill="#f47382" d="m696.95,290.28c-5.6.64-7.57-1.73-8.25-3.23-1.02-2.23-.27-4.91,1.9-6.81l.62-.53c3.44-2.95,3.23-3.53,2.42-4.55-.6-.76-.99-.89-1.04-.88-.26.03-.89.59-1.23,1.29-.79,1.67-1.08,2.92-1.09,2.93-.35,1.51-1.86,2.46-3.37,2.11-1.51-.35-2.46-1.84-2.12-3.36.04-.18.44-1.87,1.49-4.1.88-1.86,2.9-4.15,5.67-4.48h0c1.56-.18,3.88.19,6.09,2.97,4.56,5.72-.85,10.36-3.16,12.34l-.57.5c-.07.06-.13.12-.18.18.43.09,1.21.16,2.46-.01,2.44-.33,8.25-5.33,10.12-11.57,1.34-4.47.29-8.25-3.14-11.25-2.43-2.13-4.77-2.98-7.15-2.55-5.62.97-9.95,8.49-9.99,8.56-.76,1.36-2.47,1.85-3.83,1.09-1.36-.76-1.85-2.47-1.09-3.83.22-.41,5.62-9.93,13.95-11.37,4.13-.71,8.08.59,11.82,3.86,5.08,4.45,6.8,10.53,4.82,17.11-2.43,8.07-9.79,14.85-14.76,15.53-.14.02-.27.04-.4.05Z"/><ellipse cx="604.5" cy="262.26" fill="#1c1c7a" rx="6.55" ry="9.96" transform="rotate(-11.55 604.33 262.195)"/><ellipse cx="548.09" cy="269.81" fill="#1c1c7a" rx="6" ry="8.85" transform="rotate(-11.56 548.249 269.873)"/><ellipse cx="600.97" cy="258.81" fill="#fff" rx="2.78" ry="4.37" transform="rotate(-11.53 601.09 258.853)"/><ellipse cx="544.37" cy="267.66" fill="#fff" rx="2.78" ry="4.37" transform="rotate(-11.53 544.513 267.7)"/><path fill="#f47382" d="m576.14,313.44c-3.92.45-11.76.66-15.74-4.04-5.46-6.44-.66-11.68,3.99-16.74l1.3-1.42c3.39-3.74,1.21-11.33.08-13.93-.61-1.43.04-3.08,1.47-3.7,1.43-.61,3.08.03,3.7,1.46.23.52,5.45,12.76-1.07,19.96l-1.33,1.45c-5.35,5.83-5.82,6.96-3.84,9.29,2.54,3,10.13,2.3,12.57,1.82,1.48-.31,3.01.69,3.31,2.22.3,1.53-.69,3.01-2.21,3.31-.29.06-1.09.21-2.22.34Z"/><path fill="#1c1c7a" d="m612.5,244.07c-.65.07-1.33-.08-1.92-.48-5.88-4.06-14.58-1.23-14.67-1.2-1.46.49-3.07-.3-3.56-1.78-.49-1.47.29-3.06,1.77-3.56.46-.16,11.44-3.77,19.67,1.91,1.28.88,1.6,2.64.72,3.92-.48.7-1.22,1.11-2,1.2Z"/><path fill="#1c1c7a" d="m535.4,254.87c-.42.05-.85,0-1.27-.15-1.45-.53-2.21-2.11-1.69-3.57,1.36-3.84,6.82-10.62,17.81-8.78,1.53.26,2.57,1.71,2.31,3.24-.26,1.53-1.71,2.57-3.24,2.31-8.79-1.47-11.31,4.45-11.57,5.13-.39,1.02-1.31,1.7-2.33,1.82Z"/><path fill="#f47382" d="m609.69,338.72c-12.38-2.04-24.99-1.39-37.1,1.93-1.51.41-3.12-.81-3.41-2.26-.33-1.62.75-2.99,2.26-3.41,12.53-3.44,25.82-4.14,38.64-2.03,1.54.25,2.8,1.43,2.69,3.09-.1,1.45-1.54,2.94-3.09,2.69h0Z"/><g><path fill="#ffc7d2" d="m434.39,419.6s19.8-3.12,36.67-11.51c16.87-8.39,15.87-11.46,19.21-12.37s15.31.99,21.72-.92c6.41-1.91,4.58-11.91,4.8-13.34s-.64-3.24-.64-3.24c0,0,3.54-5.65,4.01-10.31s-6.46-11.36-6.46-11.36c0,0,4.99-6.34,3.13-11.22-1.86-4.89-8.47-13.29-9.54-13.67s-20.8-7.48-20.8-7.48c0,0,8.5-14.41,10.05-15.36s26.36,3.76,31.84-.59c5.48-4.35,4.21-7.52,1.98-8.02s-42.8-9.98-44.9-8.32-30.12,37.66-33.59,40.63c-3.48,2.97-37.05,35.17-46.6,40.77s-22.82,17.39-23.82,17.64,25.82,37.91,25.82,37.91l27.11-9.22Z"/><path fill="#f47382" d="m515.74,375.71c-7.95-2.28-16.4-1.66-23.98,1.6-1.77.76-.24,3.35,1.51,2.59,6.82-2.93,14.55-3.34,21.67-1.3,1.86.53,2.65-2.36.8-2.89h0Z"/><path fill="#f47382" d="m514,355.95c-1.72-1.23-3.9-1.32-5.94-1.41-2.31-.1-4.64-.04-6.94.19-4.6.46-9.11,1.52-13.42,3.2-1.78.69-1,3.6.8,2.89,3.9-1.52,7.99-2.6,12.16-3.05,2-.22,4-.31,6.01-.28,1.9.03,4.2-.11,5.81,1.04s3.07-1.48,1.51-2.59h0Z"/><path fill="#f47382" d="m514.58,340.26c-8.59-3.97-17.89-8.03-27.52-5.53-1.87.49-1.08,3.38.8,2.89,8.77-2.28,17.4,1.62,25.21,5.23,1.74.81,3.27-1.78,1.51-2.59h0Z"/><path fill="#ff8383" d="m427.07,427.6s-40.37-50.59-47.71-47.91-103.04,123.53-115.67,163.68c-12.63,40.15-6.7,66.98,7.45,80.51,14.15,13.53,48.26,15.69,71.6,10.05,23.33-5.64,135.06-56.22,135.06-56.22l36.79-182.5-87.52,32.4Z"/><g><path fill="#dd315a" d="m425.5,427.18c-3.41,23.83-8.74,47.38-15.92,70.37s-16.09,45.14-26.76,66.58c-6.03,12.11-12.61,23.93-19.71,35.44-1.02,1.65,1.58,3.16,2.59,1.51,12.66-20.55,23.65-42.1,32.88-64.4s16.69-45.36,22.26-68.86c3.12-13.16,5.63-26.46,7.55-39.85.12-.81-.2-1.6-1.05-1.85-.7-.2-1.73.25-1.85,1.05h0Z"/><path fill="#dd315a" d="m402.44,550.52c-3.03,3.3-6.07,6.6-9.1,9.89-.55.6-.59,1.53,0,2.12.56.56,1.57.6,2.12,0,3.03-3.3,6.07-6.6,9.1-9.89.55-.6.59-1.53,0-2.12-.56-.56-1.57-.6-2.12,0h0Z"/><path fill="#dd315a" d="m424.2,450.1c-6.59-6.08-13-12.35-19.23-18.79-1.34-1.39-3.46.73-2.12,2.12,6.23,6.44,12.65,12.71,19.23,18.79,1.42,1.31,3.54-.81,2.12-2.12h0Z"/><path fill="#dd315a" d="m395.29,424.21c-9.83-7.5-20.41-13.97-31.57-19.32-1.73-.83-3.26,1.76-1.51,2.59,11.15,5.34,21.73,11.82,31.57,19.32,1.53,1.17,3.03-1.43,1.51-2.59h0Z"/></g></g><g><path fill="#24317f" d="m451.71,948.42c0,4.73,2.58,9.09,6.75,11.34,28.3,15.28,79.26,33.16,162.83,33.16,116.23,0,181.15-22.88,202.76-32.2,4.85-2.09,7.92-6.91,7.79-12.19-.47-18.55-1.41-42.22-3.28-69.12-3.68-52.92-19.85-131.63-25.89-159.71-1.32-6.18-6.43-10.6-12.42-10.75-53.85-1.39-304.64-3.54-322.48,76.23-14.11,63.13-16.11,129.61-16.06,163.25Z"/><path fill="#3753b7" d="m582.87,916.36c19.87,15.58,41.73,28.5,64.65,39.06,6.88,3.17,13.85,6.12,20.9,8.89,1.8.7,2.58-2.19.8-2.89-23.72-9.3-46.6-20.92-67.74-35.19-5.63-3.8-11.14-7.79-16.49-11.99-1.5-1.18-3.64.93-2.12,2.12h0Z"/><path fill="#3753b7" d="m614.97,937.84c2.8,17.57,5.25,35.13,9.74,52.38.49,1.87,3.38,1.08,2.89-.8-4.5-17.25-6.94-34.81-9.74-52.38-.3-1.9-3.19-1.09-2.89.8h0Z"/><path fill="#3753b7" d="m589.86,969.02c7.75,7.13,15.5,14.26,23.25,21.39,1.42,1.31,3.55-.81,2.12-2.12-7.75-7.13-15.5-14.26-23.25-21.39-1.42-1.31-3.55.81-2.12,2.12h0Z"/><path fill="#f1656e" d="m451.63,830.31c4.31,10.75,25.21,29.84,69.74,24.39,44.53-5.46,31.78,14.14,85.4,31.42,53.62,17.26,87.27-6.77,123.63-20.91,36.34-14.14,100.53,22.94,102.97-18.31,2.45-41.24-28.14-123.83-27.77-172.93v-.16s6.84-252.59,6.84-252.59c0,0-12.11-6.72-38.44-21.15-26.33-14.43-83.87-35.4-83.87-35.4,0,0,.02-.03,0,0-.91,1.56-37.41,56.43-89.24,56.32-18.83-.04-20.1-4.36-22.57-11.97-4.32-13.29,18.29-28.21,18.96-29.28,0,0,0-.03,0-.03-.02,0-.05.03-.11.05-.03.02-.06.04-.1.05-.09.04-.19.11-.32.18-.1.05-.21.11-.34.18,0,0-96.54,13.75-102.71,23.29-3.89,6.02-11.92,22.25-14.45,46.62-3.41,11.06-6.22,26.55-8.46,43.64-5.01,37.84-7.29,83.53-7.29,106.18v1.08c0,9.7-.09,19.54-.22,29.21-.17,11.22-.43,22.2-.79,32.47-.54,15.67-1.3,29.63-2.28,40.14-1.4,15.11-2.81,50.18-3.64,73.32,0,0-9.24,43.46-4.93,54.22Z"/><g><path fill="#dd315a" d="m691.48,389.71c-.61,2.73-1.21,5.46-1.82,8.19-.17.76.23,1.66,1.05,1.85.76.17,1.66-.23,1.85-1.05.61-2.73,1.21-5.46,1.82-8.19.17-.76-.23-1.66-1.05-1.85-.76-.17-1.66.23-1.85,1.05h0Z"/><path fill="#dd315a" d="m683.25,407.22c-9.7,13.89-23.13,25-38.41,32.28-7.57,3.6-15.62,6.22-23.86,7.76-9.63,1.8-19.82,2.28-29.35-.29s-17.58-8-22.21-16.41c-.93-1.69-3.52-.18-2.59,1.51,4.25,7.71,11.53,13.24,19.66,16.37,9.73,3.75,20.5,3.85,30.71,2.45,17.55-2.41,34.27-9.74,48.22-20.61,7.85-6.12,14.74-13.39,20.43-21.54,1.11-1.59-1.49-3.09-2.59-1.51h0Z"/><path fill="#dd315a" d="m555.21,402.02c.53,3.17,1.57,6.24,3.02,9.11.35.7,1.4.96,2.05.54.72-.46.92-1.3.54-2.05-.69-1.38-1.15-2.47-1.64-3.98s-.82-2.91-1.07-4.41c-.13-.78-1.13-1.28-1.85-1.05-.84.27-1.19,1.01-1.05,1.85h0Z"/><path fill="#dd315a" d="m555.88,440.83c1.74,3.54,4.51,6.4,7.53,8.88,3.21,2.64,6.62,5.04,10.1,7.3,7.23,4.69,14.92,8.61,22.93,11.79,1.8.71,2.57-2.19.8-2.89-7.62-3.02-14.95-6.8-21.84-11.24-3.34-2.15-6.63-4.44-9.71-6.95-2.9-2.37-5.55-5.02-7.22-8.4-.85-1.73-3.44-.21-2.59,1.51h0Z"/><g><path fill="#dd315a" d="m680.06,511.5c-12.44,19.61-26.6,38.11-42.27,55.26s-32.61,32.74-50.88,46.84c-10.34,7.98-21.09,15.44-32.16,22.36-1.63,1.02-.13,3.62,1.51,2.59,19.79-12.37,38.49-26.47,55.84-42.08s33.35-32.75,47.73-51.14c8.13-10.39,15.75-21.17,22.82-32.31,1.04-1.64-1.56-3.14-2.59-1.51h0Z"/><path fill="#dd315a" d="m576.34,599.95c-9.39,12.12-21.21,22.19-34.68,29.52-1.7.92-.18,3.51,1.51,2.59,13.67-7.44,25.75-17.69,35.29-29.99.5-.64.62-1.49,0-2.12-.51-.52-1.63-.64-2.12,0h0Z"/><path fill="#dd315a" d="m589.88,629.98c-1.88,9.63-4.26,19.15-7.13,28.53-.57,1.85,2.33,2.64,2.89.8,2.87-9.38,5.25-18.9,7.13-28.53.37-1.89-2.52-2.69-2.89-.8h0Z"/><path fill="#dd315a" d="m489.43,502.34c22.11,4.84,44.48,8.48,66.99,10.91,6.32.68,12.65,1.26,18.99,1.76,1.93.15,1.92-2.85,0-3-22.3-1.73-44.5-4.64-66.49-8.76-6.25-1.17-12.48-2.44-18.69-3.8-1.88-.41-2.69,2.48-.8,2.89h0Z"/><path fill="#dd315a" d="m492.94,650.8c6.96,3.08,13.92,6.16,20.89,9.24.75.33,1.6.21,2.05-.54.38-.63.2-1.73-.54-2.05-6.96-3.08-13.92-6.16-20.89-9.24-.75-.33-1.6-.21-2.05.54-.38.63-.2,1.73.54,2.05h0Z"/></g><g><path fill="#dd315a" d="m788.76,693.88c-23.08,15.72-47.68,29.18-73.34,40.19-25.6,10.98-52.28,19.49-79.51,25.4-15.33,3.33-30.84,5.82-46.44,7.45-1.9.2-1.92,3.2,0,3,27.98-2.93,55.66-8.55,82.56-16.79,26.89-8.24,53-19.05,77.82-32.25,13.9-7.39,27.4-15.55,40.42-24.41,1.59-1.08.09-3.68-1.51-2.59h0Z"/><path fill="#dd315a" d="m661.33,784.85c-7.18,1.7-14.53,2.42-21.9,2.16-1.93-.07-1.93,2.93,0,3,7.63.27,15.27-.51,22.7-2.27,1.88-.44,1.08-3.34-.8-2.89h0Z"/><path fill="#dd315a" d="m599.04,787.45c-18.92-3.77-37.83-7.55-56.75-11.32-1.89-.38-2.69,2.51-.8,2.89,18.92,3.77,37.83,7.55,56.75,11.32,1.89.38,2.69-2.51.8-2.89h0Z"/></g></g></g><path fill="#ffc7d2" d="m752.22,781.15s-61.72,1.55-72.89-1.86c-11.17-3.41-38.62-16.44-43.51-18.92s-19.77-3.72-21.32-12.41,12.72-10.71,12.72-10.71h109.8l15.2,43.89Z"/><path fill="#ff8383" d="m817.77,422.95s29.55,26.02,43.51,58.12,55.13,222.54,57.23,250.85-4.89,39.29-14.66,47.41-169.59,31.85-180.75,16.49c-11.17-15.35-6.28-67.7-6.28-67.7l83.75-2.09s-18.15-55.13-24.43-134.69c-6.28-79.56,2.31-188.82,41.63-168.39Z"/><g><rect width="248.05" height="22.73" x="635.82" y="714.53" fill="#24317f" rx="8.68" ry="8.68"/><path fill="#24317f" d="m744.06,737.25h-290.97c-9.14,0-17.27-5.86-20.16-14.55l-3.31-9.96-58.55-176.11c-4.58-13.76,5.67-27.95,20.17-27.95h299.95c9.5,0,17.84,6.29,20.44,15.44l52.86,186.07c.24.85.43,1.7.56,2.56,2,12.67-7.78,24.5-21,24.5Z"/><path fill="#c9dff4" d="m548.76,629.79c-7.17,1.3-14.61-6.6-16.62-17.66-2.01-11.05,2.17-21.07,9.35-22.38,7.17-1.3,14.62,6.61,16.63,17.66,2.01,11.05-2.19,21.07-9.36,22.38Z"/><path fill="#24317f" d="m744.06,737.25h-290.97c-9.14,0-17.27-5.86-20.16-14.55l-3.31-9.96h335.43c2,12.67-7.78,24.5-21,24.5Z"/></g><g><path fill="#dd315a" d="m792.62,430.19c-6.4,13.57-10.64,28.06-13.58,42.74-3.39,16.89-5.11,34.11-5.85,51.31-.81,19-.39,38.05.86,57.02,1.32,19.99,3.57,39.91,6.54,59.72,3,20,6.75,39.9,11.19,59.63.54,2.41,1.09,4.81,1.65,7.21.44,1.88,3.33,1.08,2.89-.8-4.56-19.5-8.45-39.15-11.61-58.93-3.16-19.74-5.59-39.6-7.13-59.54-1.46-18.91-2.12-37.9-1.63-56.86.45-17.29,1.83-34.6,4.81-51.65,2.6-14.88,6.38-29.71,12.34-43.63.68-1.58,1.39-3.16,2.12-4.71.82-1.74-1.77-3.26-2.59-1.51h0Z"/><path fill="#dd315a" d="m799.03,707.37c18.45-8.52,38.88-12.58,59.18-11.9,5.73.19,11.44.76,17.1,1.72,1.89.32,2.7-2.57.8-2.89-20.64-3.48-42.02-2.09-62.03,4.11-5.66,1.75-11.19,3.9-16.56,6.38-1.75.81-.23,3.4,1.51,2.59h0Z"/><path fill="#dd315a" d="m799.85,710.42c11.7-.49,23.42-.8,35.13-.81,5.47,0,10.98.12,16.37,1.1s10.18,2.8,14.77,5.53c5.03,2.98,9.54,6.71,14.03,10.44,1.48,1.22,3.61-.89,2.12-2.12-8.26-6.85-16.78-13.63-27.44-16.17-5.43-1.3-11.05-1.66-16.62-1.75-5.91-.09-11.82.03-17.73.14-6.88.13-13.76.35-20.64.64-1.92.08-1.93,3.08,0,3h0Z"/></g></g><g><path fill="#ff8383" d="m92.78,685.27c-7.56,0-14.34-3.91-18.12-10.46s-3.78-14.37,0-20.92l67.56-117.01c3.78-6.55,10.56-10.46,18.12-10.46s14.34,3.91,18.12,10.46l67.56,117.01c3.78,6.55,3.78,14.37,0,20.92-3.78,6.55-10.56,10.46-18.12,10.46H92.78Z"/><path fill="#fff" d="m152.11,643.08c0-2.17.78-3.94,2.35-5.34,1.57-1.39,3.52-2.09,5.86-2.09s4.3.7,5.86,2.09c1.57,1.39,2.35,3.17,2.35,5.34s-.78,3.95-2.35,5.34c-1.57,1.39-3.52,2.09-5.86,2.09s-4.3-.7-5.86-2.09c-1.57-1.39-2.35-3.17-2.35-5.34Zm14.32-13.61h-11.99l-1.89-43.7h15.77l-1.89,43.7Z"/></g><g><path fill="#ff8383" d="m301.58,401.72v32.59c0,30.14-24.43,54.57-54.57,54.57H73.65c-30.14,0-54.57-24.43-54.57-54.57,0-15.07,6.11-28.71,15.98-38.58,9.87-9.88,23.51-15.98,38.58-15.98h205.95c12.14,0,21.98,9.84,21.98,21.98Z"/><path fill="#fff" d="m119.16,434.41c0,2.87-.53,5.41-1.6,7.62-1.06,2.21-2.58,3.91-4.54,5.1s-4.19,1.79-6.7,1.79-4.73-.58-6.67-1.73c-1.94-1.15-3.45-2.8-4.54-4.94-1.08-2.14-1.65-4.6-1.71-7.37v-1.66c0-2.88.53-5.42,1.59-7.63,1.06-2.2,2.57-3.9,4.55-5.1,1.97-1.2,4.22-1.8,6.74-1.8s4.71.59,6.67,1.78c1.95,1.19,3.47,2.87,4.56,5.06,1.08,2.19,1.63,4.7,1.65,7.53v1.35Zm-7.21-1.23c0-2.92-.49-5.14-1.46-6.66-.98-1.52-2.37-2.27-4.19-2.27-3.56,0-5.43,2.67-5.64,8l-.02,2.16c0,2.88.48,5.1,1.43,6.65s2.38,2.32,4.26,2.32,3.17-.76,4.14-2.28c.97-1.52,1.46-3.71,1.48-6.57v-1.35Z"/><path fill="#fff" d="m147.73,434.41c0,2.87-.53,5.41-1.6,7.62-1.06,2.21-2.58,3.91-4.54,5.1s-4.19,1.79-6.7,1.79-4.73-.58-6.67-1.73c-1.94-1.15-3.45-2.8-4.54-4.94-1.08-2.14-1.65-4.6-1.71-7.37v-1.66c0-2.88.53-5.42,1.59-7.63,1.06-2.2,2.57-3.9,4.55-5.1,1.97-1.2,4.22-1.8,6.74-1.8s4.71.59,6.67,1.78c1.95,1.19,3.47,2.87,4.56,5.06,1.08,2.19,1.63,4.7,1.65,7.53v1.35Zm-7.21-1.23c0-2.92-.49-5.14-1.46-6.66-.98-1.52-2.37-2.27-4.19-2.27-3.56,0-5.43,2.67-5.64,8l-.02,2.16c0,2.88.48,5.1,1.43,6.65s2.38,2.32,4.26,2.32,3.17-.76,4.14-2.28c.97-1.52,1.46-3.71,1.48-6.57v-1.35Z"/><path fill="#fff" d="m158.47,438.54v9.98h-7.09v-29.42h11.74c2.25,0,4.24.41,5.97,1.24,1.73.83,3.07,2.01,4.02,3.54.95,1.53,1.42,3.26,1.42,5.2,0,2.87-1.03,5.16-3.08,6.88-2.05,1.72-4.87,2.58-8.46,2.58h-4.53Zm0-5.48h4.65c1.37,0,2.42-.34,3.14-1.03.72-.69,1.08-1.66,1.08-2.91,0-1.37-.37-2.47-1.11-3.29-.74-.82-1.75-1.24-3.03-1.25h-4.73v8.49Z"/><path fill="#fff" d="m193.49,440.7c0-1.04-.37-1.85-1.1-2.42-.73-.58-2.02-1.18-3.87-1.8-1.85-.62-3.35-1.22-4.53-1.8-3.81-1.87-5.72-4.44-5.72-7.72,0-1.63.47-3.07,1.42-4.31.95-1.25,2.29-2.22,4.03-2.91,1.74-.69,3.69-1.04,5.86-1.04s4.01.38,5.69,1.13c1.68.75,2.98,1.83,3.91,3.22.93,1.39,1.39,2.99,1.39,4.78h-7.07c0-1.2-.37-2.13-1.1-2.79-.73-.66-1.73-.99-2.98-.99s-2.27.28-3,.84c-.73.56-1.1,1.27-1.1,2.13,0,.75.4,1.44,1.21,2.05.81.61,2.23,1.25,4.26,1.9s3.7,1.36,5.01,2.11c3.18,1.83,4.77,4.36,4.77,7.58,0,2.57-.97,4.59-2.91,6.06s-4.6,2.2-7.98,2.2c-2.38,0-4.54-.43-6.48-1.28s-3.39-2.03-4.36-3.52c-.98-1.49-1.46-3.2-1.46-5.14h7.11c0,1.58.41,2.74,1.22,3.49.81.75,2.14,1.12,3.97,1.12,1.17,0,2.1-.25,2.78-.76.68-.51,1.02-1.22,1.02-2.13Z"/><path fill="#fff" d="m204.07,445.47c0-1,.36-1.81,1.08-2.45.72-.64,1.62-.96,2.7-.96s1.98.32,2.7.96c.72.64,1.08,1.46,1.08,2.45s-.36,1.82-1.08,2.45c-.72.64-1.62.96-2.7.96s-1.98-.32-2.7-.96c-.72-.64-1.08-1.46-1.08-2.45Zm6.59-6.26h-5.52l-.87-20.1h7.25l-.87,20.1Z"/></g><path fill="#cce6ff" d="m915.83,182.42l-16.21-4.5c.36-5.71-.28-11.52-1.99-17.18l14.68-7.97c.77-.42.88-1.47.19-2.02-1.41-1.11-3.59-3.29-5.94-7.41-2.35-4.12-3.11-7.08-3.34-8.83-.11-.86-1.09-1.32-1.86-.91l-14.62,7.94c-4.03-4.44-8.76-8.07-13.94-10.81l4.57-15.66c.24-.83-.45-1.65-1.33-1.56-1.8.19-4.93.14-9.58-1.15-4.66-1.29-7.34-2.86-8.77-3.94-.7-.53-1.73-.19-1.98.65l-4.56,15.61c-5.9-.34-11.91.29-17.76,1.99l-8.09-14.16c-.43-.76-1.52-.86-2.07-.19-1.14,1.37-3.38,3.5-7.61,5.79-4.23,2.3-7.27,3.04-9.06,3.26-.88.1-1.36,1.06-.93,1.82l8.09,14.16c-4.56,3.95-8.28,8.6-11.08,13.67l-16.02-4.44c-.86-.24-1.7.44-1.61,1.3.19,1.75.15,4.8-1.17,9.34-1.33,4.54-2.93,7.15-4.04,8.55-.54.68-.19,1.69.66,1.92l16.06,4.46c-.33,5.74.34,11.57,2.09,17.24l-14.62,7.94c-.77.42-.88,1.48-.19,2.02,1.41,1.11,3.59,3.3,5.94,7.41,2.35,4.12,3.11,7.08,3.34,8.83.11.86,1.09,1.32,1.86.91l14.68-7.97c4.04,4.4,8.77,7.99,13.93,10.69l-4.61,15.81c-.24.83.45,1.65,1.33,1.56,1.8-.19,4.92-.14,9.57,1.15,4.66,1.29,7.34,2.86,8.77,3.94.7.53,1.73.19,1.98-.64l4.62-15.84c5.84.32,11.77-.32,17.55-2l8.22,14.4c.43.76,1.52.86,2.07.19,1.13-1.38,3.38-3.5,7.61-5.79,4.23-2.3,7.26-3.04,9.06-3.26.88-.11,1.36-1.06.93-1.82l-8.22-14.4c4.51-3.91,8.19-8.49,10.98-13.5l16.25,4.51c.86.23,1.7-.44,1.6-1.3-.19-1.75-.15-4.8,1.18-9.33,1.33-4.54,2.93-7.15,4.04-8.55.54-.68.19-1.69-.66-1.92Zm-46.8-18.71c6.42,11.24,2.28,25.43-9.25,31.7-11.53,6.26-26.08,2.22-32.51-9.02-6.42-11.24-2.28-25.43,9.25-31.69,11.53-6.26,26.09-2.22,32.51,9.02Z"/><path fill="#cce6ff" d="m876.44,333.86l-9.6-2.66c.21-3.38-.17-6.82-1.18-10.17l8.69-4.72c.46-.25.52-.87.11-1.2-.83-.66-2.12-1.95-3.52-4.39-1.39-2.44-1.84-4.19-1.98-5.23-.06-.51-.64-.78-1.1-.54l-8.66,4.7c-2.39-2.63-5.19-4.78-8.26-6.4l2.71-9.27c.14-.49-.27-.98-.79-.92-1.07.11-2.92.08-5.67-.68-2.76-.76-4.35-1.69-5.19-2.34-.41-.31-1.03-.11-1.17.39l-2.7,9.24c-3.5-.2-7.05.17-10.52,1.18l-4.79-8.38c-.26-.45-.9-.51-1.23-.11-.67.81-2,2.07-4.5,3.43-2.5,1.36-4.3,1.8-5.37,1.93-.52.06-.8.63-.55,1.08l4.79,8.38c-2.7,2.34-4.9,5.09-6.56,8.1l-9.48-2.63c-.51-.14-1.01.26-.95.77.11,1.04.09,2.85-.69,5.53-.79,2.69-1.74,4.24-2.4,5.06-.32.4-.11,1,.39,1.14l9.51,2.64c-.2,3.4.2,6.85,1.24,10.21l-8.66,4.7c-.46.25-.52.88-.11,1.2.83.66,2.13,1.95,3.52,4.39,1.39,2.44,1.84,4.19,1.98,5.23.07.51.64.78,1.1.54l8.69-4.72c2.39,2.61,5.19,4.73,8.25,6.33l-2.73,9.36c-.14.49.27.98.79.92,1.07-.11,2.92-.09,5.67.68,2.76.77,4.35,1.69,5.19,2.34.42.32,1.03.11,1.17-.38l2.74-9.38c3.46.19,6.97-.19,10.39-1.18l4.87,8.53c.26.45.9.51,1.23.11.67-.82,2-2.07,4.5-3.43,2.5-1.36,4.3-1.8,5.37-1.93.52-.06.8-.63.55-1.08l-4.87-8.53c2.67-2.32,4.85-5.03,6.5-7.99l9.62,2.67c.51.14,1.01-.26.95-.77-.11-1.04-.09-2.84.7-5.53.79-2.69,1.74-4.24,2.4-5.06.32-.4.11-1-.39-1.14Zm-27.71-11.08c3.8,6.66,1.35,15.06-5.48,18.77-6.83,3.71-15.45,1.31-19.25-5.34-3.8-6.66-1.35-15.06,5.48-18.77,6.83-3.71,15.45-1.32,19.25,5.34Z"/></svg>