<svg xmlns="http://www.w3.org/2000/svg" data-name="Layer 2" viewBox="0 0 1000 1000"><rect width="996.57" height="886.98" x="3.43" y="19.03" fill="#ebf5ff" rx="14.85" ry="14.85"/><path fill="#fff" d="m416.14,85.78v274.54c0,5.7-5.05,10.34-11.3,10.34H62.28c-6.24,0-11.3-4.64-11.3-10.34V85.78c0-5.7,5.05-10.34,11.3-10.34h342.56c6.24,0,11.3,4.64,11.3,10.34Z"/><path fill="#cce6ff" d="m416.14,81.24v22.1H50.99v-22.1c0-3.2,5.05-5.8,11.3-5.8h342.56c6.24,0,11.3,2.6,11.3,5.8Z"/><path fill="#fff" d="m973.86,340.54v518.01c0,10.76-7.95,19.52-17.79,19.52H416.68c-9.83,0-17.79-8.76-17.79-19.52V340.54c0-10.76,7.95-19.52,17.79-19.52h539.39c9.83,0,17.79,8.76,17.79,19.52Z"/><path fill="#cce6ff" d="m973.86,331.96v41.7H398.89v-41.7c0-6.03,7.95-10.94,17.79-10.94h539.39c9.83,0,17.79,4.91,17.79,10.94Z"/><rect width="393.29" height="79.68" x="506.78" y="357.25" fill="#97bdff" rx="14.85" ry="14.85"/><rect width="393.29" height="79.68" x="506.78" y="878.07" fill="#97bdff" rx="14.85" ry="14.85"/><path fill="#cce6ff" d="m884.91,878.07h-360.54c0-104.76,55.15-193.06,130.5-220.57-75.36-27.51-130.5-115.81-130.5-220.57h360.54c0,104.76-55.15,193.06-130.5,220.57,75.36,27.51,130.5,115.81,130.5,220.57Z"/><path fill="#6b97ed" d="m863.38,878.07h-319.91c21.64-72.76,85.07-125.42,159.94-125.42s138.3,52.66,159.97,125.42Z"/><path fill="#467ee0" d="m627.51,478.27s-21.07,46.29-92.31,30.21c-71.24-16.08-136.43-45.96-136.43-45.96l-27.96-157.74s223.28,77.19,240.66,91.98,16.03,81.51,16.03,81.51Z"/><path fill="#ffc7d2" d="m394.95,348.23s-45.21,68.96-108.42,77.2c-63.18,8.28-104.01-86.87-104.01-86.87,0,0,41.33-44.17,45.14-74.66.93-7.56.49-15.72-.68-23.68-3.6-24.13-14.12-46.6-14.12-46.6l93.48,4.08s-.07,3.09,2.19,55.21c.55,12.54,4.15,24.94,9.34,36.58,16.29,36.66,77.07,58.75,77.07,58.75Z"/><path fill="#f47382" d="m323.31,289.51c-5.37,14.48-10.8,27.8-13.48,30.42-6.36,6.2-34.13-14.35-54.91-46.19-6.02-9.25-11.48-21.15-16.14-33.4-3.31-24.14-13.07-46.61-13.07-46.61l86.99,3.95s-.07,3.1,1.96,55.24c.49,12.54,3.83,24.95,8.64,36.58Z"/><path fill="#1c1c7a" d="m181.06,156.24c8.25,14.47,17.22,25.36,18.24,26.59-.38-.53-2.3-3.34-3.39-7.7-1.62-6.35-1.53-15.97,7.55-26.6,7.82-9.17,22.3-19.13,48.1-28.43,78.63-28.29,141.2,22.29,141.2,22.29,0,0,22.67-13.53,30.39-47.35,7.74-33.8.33-55.34-9.33-55.4s-18.39,6.33-18.39,6.33c0,0,7.26-30.96-6.68-37.85-13.94-6.88-31.35,8.06-31.35,8.06,0,0-66.36-26.18-114.38,4.71-48.03,30.87-48.16,52.3-48.16,52.3,0,0-14.54-4.32-26,27.86-5.97,16.8,2.61,38.39,12.2,55.18Z"/><path fill="#1c1c7a" d="m185.63,140.63c.54,4.47,1.3,8.68,2.24,12.66,1.95,8.24,4.73,15.48,8.04,21.84,18.75,36.21,54.55,44.13,54.55,44.13l35.6-15.26,98.71-42.29s4.19-7.51,7.99-19.32c5.47-16.98,10.11-42.86.22-68.03-16.77-42.66-67.19-61.13-120.53-49.87-53.37,11.28-94.71,50.08-86.81,116.14Z"/><path fill="#6565a5" d="m199.3,182.83c-.38-.53-2.3-3.34-3.39-7.7,18.75,36.21,54.55,44.13,54.55,44.13l35.6-15.26s-.06-.08-.08-.13c-27.66-45.32-45.55-59.72-45.55-59.72,0,0-17.58-.21-36.97,4.37-5.16,1.21-10.46,2.76-15.58,4.77-2.32.89-4.6,1.87-6.82,2.95,8.25,14.47,17.22,25.36,18.24,26.59Z"/><path fill="#ffc7d2" d="m381.67,261.87c-14.29,30.51-28.45,34.05-43.73,34.87-15.26.83-26.64-2.17-32.07-2.87h-.02c-17.96-5.91-36.66-14.56-45.17-23.01-12.88-12.73-26.66-44.61-28.01-47.81-.07-.18-.1-.25-.1-.25,0,0-35.14,10.24-42.94-7.95-7.74-18.22.59-29.92,10.71-35.21,10.19-5.24,27.8-5,30.11-1.63,2.28,3.31,5.04,20.87,7.8,21.58,2.72.74,6.06.74,7.23-1.27.48-.8-.23-9.18-1.23-19.39-.79-4.83-1.27-10.55-1.63-15.58-.87-7.92-1.7-15.17-2.18-19.19,0,0,16.06,4.01,43.06-5.09,27-9.11,45.04-20.67,45.04-20.67,0,0,43.92,6.85,61.09-2.92,0,0,4.7,33.64,3.87,44.07-.84,10.46-2.94,17.66-.84,26.5.66,2.74,1.32,6.41,1.79,10.91,0,0,0,.03,0,.1.09,2.04,1.07,35.26-12.78,64.82Z"/><path fill="#f47382" d="m215.22,218.69c5.84.03,7.6-2.63,8.14-4.25.8-2.42-.27-5.08-2.72-6.8l-.7-.48c-3.88-2.65-3.72-3.27-3-4.41.54-.85.92-1.02.97-1.02.27,0,.98.5,1.41,1.19,1,1.63,1.44,2.89,1.45,2.9.53,1.52,2.19,2.33,3.71,1.8,1.52-.52,2.33-2.17,1.81-3.69-.06-.19-.66-1.87-1.99-4.06-1.12-1.82-3.45-3.95-6.34-3.97h0c-1.62,0-3.97.63-5.94,3.74-4.06,6.4,2.03,10.57,4.63,12.35l.65.45c.08.06.15.11.2.16-.43.14-1.23.3-2.54.26-2.54-.07-9.09-4.56-11.72-10.78-1.88-4.45-1.22-8.46,1.97-11.93,2.27-2.47,4.57-3.6,7.08-3.43,5.9.37,11.2,7.62,11.25,7.7.93,1.31,2.75,1.63,4.07.69,1.31-.93,1.62-2.75.69-4.07-.28-.39-6.89-9.59-15.64-10.15-4.34-.27-8.26,1.51-11.74,5.3-4.74,5.15-5.82,11.6-3.05,18.15,3.4,8.04,11.74,14.2,16.93,14.34.14,0,.28,0,.42,0Z"/><ellipse cx="299.74" cy="175.68" fill="#1c1c7a" rx="10.32" ry="6.79" transform="rotate(-84.65 299.755 175.681)"/><ellipse cx="358.67" cy="177.15" fill="#1c1c7a" rx="9.16" ry="6.21" transform="rotate(-84.64 358.653 177.154)"/><ellipse cx="302.99" cy="171.74" fill="#fff" rx="4.52" ry="2.88" transform="rotate(-84.67 302.978 171.746)"/><ellipse cx="362.26" cy="174.52" fill="#fff" rx="4.52" ry="2.88" transform="rotate(-84.67 362.242 174.527)"/><path fill="#f47382" d="m336.83,227.38c4.08.02,12.18-.64,15.76-5.92,4.91-7.24-.63-12.1-5.98-16.79l-1.5-1.32c-3.91-3.47-2.51-11.53-1.64-14.34.47-1.54-.39-3.17-1.92-3.65-1.54-.47-3.17.38-3.65,1.91-.17.56-4.18,13.75,3.34,20.43l1.53,1.35c6.16,5.41,6.77,6.52,5,9.13-2.28,3.37-10.17,3.5-12.74,3.28-1.55-.16-3.02,1.05-3.16,2.65-.14,1.6,1.04,3.02,2.65,3.16.31.03,1.15.09,2.33.1Z"/><path fill="#1c1c7a" d="m291.64,160.02c.68,0,1.37-.23,1.92-.71,5.6-4.83,14.88-2.9,14.97-2.88,1.56.34,3.12-.66,3.47-2.23.34-1.57-.65-3.12-2.22-3.47-.49-.11-12.2-2.61-20.04,4.16-1.22,1.05-1.35,2.9-.3,4.11.57.66,1.38,1.01,2.19,1.01Z"/><path fill="#1c1c7a" d="m372.23,162.51c.44,0,.88-.09,1.3-.3,1.43-.71,2.04-2.42,1.35-3.87-1.83-3.8-8.21-10.18-19.32-7.05-1.55.44-2.46,2.05-2.02,3.6.44,1.55,2.05,2.45,3.6,2.02,8.89-2.5,12.15,3.32,12.49,3.99.51,1.01,1.54,1.6,2.61,1.61Z"/><path fill="#f47382" d="m314.23,256.4c4.02-4.07,9.94-5.18,15.47-5.31,7.56-.17,15.02,1.09,22.56-.18,1.59-.27,2.48-2.23,2.09-3.68-.46-1.69-2.08-2.36-3.68-2.09-7.44,1.26-15.02-.39-22.5.03-6.62.37-13.38,2.15-18.16,7-2.71,2.74,1.52,6.97,4.23,4.23h0Z"/><path fill="#f47382" d="m326.77,262.38l2.04.5c.4.12.79.14,1.19.05.4-.02.77-.14,1.11-.35.35-.19.63-.44.84-.77.26-.29.44-.63.54-1.02l.11-.79c0-.54-.14-1.04-.41-1.51l-.47-.61c-.37-.37-.81-.63-1.32-.77l-2.04-.5c-.4-.12-.79-.14-1.19-.05-.4.02-.77.14-1.11.35-.35.19-.63.44-.84.77-.26.29-.44.63-.54,1.02l-.11.79c0,.54.14,1.04.41,1.51l.47.61c.37.37.81.63,1.32.77h0Z"/><g><path fill="#1c1c7a" d="m491.23,944.02c0,5.33-2.8,10.25-7.32,12.78-30.71,17.22-85.99,37.37-176.67,37.37-126.1,0-196.54-25.79-219.99-36.29-5.26-2.36-8.6-7.79-8.45-13.74.51-20.9,1.53-47.58,3.56-77.89,3.99-59.63,21.54-148.33,28.09-179.98,1.43-6.96,6.97-11.94,13.47-12.12,58.42-1.57,330.52-3.99,349.88,85.91,15.31,71.14,17.48,146.06,17.42,183.96Z"/><path fill="#3753b7" d="m349.9,905.63c-7.75,6.33-15.01,13.77-22.95,19.58-9.34,6.84-20.2,10.95-31.21,14.29-11.31,3.43-22.84,6.11-34.38,8.64-1.89.41-1.09,3.31.8,2.89,10.63-2.33,21.23-4.8,31.68-7.84,6.84-1.99,13.62-4.24,20.15-7.12,4.64-2.05,9.11-4.48,13.26-7.4,3.74-2.63,7.22-5.6,10.64-8.63,4.67-4.15,9.29-8.33,14.13-12.28,1.5-1.22-.64-3.33-2.12-2.12h0Z"/><path fill="#3753b7" d="m313.52,935.37c-1.15,7.43-2.56,14.8-4.33,22.11-1.58,6.54-3.42,13.01-5.19,19.5-1.21,4.42-2.38,8.86-3.5,13.3-.47,1.87,2.42,2.67,2.89.8,3.49-13.84,7.77-27.5,10.63-41.5.91-4.45,1.69-8.92,2.38-13.41.29-1.89-2.6-2.7-2.89-.8h0Z"/><path fill="#3753b7" d="m339.13,964.98c-8.41,8.03-16.81,16.07-25.22,24.1-1.4,1.34.72,3.46,2.12,2.12,8.41-8.03,16.81-16.07,25.22-24.1,1.4-1.34-.72-3.46-2.12-2.12h0Z"/></g><g><path fill="#467ee0" d="m473.24,723.2l-3.95-83.38c-7.14-97.75-37.23-275.61-46.81-294.41-9.38-18.4-49.84-39.68-51.6-40.61-.04-.01-.06-.02-.06-.02-9.88-3.63-30.69,2.87-30.69,2.87,0,0-8.57-11.06-15.26-11.06-9.98,0-2.03,2.99-8.01,6.98-5.99,3.99-80.64-28.65-93.1-21.18-12.45,7.46-14.07,21.63-14.07,21.63,0,0-86.89,21.87-101.78,47.69-14.89,25.81,4.71,259.22-.28,296.09-4.98,36.86-11.96,112.58-11.96,116.56,0,0-10.09,48.28-10.44,54.98-.35,6.7,2.47,10.57,4.23,11.63,1.76,1.06,21.41-.7,31.32,6.7,9.91,7.4,56.79,20.09,84.28,14.8,27.49-5.29,86.35,13.57,139.21,4.58,52.87-8.99,143.38-8.99,142.26-21.15-.94-10.21-10.31-88.06-13.28-112.71Z"/><path fill="#2c46a3" d="m338.82,306.89c-4.16,7.12-9.56,13.62-15.95,18.84-3.28,2.68-7.01,4.04-11.22,4.39-4.48.37-9-.07-13.4-.93-8.97-1.74-17.75-4.67-26.53-7.18s-18.23-5.23-27.34-7.84c-10.23-2.93-20.47-5.87-30.7-8.8-1.86-.53-2.65,2.36-.8,2.89,18.79,5.39,37.58,10.77,56.36,16.16,9.11,2.61,18.21,5.64,27.51,7.53,8.32,1.69,18.47,2.69,25.89-2.33,3.85-2.6,7.25-6.05,10.3-9.52s6.03-7.53,8.46-11.69c.98-1.67-1.62-3.18-2.59-1.51h0Z"/><path fill="#2c46a3" d="m231.57,318.57c15.9,8.69,32.4,16.26,49.33,22.7,1.81.69,2.59-2.21.8-2.89-16.69-6.35-32.94-13.83-48.62-22.4-1.69-.93-3.21,1.66-1.51,2.59h0Z"/><path fill="#2c46a3" d="m332.84,327.49c-1.96,1.91-3.91,3.82-5.87,5.73-.56.55-.59,1.58,0,2.12s1.52.59,2.12,0c1.96-1.91,3.91-3.82,5.87-5.73.56-.55.59-1.58,0-2.12s-1.52-.59-2.12,0h0Z"/><g><path fill="#2c46a3" d="m388.94,389.23c-15.53,13.11-31.37,25.83-47.53,38.15-16.07,12.25-32.45,24.1-49.11,35.54-9.4,6.46-18.89,12.78-28.47,18.97-1.62,1.04-.11,3.64,1.51,2.59,17.1-11.06,33.93-22.54,50.47-34.44,16.51-11.88,32.72-24.17,48.62-36.85,8.98-7.16,17.85-14.44,26.63-21.85,1.48-1.25-.65-3.36-2.12-2.12h0Z"/><path fill="#2c46a3" d="m386.95,404.5c-.79,3.86-2.14,7.57-4.04,11.03-.93,1.69,1.66,3.21,2.59,1.51,2.02-3.67,3.5-7.64,4.35-11.74.16-.79-.23-1.62-1.05-1.85-.74-.2-1.68.25-1.85,1.05h0Z"/><path fill="#2c46a3" d="m364.73,442.4c-18.48,15.48-38.31,29.34-59.19,41.38-5.9,3.41-11.89,6.66-17.96,9.77-1.72.88-.2,3.47,1.51,2.59,21.69-11.14,42.41-24.17,61.83-38.92,5.41-4.11,10.72-8.34,15.93-12.71,1.48-1.24-.65-3.35-2.12-2.12h0Z"/><path fill="#2c46a3" d="m432.06,606.9c-12.83-4.9-26.83-6.3-40.36-8.12-14.1-1.9-28.23-3.54-42.39-4.97-28.38-2.86-56.85-4.85-85.33-6.41-16.06-.88-32.12-1.62-48.19-2.3-1.93-.08-1.93,2.92,0,3,28.51,1.21,57.01,2.6,85.47,4.63,28.28,2.01,56.53,4.63,84.65,8.28,7.76,1.01,15.51,2.05,23.24,3.29s14.99,2.77,22.11,5.49c1.81.69,2.59-2.21.8-2.89h0Z"/><path fill="#2c46a3" d="m430.94,612.55c-4.59,0-9.19,0-13.78,0-1.93,0-1.93,3,0,3,4.59,0,9.19,0,13.78,0,1.93,0,1.93-3,0-3h0Z"/><path fill="#2c46a3" d="m391.99,611.95c-22.56,0-45.11,0-67.67,0-6.41,0-12.82,0-19.23,0-1.93,0-1.93,3,0,3,22.56,0,45.11,0,67.67,0,6.41,0,12.82,0,19.23,0,1.93,0,1.93-3,0-3h0Z"/><path fill="#2c46a3" d="m211.31,441.46c.76,20.23,1.52,40.45,2.28,60.68.22,5.74.43,11.49.65,17.23.07,1.92,3.07,1.93,3,0-.76-20.23-1.52-40.45-2.28-60.68-.22-5.74-.43-11.49-.65-17.23-.07-1.92-3.07-1.93-3,0h0Z"/><path fill="#2c46a3" d="m216.15,536.54c.8,3.07,1.16,6.01,1.14,9.19,0,.78.69,1.54,1.5,1.5s1.5-.66,1.5-1.5c.02-3.36-.41-6.73-1.25-9.99-.2-.76-1.08-1.29-1.85-1.05s-1.26,1.03-1.05,1.85h0Z"/></g></g><g><path fill="#2c46a3" d="m115.63,620.79c20.49,18.27,42.25,35.11,65.08,50.36,22.72,15.18,46.49,28.79,71.08,40.69,13.85,6.7,27.97,12.86,42.3,18.47,1.8.7,2.58-2.2.8-2.89-25.33-9.91-49.95-21.59-73.66-34.91-23.7-13.31-46.47-28.26-68.12-44.7-12.17-9.24-23.96-18.97-35.36-29.14-1.44-1.28-3.57.83-2.12,2.12h0Z"/><path fill="#2c46a3" d="m119.48,635.43c3.82,5.31,7.26,10.87,10.31,16.65.9,1.71,3.49.19,2.59-1.51-3.05-5.78-6.49-11.34-10.31-16.65-.47-.66-1.31-.97-2.05-.54-.65.38-1.01,1.39-.54,2.05h0Z"/><path fill="#2c46a3" d="m136.23,665.49c10.22,15.14,21.12,29.82,32.64,43.99,1.22,1.5,3.33-.64,2.12-2.12-11.36-13.98-22.09-28.46-32.17-43.38-1.07-1.59-3.67-.09-2.59,1.51h0Z"/><path fill="#2c46a3" d="m123.95,773.45c17-.27,34.01-.33,51.01-.18,17,.15,34,.52,51,1.09,9.62.32,19.23.72,28.84,1.18,1.93.09,1.93-2.91,0-3-16.98-.81-33.98-1.41-50.98-1.8s-34-.57-51.01-.54c-9.62.02-19.24.1-28.86.26-1.93.03-1.93,3.03,0,3h0Z"/><path fill="#2c46a3" d="m264.3,775.74h111.02c1.93,0,1.93-3,0-3h-111.02c-1.93,0-1.93,3,0,3h0Z"/></g><path fill="#6b97ed" d="m107.9,351.71s61.55,2.52,45.83,97.94c-15.73,95.42-60.76,206.1-62.29,208.39S0,675.39,0,675.39c0,0,10.63-262.08,107.9-323.68Z"/><g><path fill="#ffc7d2" d="m192.78,559.07s21.52-40.77,23.58-58.84,7.73-57.16,10.46-68.72c2.73-11.56,13.66-50.44,15.55-50.23s4.6,1.55,4.93,4.66,0,10.89,0,10.89c0,0,7.68,4.41,8.52,10.51.84,6.09,0,20.81,0,20.81,0,0,4.83,14.29,4.62,21.23-.21,6.94-2.31,30.05.84,39.3,3.15,9.25,10.51,43.54-2.52,57.81s-18.07,26.04-19.75,28.14-22.65,28.58-22.65,28.58l-23.58-44.13Z"/><path fill="#6b97ed" d="m44.83,612.45s27.78-23.29,104.75-48.81c37.73-12.51,43.2-20.96,53.29-15.5,10.09,5.46,30.68,37.83,26.9,45.39-3.78,7.57-65.57,70.19-108.44,97.93-42.87,27.74-66.41,31.52-82.38,29-15.97-2.52-35.73-15.55-38.25-31.1-2.52-15.55-.42-47.92,44.13-76.92Z"/><path fill="#f47382" d="m246.08,396.36c-5,15.31-8.96,30.95-11.83,46.79-.82,4.55-1.55,9.11-2.2,13.69-.11.81.2,1.6,1.05,1.85.7.2,1.73-.25,1.85-1.05,2.25-15.94,5.57-31.73,9.97-47.22,1.26-4.45,2.62-8.87,4.05-13.26.6-1.84-2.3-2.63-2.89-.8h0Z"/><path fill="#f47382" d="m251.59,428.9c-2.39,7.63-3.07,15.75-3.99,23.65-.95,8.16-1.69,16.38-1.38,24.6s1.65,16.12,2.64,24.16c.98,7.9,1.44,15.82.97,23.78-.53,8.81-2.11,17.52-4.64,25.97-.55,1.85,2.34,2.65,2.89.8,4.53-15.13,5.89-30.99,4.23-46.68-.85-8.06-2.26-16.05-2.87-24.14s-.14-16.39.72-24.55c.48-4.55,1.04-9.09,1.63-13.62s1.34-8.88,2.69-13.16c.58-1.85-2.32-2.64-2.89-.8h0Z"/><path fill="#f47382" d="m258.64,482.4c-.97,5.33-1.49,10.73-1.54,16.15-.02,1.93,2.98,1.93,3,0,.04-5.15.51-10.28,1.43-15.35.14-.8-.22-1.62-1.05-1.85-.73-.2-1.7.25-1.85,1.05h0Z"/><path fill="#ffc7d2" d="m411.98,353.12s-25.06-11.09-33.26-14.08-47.76-.79-58.48-.79-31.21.63-39.72,2.84c-8.51,2.21-28.06,5.67-43.03,7.25-14.97,1.58-17.71,3.15-19.91,4.73s-2.36,2.68-2.36,2.68c0,0-7.41.47-9.3,2.21s-3.15,5.99-2.05,8.04,6.3,4.41,6.3,4.41c0,0-.32,3.63,1.73,5.2,2.05,1.58,12.29,2.36,12.29,2.36,0,0,.16,5.83,3.94,7.57s57.95-1.42,61.31,0,31.73,12.14,51.49,10.67c19.75-1.47,39.51-.56,42.66.14s19.75,8.48,19.75,8.48l8.62-51.7Z"/><path fill="#6b97ed" d="m580.63,382.54s35.31,9.14,48.23,29,8.2,60.84-5.36,70.93-46.34,17.02-81.33,4.1c-34.99-12.92-71.56-50.12-98.98-62.42-27.43-12.29-55.8-15.45-56.43-27.11-.63-11.66,12.61-51.38,16.08-51.38s29.32,3.78,38.14,5.99,139.65,30.89,139.65,30.89Z"/><g><path fill="#f47382" d="m226.26,378.1c.77-1.17,2.75-1.07,3.97-1.13,2.15-.11,4.3-.22,6.45-.31,4.13-.18,8.27-.33,12.41-.45,8.36-.23,16.72-.33,25.07-.29,4.8.02,9.6.1,14.4.21,1.93.05,1.93-2.95,0-3-17.79-.43-35.59-.23-53.37.59-2.3.11-4.64.12-6.92.39-1.87.23-3.54.84-4.6,2.47s1.54,3.12,2.59,1.51h0Z"/><path fill="#f47382" d="m211.97,370.59c3.86-1.63,7.38-4.13,11.61-4.67,4.7-.6,9.45-.81,14.18-.93,9.61-.25,19.22-.32,28.84-.3,5.48.01,10.97.07,16.45.19,1.93.04,1.93-2.96,0-3-9.8-.2-19.6-.23-29.41-.14s-19.29-.02-28.84,1.04c-2.46.27-4.69.69-6.97,1.68s-4.39,2.27-6.66,3.23c-.75.32-1.27.99-1.05,1.85.19.71,1.1,1.36,1.85,1.05h0Z"/><path fill="#f47382" d="m216.76,357.44c19.86-2.75,39.93-4.02,59.98-3.86,1.93.02,1.93-2.98,0-3-20.33-.17-40.64,1.17-60.78,3.96-1.9.26-1.09,3.15.8,2.89h0Z"/></g></g><path fill="#2c46a3" d="m42.06,612.95c11.19-10.02,23.96-18.23,37.71-24.29,6.96-3.07,14.18-5.51,21.53-7.45,7.72-2.04,15.56-3.61,23.34-5.42,8.76-2.04,17.44-4.45,25.7-8.04,1.77-.77.24-3.35-1.51-2.59-14.83,6.46-30.98,8.74-46.55,12.71-14.78,3.77-28.94,9.6-41.92,17.66-7.24,4.49-14.07,9.63-20.41,15.31-1.44,1.29.69,3.41,2.12,2.12h0Z"/><g><path fill="#467ee0" d="m581.28,170.35h15.96v28.03h-15.96v33.31h-36.33v-33.31h-60.7l-2.16-22.21,62.85-101.12v-.32h36.33v95.62Zm-64.58,0h28.25v-48.3l-2.26,3.67-25.98,44.63Z"/><path fill="#467ee0" d="m912.27,116.66c0,7.62-1.89,14.34-5.66,20.16-3.77,5.82-8.97,10.49-15.58,14.01,7.47,3.67,13.4,8.68,17.79,15.04,4.38,6.36,6.58,13.89,6.58,22.59,0,14.01-4.83,25.08-14.5,33.2-9.67,8.12-22.98,12.18-39.94,12.18s-30.47-4.08-40.32-12.24c-9.85-8.16-14.77-19.21-14.77-33.15,0-8.41,2.16-15.85,6.47-22.32s10.42-11.57,18.33-15.31c-6.68-3.52-11.93-8.19-15.74-14.01-3.81-5.82-5.71-12.54-5.71-20.16,0-13.65,4.64-24.44,13.91-32.34,9.27-7.91,21.78-11.86,37.52-11.86s28.46,3.95,37.73,11.86c9.27,7.91,13.91,18.69,13.91,32.34Zm-33.31,68.89c0-6.47-1.67-11.44-5.01-14.93-3.34-3.49-7.74-5.23-13.21-5.23s-9.88,1.74-13.26,5.23c-3.38,3.49-5.07,8.46-5.07,14.93s1.71,11.2,5.12,14.82c3.41,3.63,7.89,5.44,13.42,5.44s9.74-1.8,13.04-5.39c3.3-3.59,4.96-8.55,4.96-14.88Zm-18.33-85.06c-4.89,0-8.61,1.6-11.16,4.8-2.55,3.2-3.83,7.64-3.83,13.31s1.29,10.13,3.88,13.58c2.59,3.45,6.4,5.17,11.43,5.17s8.68-1.72,11.16-5.17,3.72-7.98,3.72-13.58-1.28-10.03-3.83-13.26c-2.55-3.23-6.34-4.85-11.37-4.85Z"/><circle cx="702.2" cy="156.48" r="84.12" fill="#97bdff"/><circle cx="702.2" cy="156.48" r="66.57" fill="#fff"/><path fill="#97bdff" d="m736.35,194.72c-1.05,0-2.09-.4-2.89-1.2l-35.35-35.34v-39.83c0-2.26,1.83-4.09,4.09-4.09s4.09,1.83,4.09,4.09v36.44l32.95,32.95c1.6,1.6,1.6,4.19,0,5.79-.8.8-1.85,1.2-2.89,1.2Z"/><circle cx="702.2" cy="156.48" r="10.85" fill="#6b97ed"/></g><g><path fill="#97bdff" d="m486.88,291.63h-4.58v12.42h-8.46v-35.1h13.81c4.16,0,7.42.92,9.76,2.77,2.35,1.85,3.52,4.46,3.52,7.83,0,2.44-.49,4.46-1.48,6.07-.99,1.61-2.54,2.91-4.64,3.9l7.33,14.17v.36h-9.07l-6.2-12.42Zm-4.58-6.51h5.35c1.61,0,2.82-.42,3.63-1.27.81-.85,1.22-2.03,1.22-3.54s-.41-2.7-1.23-3.56c-.82-.86-2.03-1.29-3.62-1.29h-5.35v9.67Z"/><path fill="#97bdff" d="m527.81,289.15h-13.31v8.39h15.72v6.51h-24.18v-35.1h24.23v6.53h-15.77v7.4h13.31v6.27Z"/><path fill="#97bdff" d="m563.44,287.22c0,3.25-.54,6.08-1.62,8.5-1.08,2.42-2.56,4.36-4.46,5.82l5.67,4.48-5.23,4.44-7.55-6.08c-.71.1-1.41.14-2.12.14-2.99,0-5.64-.69-7.96-2.07-2.31-1.38-4.12-3.36-5.41-5.93-1.29-2.57-1.97-5.53-2.01-8.87v-1.86c0-3.46.63-6.49,1.89-9.11,1.26-2.62,3.06-4.64,5.4-6.08s5.02-2.15,8.04-2.15,5.63.71,7.96,2.12c2.33,1.41,4.14,3.43,5.44,6.04s1.95,5.61,1.97,8.98v1.62Zm-8.61-1.47c0-3.49-.58-6.14-1.75-7.94-1.17-1.81-2.83-2.71-5-2.71s-3.91.89-5.04,2.68c-1.13,1.78-1.7,4.4-1.71,7.84v1.62c0,3.46.57,6.1,1.71,7.94,1.14,1.84,2.84,2.76,5.09,2.76s3.81-.91,4.95-2.72c1.15-1.82,1.73-4.43,1.75-7.84v-1.62Z"/><path fill="#97bdff" d="m595.29,268.94v22.98c0,2.6-.55,4.86-1.66,6.76-1.11,1.9-2.7,3.36-4.77,4.35-2.07,1-4.52,1.49-7.35,1.49-4.28,0-7.64-1.11-10.1-3.33-2.46-2.22-3.71-5.26-3.76-9.11v-23.14h8.51v23.31c.1,3.84,1.88,5.76,5.35,5.76,1.75,0,3.08-.48,3.98-1.45.9-.96,1.35-2.53,1.35-4.7v-22.93h8.46Z"/><path fill="#97bdff" d="m622.34,289.15h-13.31v8.39h15.72v6.51h-24.18v-35.1h24.23v6.53h-15.77v7.4h13.31v6.27Z"/><path fill="#97bdff" d="m646.31,294.71c0-1.24-.44-2.2-1.31-2.89-.88-.69-2.42-1.41-4.62-2.15-2.2-.74-4-1.45-5.4-2.15-4.55-2.23-6.82-5.3-6.82-9.21,0-1.94.57-3.66,1.7-5.15,1.13-1.49,2.74-2.64,4.81-3.47s4.4-1.24,6.99-1.24,4.79.45,6.79,1.35c2,.9,3.56,2.18,4.66,3.85,1.11,1.66,1.66,3.56,1.66,5.7h-8.44c0-1.43-.44-2.54-1.31-3.33-.88-.79-2.06-1.18-3.56-1.18s-2.7.33-3.58,1c-.88.67-1.31,1.51-1.31,2.54,0,.9.48,1.72,1.45,2.45s2.66,1.49,5.09,2.27c2.43.78,4.42,1.62,5.98,2.52,3.79,2.19,5.69,5.2,5.69,9.04,0,3.07-1.16,5.48-3.47,7.23-2.31,1.75-5.49,2.63-9.52,2.63-2.85,0-5.42-.51-7.73-1.53-2.31-1.02-4.04-2.42-5.21-4.19-1.17-1.78-1.75-3.82-1.75-6.14h8.49c0,1.88.49,3.27,1.46,4.16.97.89,2.55,1.34,4.74,1.34,1.4,0,2.5-.3,3.31-.9s1.22-1.45,1.22-2.54Z"/><path fill="#97bdff" d="m686.67,275.48h-10.54v28.57h-8.46v-28.57h-10.34v-6.53h29.34v6.53Z"/><path fill="#97bdff" d="m735.06,275.48h-10.54v28.57h-8.46v-28.57h-10.34v-6.53h29.34v6.53Z"/><path fill="#97bdff" d="m747.64,304.04h-8.44v-35.1h8.44v35.1Z"/><path fill="#97bdff" d="m764.64,268.94l7.84,24.42,7.81-24.42h11.14v35.1h-8.49v-8.2l.82-16.78-8.49,24.98h-5.59l-8.51-25,.82,16.8v8.2h-8.46v-35.1h11.11Z"/><path fill="#97bdff" d="m818.57,289.15h-13.31v8.39h15.72v6.51h-24.18v-35.1h24.23v6.53h-15.77v7.4h13.31v6.27Z"/><path fill="#97bdff" d="m854.16,287.22c0,3.42-.64,6.45-1.9,9.09-1.27,2.64-3.07,4.66-5.41,6.09-2.34,1.42-5,2.13-7.99,2.13s-5.64-.69-7.96-2.06c-2.31-1.37-4.12-3.34-5.41-5.89-1.29-2.56-1.97-5.49-2.04-8.8v-1.98c0-3.44.63-6.47,1.89-9.1s3.07-4.66,5.42-6.09c2.35-1.43,5.03-2.15,8.04-2.15s5.63.71,7.96,2.12c2.33,1.41,4.14,3.43,5.44,6.04,1.29,2.61,1.95,5.61,1.97,8.98v1.62Zm-8.61-1.47c0-3.49-.58-6.14-1.75-7.94-1.16-1.81-2.83-2.71-5-2.71-4.24,0-6.49,3.18-6.73,9.55l-.02,2.58c0,3.44.57,6.08,1.71,7.93,1.14,1.85,2.84,2.77,5.09,2.77s3.78-.91,4.94-2.72c1.16-1.82,1.74-4.43,1.76-7.84v-1.62Z"/><path fill="#97bdff" d="m886.05,268.94v22.98c0,2.6-.55,4.86-1.66,6.76-1.11,1.9-2.7,3.36-4.77,4.35-2.07,1-4.52,1.49-7.35,1.49-4.28,0-7.64-1.11-10.1-3.33-2.46-2.22-3.71-5.26-3.76-9.11v-23.14h8.51v23.31c.1,3.84,1.88,5.76,5.35,5.76,1.75,0,3.08-.48,3.98-1.45.9-.96,1.35-2.53,1.35-4.7v-22.93h8.46Z"/><path fill="#97bdff" d="m918.89,275.48h-10.54v28.57h-8.46v-28.57h-10.34v-6.53h29.34v6.53Z"/></g><g><path fill="#ffac27" d="m796.8,690.84h-65.35c-6.38,0-10.36-7.56-7.17-13.62l32.68-62.03,32.68-62.03c3.19-6.05,11.16-6.05,14.35,0l32.68,62.03,32.68,62.03c3.19,6.05-.8,13.62-7.17,13.62h-65.35Z"/><path fill="#fff" d="m789.78,654.01c0-2.03.67-3.7,2.01-5s3.01-1.95,5.01-1.95,3.67.65,5.01,1.95c1.34,1.3,2.01,2.97,2.01,5s-.67,3.7-2.01,5c-1.34,1.3-3.01,1.95-5.01,1.95s-3.67-.65-5.01-1.95c-1.34-1.3-2.01-2.97-2.01-5Zm12.24-12.75h-10.25l-1.61-40.93h13.47l-1.61,40.93Z"/></g><g><path fill="#ffac27" d="m559.33,793.98h-47.29c-4.61,0-7.5-5.47-5.19-9.85l23.64-44.88,23.64-44.88c2.31-4.38,8.07-4.38,10.38,0l23.64,44.88,23.64,44.88c2.31,4.38-.58,9.85-5.19,9.85h-47.29Z"/><path fill="#fff" d="m554.25,767.33c0-1.47.48-2.67,1.45-3.62.97-.94,2.18-1.41,3.63-1.41s2.66.47,3.63,1.41c.97.94,1.45,2.15,1.45,3.62s-.49,2.67-1.45,3.62c-.97.94-2.18,1.41-3.63,1.41s-2.66-.47-3.63-1.41c-.97-.94-1.45-2.15-1.45-3.62Zm8.85-9.23h-7.41l-1.17-29.62h9.75l-1.17,29.62Z"/></g><g><path fill="#6b97ed" d="m712.16,465.68h-37.53c-3.66,0-5.95-4.34-4.12-7.82l18.76-35.62,18.76-35.62c1.83-3.48,6.41-3.48,8.24,0l18.76,35.62,18.76,35.62c1.83,3.48-.46,7.82-4.12,7.82h-37.53Z"/><path fill="#fff" d="m708.13,444.53c0-1.17.38-2.12,1.15-2.87s1.73-1.12,2.88-1.12,2.11.37,2.88,1.12c.77.75,1.15,1.7,1.15,2.87s-.39,2.12-1.15,2.87c-.77.75-1.73,1.12-2.88,1.12s-2.11-.37-2.88-1.12c-.77-.75-1.15-1.7-1.15-2.87Zm7.03-7.32h-5.88l-.93-23.51h7.74l-.93,23.51Z"/></g></svg>