<svg xmlns="http://www.w3.org/2000/svg" data-name="Layer 2" viewBox="0 0 1000 1000"><path fill="#bdccf9" d="m404.89,378.77c-40.65-30.72-90.92-42.49-138.91-46.52-46.42-3.9-93.84-.84-135.19,16.71-41.94,17.8-74.83,50.4-96.09,89.72-20.98,38.8-30.02,83.66-27.48,129.5,2.44,44.06,15.19,88.38,35.46,129.4,23.36,47.26,56.63,89.92,94.53,127.53,19.57,19.42,40.41,37.67,62.15,54.65,20.99,16.4,43.41,31.53,67.98,41.39,40.3,16.18,86.25,15.87,121.42-4.28,19.29-11.05,34.32-28.09,43.11-48.46s12.7-44.66,3.67-66.43c-4.71-11.36-12.94-21.15-22.07-29.61-9.88-9.15-20.84-17.19-32.13-24.45-23.38-15.04-48.66-26.49-74.1-36.89-51.22-20.95-105.45-38.31-150.2-73.33-37.6-29.43-70.41-76.75-60.38-123.15,4.26-19.72,16.75-37.52,34.49-46.96,19.13-10.18,41.97-7.29,62.33,3.42,22.75,11.98,42.08,31.2,58.57,50.66,18.18,21.45,33.52,44.95,48.02,68.73,28.78,47.18,54.79,97.41,95.1,136.98,33.73,33.11,80.55,59.28,126.85,56.71,35.64-1.98,65.44-21.61,86.41-47.52,21.63-26.73,35.5-60.31,40.18-95.32,3.01-22.47,2.63-45.83-2.11-68.81-4.97-24.09-15.02-46.65-29.82-67.32-14.38-20.08-31.83-38.31-49.6-55.6-15.84-15.41-32.92-30.08-52.2-40.92-18.09-10.18-37.96-16.28-57.94-15.57-1.68.06-1.36,2.66.32,2.6,43.66-1.57,81.72,29.4,112.2,59.7,17.75,17.65,35.21,36.12,49.08,56.84,14.25,21.29,23.07,44.6,26.93,68.96,6.4,40.38.22,81.19-16.12,116.4-14.31,30.84-36.9,59.02-68.29,73.92-15.44,7.33-32.84,10.92-50.7,10.08-23.19-1.09-46.62-9.28-67.48-21-48.26-27.11-81.11-73.05-109.13-118.84-28.17-46.04-53.54-94.6-91.35-134.51-16.17-17.07-34.94-33.65-56.77-42.63-19.43-7.99-40-8.18-57.11,1.37-16.48,9.19-28.28,25.45-33.38,43.62-5.46,19.46-2.6,41.23,5.37,60.97,18.96,46.94,63.17,79.39,107.48,101.59,49.04,24.56,101.76,39.17,150.24,65.14,12.24,6.56,24.16,13.83,35.41,22.1,10.5,7.72,20.9,16.23,29.11,26.39s13.25,21.6,14.58,34.01c1.3,12.06-.3,24.22-3.57,35.43-6.49,22.22-20.23,41.69-39.08,54.73-16.61,11.49-36.73,18-57.65,19.72-20.79,1.71-42.34-1.19-62.76-8.54-25.23-9.07-48.28-24.03-69.72-40.48-42.96-32.97-82.94-71.09-115.69-114.02-29.85-39.12-53.32-82.6-66.79-128.66-12.71-43.48-16.43-88.98-8.41-131.66,8.4-44.7,29.79-86.18,61.73-117.19,16.09-15.63,34.97-28.48,55.97-37.45,20.62-8.81,42.97-14.06,65.83-16.52,22.57-2.43,45.63-2.23,68.66-.32,24.46,2.03,49.09,6.05,73.02,13.53,22.84,7.13,44.96,17.6,64.43,32.31,1.4,1.06,3.03-.81,1.62-1.88h0Z"/><rect width="416.26" height="965.18" x="395.29" fill="#e7ecff"/><rect width="183.08" height="965.18" x="811.55" fill="#d4deff"/><rect width="258.38" height="100.51" x="416.01" y="33.25" fill="#e7ecff"/><rect width="230.23" height="75.66" x="430.08" y="45.68" fill="#bdccf9"/><rect width="116.45" height="100.51" x="674.39" y="33.25" fill="#d4deff"/><rect width="15.13" height="46.8" x="440.93" y="60.1" fill="#d4deff"/><ellipse cx="477.28" cy="68.49" fill="#d4deff" rx="7.9" ry="8.39"/><ellipse cx="477.28" cy="98.52" fill="#e7ecff" rx="7.9" ry="8.39"/><rect width="14.63" height="46.8" x="507.51" y="60.1" fill="#e7ecff"/><rect width="14.63" height="46.8" x="528.62" y="60.1" fill="#e7ecff"/><rect width="14.63" height="46.8" x="549.74" y="60.1" fill="#e7ecff"/><rect width="14.63" height="46.8" x="570.85" y="60.1" fill="#e7ecff"/><rect width="14.63" height="46.8" x="591.96" y="60.1" fill="#e7ecff"/><rect width="14.63" height="46.8" x="613.08" y="60.1" fill="#e7ecff"/><rect width="14.63" height="46.8" x="634.19" y="60.1" fill="#e7ecff"/><g><rect width="258.38" height="100.51" x="416.01" y="164.46" fill="#e7ecff"/><rect width="230.23" height="75.66" x="430.08" y="176.88" fill="#bdccf9"/><rect width="116.45" height="100.51" x="674.39" y="164.46" fill="#d4deff"/><rect width="15.13" height="46.8" x="440.93" y="191.31" fill="#d4deff"/><ellipse cx="477.28" cy="199.69" fill="#d4deff" rx="7.9" ry="8.39"/><ellipse cx="477.28" cy="229.72" fill="#e7ecff" rx="7.9" ry="8.39"/><g><rect width="14.63" height="46.8" x="507.51" y="191.31" fill="#e7ecff"/><rect width="14.63" height="46.8" x="528.62" y="191.31" fill="#e7ecff"/><rect width="14.63" height="46.8" x="549.74" y="191.31" fill="#e7ecff"/><rect width="14.63" height="46.8" x="570.85" y="191.31" fill="#e7ecff"/><rect width="14.63" height="46.8" x="591.96" y="191.31" fill="#e7ecff"/><rect width="14.63" height="46.8" x="613.08" y="191.31" fill="#e7ecff"/><rect width="14.63" height="46.8" x="634.19" y="191.31" fill="#e7ecff"/></g></g><g><rect width="258.38" height="100.51" x="416.01" y="295.66" fill="#e7ecff"/><rect width="230.23" height="75.66" x="430.08" y="308.08" fill="#bdccf9"/><rect width="116.45" height="100.51" x="674.39" y="295.66" fill="#d4deff"/><rect width="15.13" height="46.8" x="440.93" y="322.51" fill="#d4deff"/><ellipse cx="477.28" cy="330.9" fill="#d4deff" rx="7.9" ry="8.39"/><ellipse cx="477.28" cy="360.92" fill="#e7ecff" rx="7.9" ry="8.39"/><g><rect width="14.63" height="46.8" x="507.51" y="322.51" fill="#e7ecff"/><rect width="14.63" height="46.8" x="528.62" y="322.51" fill="#e7ecff"/><rect width="14.63" height="46.8" x="549.74" y="322.51" fill="#e7ecff"/><rect width="14.63" height="46.8" x="570.85" y="322.51" fill="#e7ecff"/><rect width="14.63" height="46.8" x="591.96" y="322.51" fill="#e7ecff"/><rect width="14.63" height="46.8" x="613.08" y="322.51" fill="#e7ecff"/><rect width="14.63" height="46.8" x="634.19" y="322.51" fill="#e7ecff"/></g></g><g><rect width="258.38" height="100.51" x="416.01" y="426.86" fill="#e7ecff"/><rect width="230.23" height="75.66" x="430.08" y="439.28" fill="#bdccf9"/><rect width="116.45" height="100.51" x="674.39" y="426.86" fill="#d4deff"/><rect width="15.13" height="46.8" x="440.93" y="453.71" fill="#d4deff"/><ellipse cx="477.28" cy="462.1" fill="#d4deff" rx="7.9" ry="8.39"/><ellipse cx="477.28" cy="492.12" fill="#e7ecff" rx="7.9" ry="8.39"/><g><rect width="14.63" height="46.8" x="507.51" y="453.71" fill="#e7ecff"/><rect width="14.63" height="46.8" x="528.62" y="453.71" fill="#e7ecff"/><rect width="14.63" height="46.8" x="549.74" y="453.71" fill="#e7ecff"/><rect width="14.63" height="46.8" x="570.85" y="453.71" fill="#e7ecff"/><rect width="14.63" height="46.8" x="591.96" y="453.71" fill="#e7ecff"/><rect width="14.63" height="46.8" x="613.08" y="453.71" fill="#e7ecff"/><rect width="14.63" height="46.8" x="634.19" y="453.71" fill="#e7ecff"/></g></g><g><rect width="258.38" height="100.51" x="416.01" y="558.06" fill="#e7ecff"/><rect width="230.23" height="75.66" x="430.08" y="570.48" fill="#bdccf9"/><rect width="116.45" height="100.51" x="674.39" y="558.06" fill="#d4deff"/><rect width="15.13" height="46.8" x="440.93" y="584.91" fill="#d4deff"/><ellipse cx="477.28" cy="593.3" fill="#d4deff" rx="7.9" ry="8.39"/><ellipse cx="477.28" cy="623.33" fill="#e7ecff" rx="7.9" ry="8.39"/><g><rect width="14.63" height="46.8" x="507.51" y="584.91" fill="#e7ecff"/><rect width="14.63" height="46.8" x="528.62" y="584.91" fill="#e7ecff"/><rect width="14.63" height="46.8" x="549.74" y="584.91" fill="#e7ecff"/><rect width="14.63" height="46.8" x="570.85" y="584.91" fill="#e7ecff"/><rect width="14.63" height="46.8" x="591.96" y="584.91" fill="#e7ecff"/><rect width="14.63" height="46.8" x="613.08" y="584.91" fill="#e7ecff"/><rect width="14.63" height="46.8" x="634.19" y="584.91" fill="#e7ecff"/></g></g><g><rect width="258.38" height="100.51" x="416.01" y="689.26" fill="#e7ecff"/><rect width="230.23" height="75.66" x="430.08" y="701.68" fill="#bdccf9"/><rect width="116.45" height="100.51" x="674.39" y="689.26" fill="#d4deff"/><rect width="15.13" height="46.8" x="440.93" y="716.11" fill="#d4deff"/><ellipse cx="477.28" cy="724.5" fill="#d4deff" rx="7.9" ry="8.39"/><ellipse cx="477.28" cy="754.53" fill="#e7ecff" rx="7.9" ry="8.39"/><g><rect width="14.63" height="46.8" x="507.51" y="716.11" fill="#e7ecff"/><rect width="14.63" height="46.8" x="528.62" y="716.11" fill="#e7ecff"/><rect width="14.63" height="46.8" x="549.74" y="716.11" fill="#e7ecff"/><rect width="14.63" height="46.8" x="570.85" y="716.11" fill="#e7ecff"/><rect width="14.63" height="46.8" x="591.96" y="716.11" fill="#e7ecff"/><rect width="14.63" height="46.8" x="613.08" y="716.11" fill="#e7ecff"/><rect width="14.63" height="46.8" x="634.19" y="716.11" fill="#e7ecff"/></g></g><g><rect width="258.38" height="100.51" x="416.01" y="820.46" fill="#e7ecff"/><rect width="230.23" height="75.66" x="430.08" y="832.89" fill="#bdccf9"/><rect width="116.45" height="100.51" x="674.39" y="820.46" fill="#d4deff"/><rect width="15.13" height="46.8" x="440.93" y="847.31" fill="#d4deff"/><ellipse cx="477.28" cy="855.7" fill="#d4deff" rx="7.9" ry="8.39"/><ellipse cx="477.28" cy="885.73" fill="#e7ecff" rx="7.9" ry="8.39"/><g><rect width="14.63" height="46.8" x="507.51" y="847.31" fill="#e7ecff"/><rect width="14.63" height="46.8" x="528.62" y="847.31" fill="#e7ecff"/><rect width="14.63" height="46.8" x="549.74" y="847.31" fill="#e7ecff"/><rect width="14.63" height="46.8" x="570.85" y="847.31" fill="#e7ecff"/><rect width="14.63" height="46.8" x="591.96" y="847.31" fill="#e7ecff"/><rect width="14.63" height="46.8" x="613.08" y="847.31" fill="#e7ecff"/><rect width="14.63" height="46.8" x="634.19" y="847.31" fill="#e7ecff"/></g></g><g><rect width="83.46" height="102.75" x="710.57" y="666.47" fill="#5f6bc1"/><rect width="145.69" height="24.6" x="679.46" y="769.22" fill="#121863"/><rect width="83.46" height="58.13" x="710.57" y="654.16" fill="#3c4da5"/><path fill="#3c4da5" d="m933.21,698.3h-366.42c-12.05,0-20.62-9.77-19.14-21.82l30.39-247.48c1.48-12.05,12.45-21.82,24.49-21.82h366.42c12.05,0,20.62,9.77,19.14,21.82l-30.39,247.48c-1.48,12.05-12.45,21.82-24.49,21.82Z"/><path fill="#121863" d="m917.64,698.3h-366.42c-12.05,0-20.62-9.77-19.14-21.82l30.39-247.48c1.48-12.05,12.45-21.82,24.49-21.82h366.42c12.05,0,20.62,9.77,19.14,21.82l-30.39,247.48c-1.48,12.05-12.45,21.82-24.49,21.82Z"/><path fill="#fff" d="m551.1,644.73l25.41-206.96c1.05-8.54,8.82-15.46,17.36-15.46h348.89c8.54,0,14.61,6.92,13.57,15.46l-25.41,206.96c-1.05,8.54-8.82,15.46-17.36,15.46h-348.89c-8.54,0-14.61-6.92-13.57-15.46Z"/><path fill="#ef5277" d="m645.75,509.92l11.76-48.15,55.02.1-2.11,16.94-37.3-.07-4.47,18.7c1.67-.91,3.8-1.7,6.41-2.39,2.61-.69,5.12-1.03,7.53-1.03,9.35.02,16.19,2.8,20.52,8.35,4.33,5.55,5.87,13.32,4.63,23.33-.75,6.04-2.78,11.5-6.08,16.38-3.3,4.89-7.56,8.64-12.75,11.26-5.2,2.62-11.12,3.92-17.75,3.91-5.91-.01-11.29-1.24-16.16-3.68-4.87-2.44-8.5-5.79-10.91-10.04-2.4-4.25-3.25-9.04-2.54-14.38l21.85.04c-.21,3.44.54,6.18,2.28,8.2,1.73,2.03,4.21,3.04,7.44,3.05,7.33.01,11.67-5.4,13.02-16.24,1.25-10.02-2.61-15.04-11.57-15.06-5.09,0-9.08,1.62-11.99,4.88l-16.82-4.11Z"/><path fill="#ef5277" d="m785.55,517.7c-1.59,12.72-5.66,22.52-12.23,29.41-6.57,6.89-15.05,10.32-25.44,10.3-10.47-.02-18.14-3.5-23.01-10.46-4.87-6.95-6.51-16.74-4.94-29.37l2.14-17.2c1.59-12.72,5.66-22.52,12.23-29.41,6.57-6.89,15.07-10.32,25.5-10.3,10.43.02,18.08,3.51,22.95,10.46,4.87,6.95,6.51,16.76,4.93,29.44l-2.14,17.14Zm-19.3-20.02c.84-6.77.59-11.82-.76-15.17-1.35-3.34-3.94-5.02-7.78-5.03-3.75,0-6.67,1.54-8.76,4.64-2.09,3.1-3.59,7.8-4.51,14.09l-3,24.06c-.88,7.03-.63,12.17.73,15.43,1.36,3.26,3.96,4.89,7.8,4.9,3.71,0,6.64-1.57,8.8-4.74,2.16-3.17,3.69-8.13,4.57-14.9l2.9-23.28Z"/><path fill="#ef5277" d="m862.23,517.84c-1.59,12.72-5.66,22.52-12.23,29.41-6.57,6.89-15.05,10.32-25.44,10.3-10.47-.02-18.14-3.5-23.01-10.46-4.87-6.95-6.51-16.74-4.94-29.37l2.14-17.2c1.59-12.72,5.66-22.52,12.23-29.41,6.57-6.89,15.07-10.32,25.5-10.3,10.43.02,18.08,3.51,22.95,10.46,4.87,6.95,6.51,16.76,4.93,29.44l-2.14,17.14Zm-19.3-20.02c.84-6.77.59-11.82-.76-15.17-1.35-3.34-3.94-5.02-7.78-5.03-3.75,0-6.67,1.54-8.76,4.64-2.09,3.1-3.59,7.8-4.51,14.09l-3,24.06c-.88,7.03-.63,12.17.73,15.43,1.36,3.26,3.96,4.89,7.8,4.9,3.71,0,6.64-1.57,8.8-4.74,2.16-3.16,3.69-8.13,4.57-14.9l2.9-23.28Z"/><path fill="#bdccf9" d="m647.42,589.14h-3.95l2.02-16.43h3.95l-2.02,16.43Z"/><path fill="#bdccf9" d="m663.9,589.14h-3.94l-4.57-10.22-1.26,10.22h-3.96l2.02-16.43h3.96l4.56,10.22,1.26-10.22h3.95l-2.02,16.43Z"/><path fill="#bdccf9" d="m680.61,575.77h-4.93l-1.64,13.37h-3.96l1.64-13.37h-4.84l.38-3.06h13.73l-.38,3.06Z"/><path fill="#bdccf9" d="m691.68,582.17h-6.23l-.48,3.93h7.36l-.37,3.05h-11.32l2.02-16.43h11.34l-.38,3.06h-7.38l-.43,3.46h6.23l-.36,2.93Z"/><path fill="#bdccf9" d="m700.39,583.33h-2.14l-.71,5.81h-3.96l2.02-16.43h6.47c1.95,0,3.42.43,4.41,1.3.99.86,1.39,2.09,1.2,3.66-.14,1.14-.49,2.09-1.04,2.84s-1.35,1.36-2.4,1.83l2.62,6.63-.02.17h-4.24l-2.19-5.81Zm-1.77-3.05h2.5c.75,0,1.34-.2,1.77-.59s.69-.95.77-1.66-.04-1.26-.37-1.67-.87-.61-1.62-.61h-2.5l-.56,4.52Z"/><path fill="#bdccf9" d="m722.36,589.14h-3.94l-4.57-10.22-1.26,10.22h-3.96l2.02-16.43h3.96l4.56,10.22,1.26-10.22h3.95l-2.02,16.43Z"/><path fill="#bdccf9" d="m734.78,586.07h-5.43l-1.32,3.07h-4.23l8.04-16.43h3.72l4.05,16.43h-4.25l-.58-3.07Zm-4.1-3.06h3.53l-1.07-5.7-2.46,5.7Z"/><path fill="#bdccf9" d="m745.14,586.1h6.89l-.37,3.05h-10.85l2.02-16.43h3.96l-1.64,13.38Z"/><path fill="#bdccf9" d="m769.89,584.55c.07-.58-.08-1.03-.45-1.35s-1.05-.66-2.04-1c-.99-.35-1.79-.68-2.4-1-2-1.05-2.89-2.48-2.66-4.31.11-.91.48-1.71,1.09-2.41.62-.7,1.43-1.24,2.45-1.62,1.02-.39,2.13-.58,3.34-.58s2.21.21,3.1.63c.88.42,1.54,1.02,1.96,1.8.42.78.57,1.67.45,2.67h-3.95c.08-.67-.06-1.19-.42-1.56-.36-.37-.9-.55-1.6-.55s-1.28.16-1.73.47c-.45.31-.7.71-.76,1.19-.05.42.13.8.54,1.15s1.16.7,2.25,1.06c1.09.37,1.98.76,2.65,1.18,1.65,1.02,2.36,2.43,2.14,4.23-.18,1.44-.86,2.56-2.04,3.38-1.18.82-2.72,1.23-4.61,1.23-1.33,0-2.51-.24-3.53-.72-1.02-.48-1.75-1.13-2.2-1.96-.44-.83-.6-1.79-.47-2.87h3.97c-.11.88.04,1.53.44,1.95.4.42,1.12.63,2.14.63.65,0,1.19-.14,1.6-.42.41-.28.65-.68.72-1.19Z"/><path fill="#bdccf9" d="m786.39,581.94h-6.23l-.48,3.93h7.36l-.37,3.05h-11.32l2.02-16.43h11.34l-.38,3.06h-7.38l-.43,3.46h6.23l-.36,2.93Z"/><path fill="#bdccf9" d="m795.1,583.11h-2.14l-.71,5.81h-3.96l2.02-16.43h6.47c1.95,0,3.42.43,4.41,1.3.99.86,1.39,2.09,1.2,3.66-.14,1.14-.49,2.09-1.04,2.84s-1.35,1.36-2.4,1.83l2.62,6.63-.02.17h-4.24l-2.19-5.81Zm-1.77-3.05h2.5c.75,0,1.34-.2,1.77-.59s.69-.95.77-1.66-.04-1.26-.37-1.67-.87-.61-1.62-.61h-2.5l-.56,4.52Z"/><path fill="#bdccf9" d="m810.06,584.45l4.74-11.96h4.42l-7.55,16.43h-4.33l-3.47-16.43h4.39l1.79,11.96Z"/><path fill="#bdccf9" d="m829.45,581.94h-6.23l-.48,3.93h7.36l-.37,3.05h-11.32l2.02-16.43h11.34l-.38,3.06h-7.38l-.43,3.46h6.23l-.36,2.93Z"/><path fill="#bdccf9" d="m838.15,583.11h-2.14l-.71,5.81h-3.96l2.02-16.43h6.47c1.95,0,3.42.43,4.41,1.3.99.86,1.39,2.09,1.2,3.66-.14,1.14-.49,2.09-1.04,2.84s-1.35,1.36-2.4,1.83l2.62,6.63-.02.17h-4.24l-2.19-5.81Zm-1.77-3.05h2.5c.75,0,1.34-.2,1.77-.59s.69-.95.77-1.66-.04-1.26-.37-1.67-.87-.61-1.62-.61h-2.5l-.56,4.52Z"/><g><path fill="#bdccf9" d="m703.37,615.2h-8.92l-.69,5.62h10.54l-.54,4.36h-16.21l2.89-23.53h16.24l-.54,4.38h-10.57l-.61,4.96h8.92l-.52,4.2Z"/><path fill="#bdccf9" d="m715.83,616.87h-3.07l-1.02,8.32h-5.67l2.89-23.53h9.26c2.79,0,4.9.62,6.32,1.86,1.42,1.24,1.99,2.99,1.72,5.25-.2,1.64-.7,2.99-1.49,4.07-.79,1.08-1.94,1.95-3.43,2.61l3.75,9.5-.03.24h-6.08l-3.13-8.32Zm-2.53-4.36h3.59c1.08,0,1.92-.28,2.54-.85.61-.57.98-1.36,1.11-2.37s-.05-1.81-.53-2.39c-.48-.58-1.25-.87-2.32-.87h-3.59l-.8,6.48Z"/><path fill="#bdccf9" d="m737.42,616.87h-3.07l-1.02,8.32h-5.67l2.89-23.53h9.26c2.79,0,4.9.62,6.32,1.86,1.42,1.24,1.99,2.99,1.72,5.25-.2,1.64-.7,2.99-1.49,4.07-.79,1.08-1.94,1.95-3.43,2.61l3.75,9.5-.03.24h-6.08l-3.13-8.32Zm-2.53-4.36h3.59c1.08,0,1.92-.28,2.54-.85.61-.57.98-1.36,1.11-2.37s-.05-1.81-.53-2.39c-.48-.58-1.25-.87-2.32-.87h-3.59l-.8,6.48Z"/><path fill="#bdccf9" d="m770.55,613.91c-.28,2.29-.96,4.33-2.02,6.09s-2.44,3.13-4.13,4.08c-1.68.95-3.53,1.43-5.53,1.43s-3.72-.46-5.16-1.38c-1.44-.92-2.49-2.24-3.14-3.95-.66-1.71-.87-3.68-.64-5.9l.16-1.33c.28-2.31.96-4.34,2.02-6.1,1.06-1.76,2.44-3.12,4.14-4.08,1.7-.96,3.55-1.44,5.57-1.44s3.71.47,5.16,1.42c1.45.95,2.49,2.3,3.15,4.05.65,1.75.84,3.76.58,6.02l-.13,1.08Zm-5.65-.99c.29-2.34.11-4.11-.52-5.32-.63-1.21-1.68-1.82-3.13-1.82-2.84,0-4.61,2.13-5.29,6.4l-.23,1.73c-.28,2.31-.12,4.08.49,5.32.61,1.24,1.67,1.86,3.18,1.86s2.61-.61,3.54-1.83c.93-1.22,1.53-2.97,1.82-5.25l.13-1.08Z"/><path fill="#bdccf9" d="m781.86,616.87h-3.07l-1.02,8.32h-5.67l2.89-23.53h9.26c2.79,0,4.9.62,6.32,1.86,1.42,1.24,1.99,2.99,1.72,5.25-.2,1.64-.7,2.99-1.49,4.07-.79,1.08-1.94,1.95-3.43,2.61l3.75,9.5-.03.24h-6.08l-3.13-8.32Zm-2.53-4.36h3.59c1.08,0,1.92-.28,2.54-.85.61-.57.98-1.36,1.11-2.37s-.05-1.81-.53-2.39c-.48-.58-1.25-.87-2.32-.87h-3.59l-.8,6.48Z"/></g><g><path fill="#ff7489" d="m858.23,623.99c-2.42,0-4.44-1.25-5.39-3.35s-.65-4.61.82-6.7l26.25-37.49c1.47-2.1,3.79-3.35,6.22-3.35s4.44,1.25,5.39,3.35l17.04,37.49c.95,2.1.65,4.61-.82,6.7-1.47,2.1-3.79,3.35-6.22,3.35h-43.3Z"/><path fill="#fff" d="m878.9,610.47c.09-.69.41-1.26.96-1.71.56-.45,1.21-.67,1.96-.67s1.35.22,1.8.67c.45.45.63,1.02.54,1.71s-.41,1.26-.96,1.71c-.56.45-1.21.67-1.96.67s-1.35-.22-1.8-.67c-.45-.45-.63-1.02-.54-1.71Zm5.12-4.36h-3.84l1.11-14h5.05l-2.32,14Z"/></g><g><path fill="#ff7489" d="m582.81,623.99c-2.42,0-4.44-1.25-5.39-3.35s-.65-4.61.82-6.7l26.25-37.49c1.47-2.1,3.79-3.35,6.22-3.35s4.44,1.25,5.39,3.35l17.04,37.49c.95,2.1.65,4.61-.82,6.7-1.47,2.1-3.79,3.35-6.22,3.35h-43.3Z"/><path fill="#fff" d="m603.48,610.47c.09-.69.41-1.26.96-1.71.56-.45,1.21-.67,1.96-.67s1.35.22,1.8.67c.45.45.63,1.02.54,1.71s-.41,1.26-.96,1.71c-.56.45-1.21.67-1.96.67s-1.35-.22-1.8-.67c-.45-.45-.63-1.02-.54-1.71Zm5.12-4.36h-3.84l1.11-14h5.05l-2.32,14Z"/></g></g><g><path fill="#ffc7d2" d="m533.6,241.61s-18.63-61.33-25.54-66.86-64.18-14.29-64.18-14.29l-3.15,49.34s5.07,29.52,11.99,33.66,47.03,13.81,47.03,13.81l33.84-15.65Z"/><path fill="#d4deff" d="m417.2,403.69s135.35-41.44,136.74-57.38c1.38-15.94-71.93-83.63-67.78-90.24s40.12-39.82,48.42-36.36,99.6,97.52,109.97,118.27c10.37,20.75,2.77,50.42,2.77,50.42,0,0-133.49,139.79-141.1,148.78-7.61,8.99-18.67,58.24-18.67,58.24l-70.34-191.73Z"/><path fill="#fff" d="m421.48,405.81c9.36-2.92,37.12-11.72,64.7-21.74,69.99-25.42,70.7-33.56,71.04-37.47.83-9.55-15.91-28.98-41.53-57.54-11.03-12.29-24.65-27.47-26.27-31.92,5.49-7.42,35.5-34.4,43.74-34.4.14,0,.2.01.2.01,8.59,4.08,98.2,96.58,108.25,116.69,8.77,17.55,3.79,42.53,2.71,47.32-11.04,11.56-133.21,139.54-140.61,148.28-5.86,6.93-13.05,33.58-16.85,48.97l-65.38-178.22Z"/><path fill="#ffc7d2" d="m427.27,446.88s-20.52,57.54-81.74,60.21c-61.2,2.7-76.55-105.55-76.55-105.55,0,0,26.89-23.37,32.96-51.87,1.5-7.07,1.72-14.82,1.23-22.43-1.53-23.1-9.83-45.18-9.83-45.18l89.26,11.43s-.32,2.92-2.28,52.35c-.47,11.89,2,23.91,6.05,35.32,12.7,35.96,40.9,65.73,40.9,65.73Z"/><path fill="#f47382" d="m386.37,381.15c-6.66,13.21-13.29,25.31-16.25,27.54-7.03,5.29-34.02-16.58-52.94-48.49-5.48-9.27-10.17-20.99-14.01-32.97-1.53-23.1-9.83-45.18-9.83-45.18l89.26,11.43s-.32,2.92-2.28,52.35c-.47,11.89,2,23.91,6.05,35.32Z"/><path fill="#121863" d="m272.11,230c.16,4.26.53,8.3,1.11,12.14,1.18,7.94,3.23,15,5.85,21.26,14.82,35.69,48,46.02,48,46.02l34.84-11.58,96.59-32.08s4.55-6.76,9.09-17.61c6.51-15.6,12.95-39.68,5.62-64.23-12.44-41.63-58.59-63.08-109.86-56.7-51.3,6.4-93.43,39.76-91.23,102.78Z"/><path fill="#121863" d="m273.22,242.14c1.18,7.94,3.23,15,5.85,21.26,14.82,35.69,48,46.02,48,46.02l34.84-11.58s-.05-.09-.07-.12c-22.52-45.01-38.27-60.03-38.27-60.03,0,0-16.59-1.6-35.27,1.18-4.97.73-10.1,1.77-15.09,3.26Z"/><path fill="#ffc7d2" d="m447.6,360.11c-15.93,27.67-29.58,29.89-44.07,29.45-14.48-.43-24.98-4.17-30.06-5.27h-.02c-16.49-7.01-33.46-16.67-40.83-25.33-11.15-13.04-21.62-44.25-22.64-47.39-.05-.17-.08-.24-.08-.24,0,0-34,6.87-39.92-10.93-5.86-17.82,2.94-28.21,12.92-32.4,10.04-4.14,26.65-2.51,28.57.86,1.89,3.31,3.1,20.12,5.65,21,2.51.92,5.67,1.19,6.93-.63.52-.72.51-8.69.38-18.41-.36-4.62-.36-10.07-.3-14.85-.19-7.55-.4-14.46-.53-18.3,0,0,14.85,5.07,41.08-1.38,26.22-6.45,44.18-15.93,44.18-15.93,0,0,40.94,9.96,57.93,2.11,0,0,1.76,32.15.15,41.92-1.62,9.81-4.18,16.45-2.9,24.96.41,2.64.74,6.16.82,10.45,0,0,0,.03,0,.1-.08,1.93-1.79,33.39-17.23,60.2Z"/><path fill="#f47382" d="m293.84,306.08c5.51.5,7.39-1.88,8.02-3.36.95-2.22.15-4.82-2.03-6.64l-.62-.51c-3.45-2.82-3.25-3.38-2.48-4.41.57-.76.95-.89,1-.89.26.02.89.55,1.23,1.23.81,1.62,1.13,2.84,1.14,2.85.38,1.48,1.89,2.37,3.36,1.99,1.48-.37,2.37-1.87,2-3.34-.05-.18-.47-1.82-1.56-3.99-.91-1.81-2.94-4.01-5.67-4.26h0c-1.53-.14-3.8.28-5.9,3.06-4.34,5.72,1.08,10.14,3.39,12.03l.58.47c.07.06.13.12.18.17-.42.1-1.18.19-2.42.05-2.4-.27-8.22-5.03-10.21-11.12-1.42-4.35-.48-8.09,2.81-11.11,2.34-2.15,4.61-3.03,6.96-2.67,5.54.82,9.97,8.09,10.01,8.16.77,1.32,2.47,1.75,3.79.98,1.32-.78,1.75-2.47.98-3.79-.23-.39-5.75-9.61-13.96-10.83-4.07-.6-7.92.77-11.51,4.07-4.88,4.49-6.42,10.49-4.33,16.9,2.57,7.86,9.96,14.35,14.85,14.89.13.02.27.03.4.04Z"/><ellipse cx="388.35" cy="271.11" fill="#121863" rx="9.78" ry="6.43" transform="rotate(-79.83 388.367 271.103)"/><ellipse cx="443.88" cy="277.18" fill="#121863" rx="8.69" ry="5.89" transform="rotate(-79.82 443.861 277.186)"/><ellipse cx="391.73" cy="267.64" fill="#fff" rx="4.29" ry="2.73" transform="rotate(-79.85 391.714 267.642)"/><ellipse cx="447.49" cy="274.98" fill="#fff" rx="4.29" ry="2.73" transform="rotate(-79.85 447.467 274.985)"/><path fill="#f47382" d="m417.39,320.67c3.85.35,11.55.37,15.35-4.33,5.21-6.45.37-11.47-4.31-16.33l-1.31-1.37c-3.41-3.59-1.46-11.09-.41-13.67.57-1.41-.11-3.03-1.53-3.6-1.41-.57-3.02.1-3.6,1.52-.21.51-5.05,12.65,1.53,19.56l1.34,1.39c5.39,5.6,5.87,6.69,3.99,9.02-2.43,3-9.88,2.49-12.29,2.08-1.46-.27-2.93.75-3.19,2.25-.26,1.5.75,2.93,2.25,3.19.29.05,1.08.18,2.19.28Z"/><path fill="#121863" d="m380.07,253.45c.64.06,1.31-.11,1.87-.52,5.68-4.12,14.28-1.56,14.37-1.53,1.44.45,3-.37,3.46-1.83.45-1.46-.36-3-1.82-3.45-.46-.14-11.31-3.43-19.26,2.34-1.23.9-1.51,2.63-.61,3.86.49.67,1.22,1.06,1.99,1.13Z"/><path fill="#121863" d="m455.99,262.22c.41.04.84-.02,1.25-.18,1.41-.55,2.12-2.13,1.58-3.54-1.42-3.74-6.94-10.27-17.68-8.2-1.5.29-2.48,1.74-2.19,3.24.29,1.5,1.74,2.48,3.24,2.19,8.6-1.65,11.21,4.1,11.48,4.76.41,1,1.33,1.64,2.33,1.73Z"/><path fill="#121863" d="m324.49,279.43s2.15,22.68,3.81,23.96,20.1,14.91,49.62,12.62,37.67,12.03,37.67,12.03c0,0,12.54-3.97,21.43-2.57,8.89,1.4,23.08,3.52,22.05,6.95-1.03,3.44-3.43,39.33-32.45,52.01-29.02,12.68-83.71-7.04-100.26-31.72-16.55-24.68-22.46-40.52-22.46-40.52,0,0,4.79-.45,7.24-4.94s.3-38.39.3-38.39l13.03,10.56Z"/><path fill="#b53043" d="m432.3,354.24c-1.59,4.34-8.02,3.21-14.33.15-5.81-2.81-14.88-.37-22.04-3.26-.59-.24-1.18-.51-1.75-.83-3.68-2.08-5.01-4.2-5.28-5.99-.29-1.96.83-3.88,2.58-4.82,3.41-1.84,12.52-5.77,24.09-3.03,11.15,2.64,15.91,8.95,16.88,13.75.32,1.56.23,2.97-.16,4.03Z"/><path fill="#f47382" d="m432.3,354.24c-1.59,4.34-8.02,3.21-14.33.15-5.81-2.81-14.88-.37-22.04-3.26,6.13-4.06,15.19-5.93,24.86-4.45,4.24.65,8.19,1.87,11.67,3.53.32,1.56.23,2.97-.16,4.03Z"/><path fill="#fff" d="m306.64,267.22c.12.9.9,1.54,1.79,1.52.06,0,.13,0,.2-.02l46.42-6.35c-1.87,4.19-2.86,8.84-2.73,13.73.45,17.55,15.09,31.45,32.64,31,17.55-.45,31.45-15.09,31-32.64-.03-1.27-.15-2.51-.32-3.73,5.75-2.8,9.77-1.6,11.56-.69-1.3,3.4-1.98,7.15-1.88,11.08.38,14.75,11.57,26.48,24.94,26.13,13.37-.34,23.95-12.62,23.57-27.38-.38-14.75-11.57-26.48-24.94-26.13-8.66.22-16.13,5.45-20.23,13.11-2.46-1.21-7.25-2.55-13.74.32-3.67-13.95-16.56-24.1-31.59-23.71-11.12.29-20.77,6.27-26.24,15.08l-48.93,6.69c-.96.13-1.64,1.02-1.5,1.98Zm122.18,13.82c-.33-12.81,8.71-23.48,20.14-23.77,11.44-.29,21.01,9.89,21.33,22.71.33,12.81-8.71,23.48-20.14,23.77-11.44.29-21.01-9.89-21.33-22.71Zm-73-5.02c-.4-15.61,11.97-28.63,27.58-29.03,15.61-.4,28.63,11.97,29.03,27.58.4,15.61-11.97,28.63-27.58,29.03-15.61.4-28.63-11.97-29.03-27.58Z"/><path fill="#121863" d="m502.15,780.79s21.41,58.45,24.87,113.98c3.45,55.53,6.91,66.49,0,71.6-6.91,5.11-111.21,34.34-226.56,33.61-115.35-.73-122.26-7.07-125.71-26.07-3.45-19-2.08-114.63,24.17-159.72,26.25-45.09,303.24-33.4,303.24-33.4Z"/><path fill="#d4deff" d="m522.65,863.9c-13.43,23.19-98.22,46.38-208.03,33.37-109.81-13.01-138.48-30.54-138.48-50.35s17.69-152.16,17.69-159.51-31.38-239.8-31.38-239.8c0,0-26.3-80.92,13.16-66.76,53.95,19.37,117.46-1.72,117.46-1.72l86.22,32.05,31.72-10.93s12.34,2.93,26.67,8.46h0c5.39,6.27,17.5,21.54,22.75,37.92,5.41,16.9,21.99,117.99,30.44,168.77l-.55.93s2.03,9.97,5.12,25.92c.04.16.06.32.09.46,11.59,60,37.69,202.92,27.13,221.18Z"/><path fill="#fff" d="m377.02,897.74c-20.27,0-41.13-1.25-62.02-3.73-92.5-10.96-135.58-25.92-135.58-47.08,0-12.1,6.92-68.62,11.98-109.88,3.65-29.79,5.71-46.78,5.71-49.63,0-7.37-28.19-216.43-31.41-240.24l-.04-.29-.09-.28c-4.23-13.04-13.39-49.39-5.05-60.87,1.61-2.22,3.77-3.25,6.79-3.25,2.05,0,4.47.49,7.19,1.47,15.48,5.56,33.18,8.38,52.6,8.38,32.78,0,60.04-7.9,65.88-9.72l86.26,32.07,31.92-11c3.02.76,19.4,1.44,30.82,5.8,5.23,6.15,17.07,21.66,22,37.06,4.93,15.4,12.86,104.53,21.6,157.12l1.85,11.11-.59.99.25,1.24c.02.1,2.06,10.14,5.11,25.89l.09.46c24.16,125.1,34.44,206.94,27.51,218.92-10.1,17.44-66.27,35.48-142.78,35.48Z"/><path fill="#ce3467" d="m397.58,451.94s7.32,93.59,9.76,134.58c2.44,40.99,19.12,255.63,19.12,255.63l-43.52,47.57-54.91-60.33s37.93-171.32,42.76-259.11c4.83-87.79,1.58-101.72,1.58-101.72l25.22-16.62Z"/><path fill="#ef5277" d="m358.13,426.52s11.79,45.14,16.47,45.14,23.59-.61,24.81-5.69c1.22-5.08,11.18-36.4,4.47-47.58-6.71-11.18-26.44-12.4-37.21-6.51-10.78,5.9-8.54,14.64-8.54,14.64Z"/><path fill="#d4deff" d="m242.62,525.04s-3.08,34.1,5.48,51.46c8.56,17.36,22.95,26.66,39.39,26.04s35.62-15.81,38.36-24.8c2.74-8.99,3.43-61.69-1.03-62.31-4.45-.62-18.5,4.03-46.58.62-28.09-3.41-35.09-6.2-35.62,8.99Z"/><g><path fill="#aac1f7" d="m208.17,690.96c8.01,14.12,16.99,27.69,26.88,40.57s20.61,25.06,32.16,36.46c6.55,6.46,13.35,12.65,20.38,18.57,1.47,1.24,3.6-.88,2.12-2.12-12.36-10.41-24.01-21.67-34.82-33.69-10.77-11.98-20.71-24.69-29.73-38.04-5.1-7.56-9.91-15.32-14.41-23.26-.95-1.68-3.54-.17-2.59,1.51h0Z"/><path fill="#aac1f7" d="m217.74,744.01c1.02,2.75,2.03,5.49,3.05,8.24.27.73,1.03,1.31,1.85,1.05.72-.23,1.34-1.06,1.05-1.85-1.02-2.75-2.03-5.49-3.05-8.24-.27-.73-1.03-1.31-1.85-1.05-.72.23-1.34,1.06-1.05,1.85h0Z"/><path fill="#aac1f7" d="m200.88,839.66c.06,0,.13.02.2.02-.07,0-.31-.05-.11-.01.15.02.29.05.44.08.27.05.54.12.81.2s.53.17.79.27c.04.02.26.11.05.02s0,0,.05.02c.13.06.27.12.4.19.49.25.93.54,1.38.85.16.11-.29-.23-.03-.03.05.04.1.08.15.12.1.08.2.17.3.26.22.2.43.41.63.62.53.58,1.59.58,2.12,0,.57-.62.57-1.5,0-2.12-1.87-2.03-4.44-3.22-7.16-3.5-.78-.08-1.53.75-1.5,1.5.04.88.66,1.41,1.5,1.5h0Z"/><path fill="#aac1f7" d="m221.9,850.38c16.42,5.09,32.97,9.74,49.64,13.95,4.76,1.2,9.53,2.37,14.31,3.5,1.88.44,2.68-2.45.8-2.89-16.73-3.96-33.35-8.36-49.85-13.2-4.71-1.38-9.41-2.8-14.11-4.26-1.85-.57-2.64,2.32-.8,2.89h0Z"/><path fill="#aac1f7" d="m419.72,875.79c22.2-4.91,44.17-10.83,65.82-17.77,6.14-1.97,12.26-4.01,18.35-6.14,1.81-.63,1.03-3.53-.8-2.89-21.47,7.49-43.27,14-65.34,19.48-6.26,1.56-12.54,3.03-18.84,4.42-1.88.42-1.09,3.31.8,2.89h0Z"/><path fill="#aac1f7" d="m279.06,403.94c1.88,3.56,4.35,6.81,7.28,9.57.57.54,1.56.61,2.12,0s.61-1.55,0-2.12c-2.83-2.67-4.99-5.51-6.81-8.97-.37-.7-1.39-.96-2.05-.54-.71.46-.93,1.31-.54,2.05h0Z"/><path fill="#aac1f7" d="m302.22,426.51c5.16,4.73,10.32,9.47,15.48,14.2,1.42,1.3,3.55-.81,2.12-2.12-5.16-4.73-10.32-9.47-15.48-14.2-1.42-1.3-3.55.81-2.12,2.12h0Z"/></g><path fill="#d4deff" d="m278.52,384.26s14.68-18.86,17.58-18.4c2.9.46,83.49,41.8,85.01,40.58s6.26-19.88,10.22-16.83c3.97,3.05,25.87,14.08,25.87,14.08,0,0-8.13,33.2-13.32,33.2s-21.74-24.25-21.74-24.25c0,0-15.06,31.19-22.38,30.12-7.32-1.07-66.14-34.25-81.24-58.5Z"/><g><path fill="#546489" d="m420.63,909.1c-27.65,9.58-55.29,19.15-82.94,28.73-7.85,2.72-15.71,5.44-23.56,8.16-1.81.63-1.03,3.53.8,2.89,27.65-9.58,55.29-19.15,82.94-28.73,7.85-2.72,15.71-5.44,23.56-8.16,1.81-.63,1.03-3.53-.8-2.89h0Z"/><path fill="#546489" d="m343.8,948.67c16.68,1.33,33.41,2.07,50.14,2.2,4.8.04,9.61.02,14.41-.04,1.93-.02,1.93-3.02,0-3-16.73.21-33.47-.17-50.17-1.16-4.8-.28-9.59-.62-14.38-1-1.92-.15-1.91,2.85,0,3h0Z"/><path fill="#546489" d="m369.75,950.84c-5.02,12.77-9.49,25.74-13.41,38.88-.55,1.85,2.34,2.65,2.89.8,3.92-13.14,8.39-26.12,13.41-38.88.71-1.8-2.19-2.58-2.89-.8h0Z"/></g><path fill="#ffc7d2" d="m182.41,194.07s25.97-15.3,39.3-28.17c13.33-12.87,30.99-34.29,34.64-35.86s8.88-.42,8.88-.42c0,0,7.36-7.75,10.94-8.19s7.19.75,7.19.75c0,0,4.19-5.36,8.71-3.24s7.56,5.46,7.56,5.46c0,0,8.07-.82,17.28,1.01s11.17,1.43,11.13,4.19,1.41,9.25,0,9.34-13.95,8.91-13.95,8.91c0,0-9.52,19.87-22.89,32.03s-28.22,21.17-37.89,23.69-18.1,17.84-18.1,17.84l-12.04,17.6s-38.81-20.88-40.76-44.94Z"/><path fill="#d4deff" d="m221.25,394.59s-88.31-48.3-88.06-54.47c.25-6.17,29.95-29.48,41.87-45.73,11.91-16.24,62.33-57.63,60.93-62.85s-29.93-57.08-43.12-54.34c-13.19,2.75-78.57,45.72-112.07,72.88-33.5,27.16-71.16,62.22-74.69,83.45-3.53,21.23,6.7,45.4,6.7,45.4,0,0,114.41,127.89,126.35,145.59,11.94,17.7,42.71,61.15,42.71,61.15l39.38-191.09Z"/><path fill="#fff" d="m187.89,587.89c-8.93-12.65-36.91-51.72-46-65.19-11.7-17.35-117.78-136.05-126.24-145.52-1.37-3.46-9.35-24.69-6.29-43.1,2.71-16.27,28.82-45.19,73.52-81.44,34.32-27.83,98.44-69.67,110.66-72.22.12-.02.24-.04.38-.04,3.38,0,11.16,6.25,22.86,23.81,8.38,12.57,14.51,24.39,15.81,27.57-2.09,3.88-15.79,16.69-26.89,27.07-13.53,12.65-27.52,25.74-33.29,33.61-5.46,7.45-15.02,16.66-23.46,24.79-13.69,13.19-18.88,18.57-19.04,22.75-.11,2.73-.23,5.83,45.57,32.52,17.89,10.43,43.67,21.59,49.74,24.93l-37.32,190.44Z"/><g><path fill="#aac1f7" d="m133.26,342.68c-.57,3.04-2.03,5.7-3.67,8.29-1.76,2.79-3.59,5.53-5.39,8.29-3.74,5.72-7.5,11.43-11.26,17.14-1.06,1.62,1.53,3.12,2.59,1.51,3.85-5.85,7.7-11.69,11.53-17.55,1.83-2.8,3.7-5.59,5.47-8.43,1.62-2.62,3.05-5.4,3.62-8.45.35-1.89-2.54-2.7-2.89-.8h0Z"/><path fill="#aac1f7" d="m132.73,339.53c-14.97,9.7-31.72,16.46-49.22,19.88-4.97.97-9.99,1.66-15.04,2.07-1.91.16-1.93,3.16,0,3,18.16-1.49,35.95-6.46,52.25-14.62,4.65-2.33,9.16-4.92,13.52-7.74,1.61-1.05.11-3.64-1.51-2.59h0Z"/><path fill="#aac1f7" d="m144.57,455.82c10.09,13.91,18.27,29.19,24.25,45.3s9.8,32.86,11.32,49.9c.86,9.64.97,19.35.34,29.01-.13,1.93,2.87,1.92,3,0,1.13-17.34-.16-34.82-3.72-51.83s-9.4-33.53-17.31-48.99c-4.44-8.68-9.56-17.01-15.28-24.9-1.12-1.55-3.73-.05-2.59,1.51h0Z"/><path fill="#aac1f7" d="m186.39,515.74c-.14,16.97-1.18,33.92-3.12,50.77-.56,4.83-1.2,9.66-1.9,14.47-.28,1.89,2.61,2.7,2.89.8,2.5-17,4.12-34.12,4.79-51.3.19-4.91.3-9.83.34-14.75.02-1.93-2.98-1.93-3,0h0Z"/><path fill="#aac1f7" d="m210.23,396.68c-7.31,15.79-12.75,32.39-16.15,49.46-.38,1.89,2.52,2.69,2.89.8,3.35-16.8,8.65-33.19,15.85-48.74.81-1.74-1.78-3.27-2.59-1.51h0Z"/></g><g><path fill="#aac1f7" d="m554.33,350.66c17.89-3.79,36.72-1.92,53.56,5.17.75.32,1.64-.34,1.85-1.05.25-.86-.3-1.53-1.05-1.85-17.34-7.3-36.77-9.06-55.16-5.17-1.89.4-1.09,3.29.8,2.89h0Z"/><path fill="#aac1f7" d="m553.46,349.89c16.12-6.62,33.39-10.18,50.82-10.41,1.93-.03,1.93-3.03,0-3-17.68.24-35.26,3.8-51.61,10.52-1.76.72-.99,3.63.8,2.89h0Z"/><path fill="#aac1f7" d="m508.84,440.31c-2.12,30.39-6.1,60.65-11.93,90.55-1.65,8.47-3.45,16.9-5.39,25.31-.43,1.88,2.46,2.68,2.89.8,6.92-29.95,11.99-60.31,15.19-90.88.9-8.58,1.64-17.17,2.24-25.78.13-1.93-2.87-1.92-3,0h0Z"/><path fill="#aac1f7" d="m520.98,499.74c-5.49,10.17-10.08,20.84-14.54,31.48-5.14,12.24-9.98,24.61-14.45,37.11-2.01,5.61-3.94,11.25-5.66,16.95-.56,1.85,2.34,2.64,2.89.8,3.31-11.01,7.33-21.81,11.46-32.54,4.7-12.21,9.66-24.33,15.06-36.24,2.46-5.42,5-10.81,7.83-16.05.92-1.7-1.67-3.22-2.59-1.51h0Z"/></g><path fill="#f47382" d="m473.3,188.43c5.16,16,21.2,23.64,35.72,29.28,1.8.7,2.58-2.2.8-2.89-13.45-5.22-28.83-12.31-33.62-27.18-.59-1.83-3.49-1.05-2.89.8h0Z"/></g><g><rect width="365.83" height="68.57" x="568.21" y="856.44" fill="#121863"/><rect width="219.67" height="85.45" x="557.54" y="793.82" fill="#5f6bc1"/><rect width="195.74" height="64.32" x="569.5" y="804.38" fill="#121863"/><rect width="170.13" height="85.45" x="777.21" y="793.82" fill="#3c4da5" transform="rotate(180 862.275 836.545)"/><rect width="12.86" height="39.79" x="578.73" y="816.65" fill="#3c4da5"/><ellipse cx="609.63" cy="823.78" fill="#fff" rx="6.71" ry="7.13"/><ellipse cx="609.63" cy="849.31" fill="#ef5277" rx="6.71" ry="7.13"/><g><circle cx="638.49" cy="821.9" r="5.25" fill="#ef5277"/><circle cx="653.77" cy="821.9" r="5.25" fill="#3c4da5"/><circle cx="669.05" cy="821.9" r="5.25" fill="#3c4da5"/><circle cx="684.33" cy="821.9" r="5.25" fill="#5f6bc1"/><circle cx="699.6" cy="821.9" r="5.25" fill="#3c4da5"/><circle cx="638.49" cy="836.55" r="5.25" fill="#ef5277"/><circle cx="653.77" cy="836.55" r="5.25" fill="#5f6bc1"/><circle cx="669.05" cy="836.55" r="5.25" fill="#3c4da5"/><circle cx="684.33" cy="836.55" r="5.25" fill="#3c4da5"/><circle cx="699.6" cy="836.55" r="5.25" fill="#5f6bc1"/><circle cx="638.49" cy="851.19" r="5.25" fill="#3c4da5"/><circle cx="653.77" cy="851.19" r="5.25" fill="#5f6bc1"/><circle cx="669.05" cy="851.19" r="5.25" fill="#fff"/><circle cx="684.33" cy="851.19" r="5.25" fill="#fff"/><circle cx="699.6" cy="851.19" r="5.25" fill="#3c4da5"/><circle cx="715.32" cy="821.9" r="5.25" fill="#3c4da5"/><circle cx="730.6" cy="821.9" r="5.25" fill="#fff"/><circle cx="745.88" cy="821.9" r="5.25" fill="#3c4da5"/><circle cx="715.32" cy="836.55" r="5.25" fill="#3c4da5"/><circle cx="730.6" cy="836.55" r="5.25" fill="#fff"/><circle cx="745.88" cy="836.55" r="5.25" fill="#3c4da5"/><circle cx="715.32" cy="851.19" r="5.25" fill="#ef5277"/><circle cx="730.6" cy="851.19" r="5.25" fill="#ef5277"/><circle cx="745.88" cy="851.19" r="5.25" fill="#ef5277"/></g><g><rect width="219.67" height="85.45" x="557.54" y="890.29" fill="#5f6bc1"/><rect width="195.74" height="64.32" x="569.5" y="900.86" fill="#121863"/><rect width="170.13" height="85.45" x="777.21" y="890.29" fill="#3c4da5" transform="rotate(180 862.275 933.015)"/><rect width="12.86" height="39.79" x="578.73" y="913.12" fill="#3c4da5"/><ellipse cx="609.63" cy="920.25" fill="#fff" rx="6.71" ry="7.13"/><ellipse cx="609.63" cy="945.78" fill="#ef5277" rx="6.71" ry="7.13"/><g><circle cx="638.49" cy="918.37" r="5.25" fill="#ef5277"/><circle cx="653.77" cy="918.37" r="5.25" fill="#3c4da5"/><circle cx="669.05" cy="918.37" r="5.25" fill="#3c4da5"/><circle cx="684.33" cy="918.37" r="5.25" fill="#5f6bc1"/><circle cx="699.6" cy="918.37" r="5.25" fill="#3c4da5"/><circle cx="638.49" cy="933.02" r="5.25" fill="#ef5277"/><circle cx="653.77" cy="933.02" r="5.25" fill="#5f6bc1"/><circle cx="669.05" cy="933.02" r="5.25" fill="#3c4da5"/><circle cx="684.33" cy="933.02" r="5.25" fill="#3c4da5"/><circle cx="699.6" cy="933.02" r="5.25" fill="#5f6bc1"/><circle cx="638.49" cy="947.66" r="5.25" fill="#3c4da5"/><circle cx="653.77" cy="947.66" r="5.25" fill="#5f6bc1"/><circle cx="669.05" cy="947.66" r="5.25" fill="#fff"/><circle cx="684.33" cy="947.66" r="5.25" fill="#fff"/><circle cx="699.6" cy="947.66" r="5.25" fill="#3c4da5"/><circle cx="715.32" cy="918.37" r="5.25" fill="#3c4da5"/><circle cx="730.6" cy="918.37" r="5.25" fill="#fff"/><circle cx="745.88" cy="918.37" r="5.25" fill="#3c4da5"/><circle cx="715.32" cy="933.02" r="5.25" fill="#3c4da5"/><circle cx="730.6" cy="933.02" r="5.25" fill="#fff"/><circle cx="745.88" cy="933.02" r="5.25" fill="#3c4da5"/><circle cx="715.32" cy="947.66" r="5.25" fill="#ef5277"/><circle cx="730.6" cy="947.66" r="5.25" fill="#ef5277"/><circle cx="745.88" cy="947.66" r="5.25" fill="#ef5277"/></g></g></g><g><path fill="#ef5277" d="m242.5,67.65v48.34c0,9.23-7.69,16.72-17.18,16.72h-110.26c-36.92,0-66.85-29.13-66.85-65.06,0-17.96,7.48-34.23,19.58-46,12.1-11.77,28.81-19.05,47.27-19.05h60.6c36.92,0,66.84,29.13,66.84,65.05Z"/><path fill="#fff" d="m115.44,93.74c0-2.23.8-4.05,2.41-5.48,1.61-1.43,3.62-2.14,6.03-2.14s4.42.72,6.03,2.14c1.61,1.43,2.41,3.26,2.41,5.48s-.81,4.05-2.41,5.48c-1.61,1.43-3.62,2.14-6.03,2.14s-4.42-.72-6.03-2.14c-1.61-1.43-2.41-3.26-2.41-5.48Zm14.71-13.99h-12.32l-1.94-44.91h16.2l-1.94,44.91Z"/><path fill="#fff" d="m151.82,79.75c0-4.39.5-7.86,1.49-10.4.99-2.54,2.6-4.75,4.83-6.61,2.23-1.87,3.92-3.57,5.08-5.12,1.16-1.55,1.74-3.26,1.74-5.12,0-4.54-1.96-6.82-5.87-6.82-1.81,0-3.27.66-4.38,1.99-1.11,1.32-1.7,3.11-1.76,5.37h-15.25c.06-6.02,1.96-10.7,5.69-14.06,3.73-3.35,8.97-5.03,15.71-5.03s11.91,1.55,15.59,4.65c3.69,3.1,5.53,7.51,5.53,13.22,0,2.5-.5,4.77-1.49,6.82-.99,2.05-2.59,4.14-4.78,6.27l-5.19,4.83c-1.47,1.41-2.5,2.87-3.07,4.36-.57,1.49-.89,3.38-.95,5.66h-12.91Zm-1.85,13.72c0-2.23.8-4.05,2.41-5.48,1.61-1.43,3.62-2.14,6.02-2.14s4.42.72,6.03,2.14c1.61,1.43,2.41,3.26,2.41,5.48s-.81,4.06-2.41,5.48c-1.61,1.43-3.62,2.14-6.03,2.14s-4.42-.71-6.02-2.14c-1.61-1.43-2.41-3.26-2.41-5.48Z"/></g><g><path fill="#fff" d="m977.23,225.34l-17.76-4.93c.39-6.25-.31-12.61-2.18-18.82l16.08-8.73c.85-.46.97-1.61.21-2.21-1.54-1.22-3.93-3.61-6.51-8.12-2.58-4.52-3.41-7.76-3.66-9.68-.12-.94-1.19-1.45-2.04-.99l-16.02,8.7c-4.41-4.86-9.6-8.84-15.27-11.84l5.01-17.15c.26-.91-.49-1.81-1.46-1.71-1.97.21-5.4.15-10.49-1.26-5.1-1.41-8.04-3.13-9.6-4.32-.77-.58-1.9-.2-2.16.71l-4.99,17.09c-6.47-.38-13.05.32-19.45,2.18l-8.86-15.51c-.47-.83-1.66-.95-2.27-.21-1.25,1.5-3.71,3.83-8.33,6.34-4.63,2.51-7.96,3.33-9.92,3.57-.96.11-1.49,1.16-1.01,1.99l8.86,15.51c-4.99,4.33-9.07,9.42-12.13,14.98l-17.54-4.87c-.94-.26-1.86.48-1.76,1.42.21,1.92.17,5.26-1.28,10.23-1.46,4.97-3.21,7.84-4.43,9.36-.59.75-.21,1.85.72,2.11l17.59,4.88c-.37,6.28.37,12.67,2.29,18.89l-16.02,8.7c-.85.46-.97,1.62-.21,2.21,1.54,1.22,3.93,3.61,6.51,8.12,2.58,4.52,3.41,7.76,3.66,9.68.12.95,1.19,1.45,2.04.99l16.08-8.73c4.42,4.82,9.6,8.75,15.26,11.72l-5.05,17.31c-.26.91.49,1.81,1.46,1.71,1.97-.21,5.39-.16,10.49,1.26,5.11,1.42,8.04,3.13,9.6,4.32.77.58,1.9.2,2.17-.71l5.07-17.35c6.4.35,12.89-.35,19.23-2.19l9.01,15.77c.47.83,1.66.94,2.27.21,1.24-1.51,3.71-3.83,8.33-6.34,4.63-2.51,7.96-3.33,9.93-3.57.96-.12,1.49-1.16,1.01-1.99l-9.01-15.77c4.94-4.28,8.97-9.3,12.03-14.78l17.8,4.94c.94.25,1.86-.48,1.76-1.42-.21-1.92-.16-5.26,1.29-10.23,1.46-4.97,3.21-7.84,4.43-9.36.59-.75.21-1.85-.72-2.11Zm-51.27-20.5c7.04,12.32,2.5,27.86-10.14,34.72-12.63,6.86-28.57,2.43-35.61-9.89-7.03-12.31-2.5-27.85,10.13-34.71,12.63-6.86,28.58-2.43,35.61,9.88Z"/><path fill="#fff" d="m923.74,347.19l-10.52-2.92c.23-3.7-.18-7.47-1.29-11.14l9.52-5.17c.5-.27.57-.96.12-1.31-.91-.72-2.33-2.14-3.85-4.81-1.53-2.67-2.02-4.59-2.17-5.73-.07-.56-.71-.86-1.21-.59l-9.48,5.15c-2.61-2.88-5.68-5.23-9.04-7.01l2.97-10.16c.16-.54-.29-1.07-.86-1.01-1.17.12-3.2.09-6.21-.75-3.02-.84-4.76-1.86-5.69-2.56-.45-.34-1.12-.12-1.28.42l-2.96,10.12c-3.83-.22-7.73.19-11.52,1.29l-5.25-9.18c-.28-.49-.99-.56-1.35-.12-.74.89-2.19,2.27-4.93,3.76-2.74,1.49-4.71,1.97-5.88,2.11-.57.07-.88.69-.6,1.18l5.25,9.18c-2.96,2.57-5.37,5.58-7.19,8.87l-10.39-2.88c-.56-.15-1.1.28-1.04.84.13,1.14.1,3.12-.76,6.06-.86,2.94-1.9,4.64-2.62,5.54-.35.44-.12,1.1.43,1.25l10.42,2.89c-.22,3.72.22,7.5,1.35,11.19l-9.48,5.15c-.5.27-.57.96-.12,1.31.91.72,2.33,2.14,3.85,4.81,1.53,2.67,2.02,4.59,2.17,5.73.07.56.71.86,1.21.59l9.52-5.17c2.62,2.85,5.69,5.18,9.04,6.94l-2.99,10.25c-.16.54.29,1.07.86,1.01,1.17-.12,3.19-.09,6.21.74,3.02.84,4.76,1.86,5.69,2.56.46.35,1.12.12,1.28-.42l3-10.28c3.79.21,7.64-.21,11.39-1.29l5.34,9.34c.28.49.98.56,1.35.12.74-.89,2.19-2.27,4.93-3.76,2.74-1.49,4.71-1.97,5.88-2.11.57-.07.88-.69.6-1.18l-5.34-9.34c2.92-2.54,5.31-5.51,7.12-8.76l10.54,2.92c.55.15,1.1-.28,1.04-.84-.13-1.14-.1-3.11.76-6.06.86-2.94,1.9-4.64,2.62-5.54.35-.44.12-1.1-.43-1.25Zm-30.36-12.14c4.17,7.29,1.48,16.5-6,20.56-7.48,4.06-16.92,1.44-21.09-5.85-4.16-7.29-1.48-16.5,6-20.56,7.48-4.06,16.93-1.44,21.09,5.85Z"/></g></svg>