<?xml version="1.0" encoding="utf-8"?>
<!-- Generator: Adobe Illustrator 23.0.1, SVG Export Plug-In . SVG Version: 6.00 Build 0)  -->
<svg version="1.1" id="Layer_1" xmlns="http://www.w3.org/2000/svg" xmlns:xlink="http://www.w3.org/1999/xlink" x="0px" y="0px"
	 width="350px" height="350px" viewBox="0 0 1000 1000" style="enable-background:new 0 0 1000 1000;" xml:space="preserve">
<style type="text/css">
	.st0{fill:#399433;}
</style>
<path id="use6775" class="st0" d="M84.7,606.8c0,20.2,6.4,39.7,18.8,55.3c92.7,115.2,239.5-20.6,339.1-104.8
	c-84.2,99.6-220.2,246.2-104.8,338.8c55.3,44.5,162,9.9,162-99.8c0,109.7,106.4,144.3,161.7,99.8c115.2-92.7-20.6-239.3-104.8-338.8
	c99.6,84.2,246.2,219.8,338.8,104.8c44.5-55.3,10.1-161.7-99.8-161.7c109.7,0,144.1-106.7,99.8-162
	c-92.7-115.2-239.3,20.9-338.8,104.8c84.2-99.6,220-246.2,104.8-339.1c-55.3-44.5-161.7-9.9-161.7,99.8
	c0-109.7-106.7-144.3-162-99.8c-115.4,92.7,20.9,239.5,105.1,339.1c-99.6-84.1-246.4-220.2-339.1-105c-44.5,55.3-9.9,162,99.8,162
	C124.7,500.6,84.5,555.4,84.7,606.8L84.7,606.8z"/>
</svg>
