<svg version="1.1" id="Layer_1" xmlns="http://www.w3.org/2000/svg" xmlns:xlink="http://www.w3.org/1999/xlink" x="0px" y="0px"
	 width="300px" height="300px" viewBox="0 0 1000 1000" style="enable-background:new 0 0 1000 1000;" xml:space="preserve">
<style type="text/css">
	.st0{fill:#12A007;}
	.st1{fill:#153012;}
	.st2{fill:#F4CB00;}
</style>
<g>
	<path class="st0" d="M956.9,754.8c-7.7-17.1-28.2-24.2-45.9-16.3c-49.2,20-98.4,36.1-147.6,48.9c-13.6-59.3-74.2-373.9,102.6-630
		c0,0-108.8-67.5-366-67.5c-257,0-366,67.5-366,67.5c176.9,256,116.2,570.7,102.6,630c-49.2-12.8-98.4-29.1-147.6-48.9
		c-17.6-7.9-38-0.8-45.9,16.3c-7.7,17.1,0.8,38.5,19.7,46.9c291.1,118.4,583.3,118.4,874.4,0C955.9,793.2,964.6,771.9,956.9,754.8z"
		/>
	<path class="st1" d="M765.7,787.4c0,0-0.1-0.2-0.1-0.6c-0.7,0.2-1.4,0.4-2.2,0.6c-4.7-20.5-15.1-71.7-19.2-140.5
		c-58.3,13.3-138.7,24.9-244.2,24.9c-105.5,0-185.9-11.3-244.2-24.8c-4.2,68.7-14.5,119.8-19.2,140.4c-0.7-0.2-1.4-0.4-2.1-0.6
		c-0.1,0.4-0.2,0.7-0.2,0.7S338.8,846,500,846S765.7,787.4,765.7,787.4z"/>
	<path class="st2" d="M553.9,655H440.4c-21.5,0-39.4,18-39.4,40.1v117.4c0,22.3,17.9,40.5,39.4,40.5h113.5
		c21.5,0,39.1-18.1,39.1-40.5V695.1C593,672.8,575.4,655,553.9,655z M567,812.7c0,7.4-5.9,13.3-13.1,13.3H440.4
		c-7.1,0-13.4-5.9-13.4-13.3V774h34c6.6,0,12-5.4,12-12v-12c0-6.6-5.4-12-12-12h-34v-42.7c0-7.4,6.2-13.3,13.4-13.3h113.5
		c7.1,0,13.1,5.9,13.1,13.3V812.7z"/>
</g>
</svg>
