<svg id="loud-speaker" width="250px" xmlns="http://www.w3.org/2000/svg" viewBox="0 0 1204.82 886.31"><defs><style>.cls-1{fill:yellow;}.cls-2{fill:#399433;}.cls-3{fill:yellow;}</style></defs><path class="cls-1" d="M424.62,633.84h74.56a0,0,0,0,1,0,0V783.67a0,0,0,0,1,0,0H424.62A18.64,18.64,0,0,1,406,765V652.48A18.64,18.64,0,0,1,424.62,633.84Z" transform="translate(-585.75 72.73) rotate(-17.88)"/><rect class="cls-2" x="509.42" y="538.91" width="160.45" height="243.04" transform="translate(-564.3 112.47) rotate(-17.88)"/><polygon class="cls-2" points="376.62 847.56 256.48 886.31 231.46 658.85 307.81 634.22 376.62 847.56"/><path class="cls-3" d="M1151.18,712c-100.79-29.74-268.84-16.85-435.26,32.3L641.32,513c155.29-58,301.06-156,362-248.62Z" transform="translate(-390.05 -100.39)"/><path class="cls-2" d="M1093.46,412.15h39.14a29.28,29.28,0,0,1,29.28,29.28V528a29.28,29.28,0,0,1-29.28,29.28h-39.14a0,0,0,0,1,0,0V412.15A0,0,0,0,1,1093.46,412.15Z" transform="translate(-484.39 269.14) rotate(-17.88)"/><path d="M1127.49,378.25q2.92-11.24,6-22.42l3.06-11.2,3.13-11.17c4.14-14.9,8.47-29.75,12.76-44.61l13.16-44.48L1179.13,200l3.57-11.71,5.25,11.15,10.36,22,10.27,22,10.21,22,10.13,22.07-8.92.09c7-15.74,14.11-31.42,21.21-47.1s14.36-31.31,21.56-47c3.59-7.83,7.32-15.59,11-23.39s7.34-15.59,11.09-23.35,7.44-15.53,11.24-23.27,7.59-15.47,11.48-23.17q-4.56,12.1-9.29,24.13c-3.12,8-6.33,16-9.53,24s-6.42,16-9.68,24-6.46,16-9.8,23.9c-6.64,15.89-13.17,31.83-20,47.65s-13.45,31.7-20.32,47.49l-4.32,9.94-4.6-9.85-10.28-22-10.21-22-10.15-22.07-10.06-22.1,8.83-.56-14.55,44-14.92,43.92c-5.07,14.61-10.09,29.24-15.31,43.8l-3.89,10.93-4,10.91Q1131.6,367.39,1127.49,378.25Z" transform="translate(-390.05 -100.39)"/><path d="M1200.79,446.62q15.21-16,30.6-31.86t30.87-31.57l15.49-15.74,15.56-15.66,15.57-15.65,15.63-15.58,5-5,1,7.06,3.63,26.38c1.22,8.79,2.37,17.59,3.53,26.4l3.48,26.4c1.14,8.8,2.35,17.6,3.44,26.41l-6.08-2.86c18.92-11.94,37.79-24,56.77-35.83s37.93-23.76,57-35.47,38.13-23.44,57.26-35.07,38.33-23.13,57.67-34.42c-18.42,12.74-37,25.2-55.61,37.66s-37.28,24.78-56,37-37.51,24.43-56.28,36.6-37.68,24.16-56.52,36.24l-5.25,3.38-.84-6.23c-1.18-8.79-2.24-17.61-3.37-26.41L1330,376.4c-1.12-8.81-2.24-17.62-3.29-26.43l-3.19-26.44,6,2.07-15.91,15.3-16,15.23-16,15.23-16.07,15.15c-10.68,10.12-21.45,20.15-32.22,30.2S1211.69,436.71,1200.79,446.62Z" transform="translate(-390.05 -100.39)"/><path d="M1214.27,541.23q20.34,11.44,40.53,23.15L1275,576.09l20.12,11.82q10.07,5.88,20.08,11.86l20,11.92c13.38,7.93,26.66,16,40,24l-5.62,3.33c-.52-8.88-1-17.76-1.51-26.64l-1.41-26.66-1.39-26.65L1364,532.43l-.24-5,4.88.95,28.35,5.53,28.32,5.69,28.31,5.71,28.29,5.86c9.44,1.93,18.85,3.94,28.27,5.94s18.84,4,28.25,6.06c18.82,4.09,37.63,8.25,56.4,12.63-19.06-2.89-38.07-6-57.07-9.16-9.5-1.55-19-3.21-28.48-4.83s-19-3.25-28.46-5l-28.44-5L1424,546.65l-28.41-5.21-28.38-5.36,4.64-4,1.42,26.65,1.28,26.66,1.26,26.66c.44,8.88.81,17.77,1.17,26.66l.29,7-5.9-3.71c-13.17-8.27-26.4-16.45-39.52-24.79l-19.71-12.49q-9.86-6.22-19.67-12.54l-19.64-12.59-19.57-12.69Q1233.67,554.21,1214.27,541.23Z" transform="translate(-390.05 -100.39)"/></svg>